<svg width="31" height="24" viewBox="0 0 31 24" fill="none" xmlns="http://www.w3.org/2000/svg">
<path d="M20.7853 5.45457V18C20.7853 20.4109 18.3152 22.3636 15.2655 22.3636C12.2159 22.3636 9.74565 20.4109 9.74565 18V4.36362C9.74565 2.85817 11.2912 1.63636 13.1955 1.63636C15.0999 1.63636 16.6455 2.85817 16.6455 4.36362V15.8182C16.6455 16.4182 16.0314 16.9091 15.2655 16.9091C14.4996 16.9091 13.8856 16.4182 13.8856 15.8182V5.45457H11.8156V15.8182C11.8156 17.3237 13.3612 18.5455 15.2655 18.5455C17.1699 18.5455 18.7154 17.3236 18.7154 15.8182V4.36362C18.7154 1.95275 16.2452 0 13.1956 0C10.1459 0 7.67578 1.95275 7.67578 4.36362V18C7.67578 21.3164 11.0774 24 15.2655 24C19.4536 24 22.8553 21.3164 22.8553 18V5.45457H20.7853Z" fill="#FAD091"/>
</svg>
