<svg width="8" height="8" viewBox="0 0 8 8" fill="none" xmlns="http://www.w3.org/2000/svg">
<g opacity="0.45">
<path d="M6.91414 3.3694C6.75132 2.58009 6.29007 1.88916 5.63145 1.44803C5.31561 1.23558 4.96321 1.08676 4.59309 1.00951C4.55094 1.00074 4.50819 0.993219 4.46543 0.986954L4.42573 0.980689L4.33288 0.968787L4.28769 0.965654C4.24859 0.961896 4.20889 0.958763 4.16919 0.956884H4.15575C4.1075 0.956884 4.05863 0.953125 4.00977 0.953125C3.96091 0.953125 3.90593 0.953125 3.85524 0.95751H3.84241C3.80026 0.95751 3.75812 0.963775 3.71597 0.96816L3.67138 0.973172C3.63901 0.976931 3.60603 0.981316 3.57366 0.986328L3.53151 0.992592C3.48692 1.00011 3.44233 1.00825 3.39774 1.01765C2.92033 1.12192 2.47522 1.34495 2.10159 1.6671C1.72795 1.98925 1.43725 2.40065 1.25505 2.8651C1.03589 3.4232 0.983792 4.03561 1.1054 4.62421C1.14531 4.81979 1.20424 5.01077 1.28131 5.19429C1.35306 5.36611 1.44016 5.53074 1.54151 5.68607C1.87479 6.19665 2.35029 6.59244 2.90605 6.82185C3.07539 6.89098 3.25063 6.94383 3.42951 6.97972C3.47104 6.98786 3.5138 6.99538 3.55655 7.00227L3.59626 7.00791C3.62741 7.0123 3.65734 7.01668 3.6891 7.01981L3.73124 7.02483C3.77095 7.02858 3.81004 7.03172 3.84974 7.0336C3.90288 7.0336 3.95602 7.03861 4.00977 7.03861C4.21494 7.03945 4.41963 7.01845 4.62057 6.97596C4.99154 6.89647 5.34409 6.74439 5.65894 6.52804C5.82091 6.41829 5.9719 6.29239 6.10971 6.15216C6.25476 6.00285 6.38452 5.83869 6.49696 5.66226C6.70418 5.33836 6.84929 4.97691 6.92452 4.59727C7.00308 4.19363 7.001 3.77784 6.91842 3.37504L6.91414 3.3694ZM4.50025 0.995098L4.47337 0.990713L4.50025 0.995098ZM4.40496 0.980689L4.33838 0.971919L4.40496 0.980689ZM4.2828 0.966281C4.24493 0.962522 4.20767 0.95939 4.1698 0.95751C4.20828 0.95939 4.24554 0.965654 4.28341 0.965654L4.2828 0.966281ZM3.84058 0.95751C3.80026 0.95751 3.75995 0.963149 3.71842 0.967534C3.76056 0.965654 3.80087 0.960016 3.84119 0.95751H3.84058ZM3.66222 0.973798L3.59137 0.983822L3.66222 0.973798ZM3.51929 0.994472L3.49242 1.00011L3.51929 0.994472ZM3.51929 6.99789L3.54617 7.0029L3.51929 6.99789ZM3.61458 7.01292L3.68177 7.02169L3.61458 7.01292ZM3.73674 7.02733C3.77461 7.03109 3.81187 7.03422 3.84974 7.0361C3.81065 7.03422 3.77339 7.03109 3.73552 7.02733H3.73674Z" fill="#FAD091"/>
<path d="M1.12669 5.26401C1.04652 5.07063 0.98514 4.8696 0.943451 4.66386C0.925738 4.5774 0.91169 4.4897 0.900695 4.40137L0.15918 4.49408C0.172617 4.60392 0.190127 4.7123 0.211709 4.81922C0.263986 5.07491 0.340919 5.32463 0.441371 5.56471C0.459695 5.60919 0.479241 5.65242 0.502451 5.69564L1.17434 5.36926C1.15784 5.3348 1.14196 5.29972 1.12669 5.26401Z" fill="#111C43"/>
<path d="M7.25498 6.18082L6.63135 5.76172C6.51345 5.94562 6.37756 6.1167 6.22578 6.27229C6.14403 6.35611 6.05777 6.43517 5.96741 6.50909L6.43345 7.10611C6.7534 6.84432 7.03071 6.53199 7.25498 6.18082Z" fill="#111C43"/>
<path d="M2.84482 6.98017C2.70249 6.92205 2.56467 6.85294 2.43253 6.77344L2.05688 7.43436C2.22068 7.5326 2.39136 7.61825 2.56752 7.69058C2.77071 7.77421 2.9806 7.83961 3.19481 7.88604L3.35118 7.13804C3.17828 7.10045 3.00887 7.04763 2.84482 6.98017Z" fill="#111C43"/>
<path d="M6.89152 2.73242C6.97174 2.92643 7.03312 3.12808 7.07476 3.33445C7.09247 3.4209 7.10652 3.50861 7.11751 3.59756L7.8572 3.50234C7.84376 3.39271 7.82666 3.28433 7.80467 3.17721C7.7523 2.92134 7.67537 2.67141 7.57501 2.43109C7.55668 2.38723 7.53714 2.34401 7.51393 2.30078L6.84204 2.62654C6.86037 2.66163 6.87625 2.69671 6.89152 2.73242Z" fill="#111C43"/>
<path d="M5.17652 1.01524C5.3178 1.07324 5.45478 1.1417 5.58637 1.2201L5.96202 0.559177C5.60914 0.348511 5.22586 0.196685 4.82653 0.109375L4.67017 0.857374C4.84289 0.895667 5.01224 0.948468 5.17652 1.01524Z" fill="#111C43"/>
<path d="M7.85948 3.50393L7.1198 3.59915C7.1088 3.51019 7.09475 3.42249 7.07704 3.33541C7.0354 3.12904 6.97402 2.92739 6.8938 2.73338C6.87853 2.69767 6.86265 2.66259 6.84677 2.6275L7.51865 2.30174C7.3285 1.88644 7.06931 1.50826 6.7527 1.18413C6.56251 0.989549 6.35333 0.815522 6.12846 0.664789C6.0741 0.628454 6.01852 0.593372 5.96232 0.559543L5.58546 1.21858C5.45308 1.13937 5.31529 1.07007 5.17317 1.01122C5.00961 0.945432 4.84107 0.893471 4.66925 0.855861L4.82562 0.107862L4.7682 0.0953325C4.25326 -0.00860792 3.72323 -0.00562565 3.20943 0.104103C2.72567 0.208655 2.26584 0.407042 1.85467 0.688595C1.76183 0.751242 1.67143 0.820779 1.58531 0.892196L2.05135 1.48922C1.96099 1.56293 1.87473 1.64178 1.79298 1.72539C1.63941 1.88284 1.50226 2.05626 1.38374 2.24286L1.38802 2.23659L0.764386 1.81686L0.758889 1.825C0.619624 2.04382 0.501583 2.27609 0.406455 2.5185C0.223167 2.9894 0.129053 3.4918 0.12915 3.99884C0.129213 4.16449 0.139208 4.32998 0.15908 4.49437L0.898763 4.39915C0.909757 4.48811 0.923806 4.57581 0.941519 4.66226C0.983052 4.86886 1.04443 5.07073 1.12476 5.26492C1.14003 5.30063 1.15591 5.33571 1.17179 5.37017L0.499908 5.69656C0.581749 5.87448 0.676273 6.04597 0.78271 6.20963C1.07453 6.65654 1.45115 7.03856 1.8901 7.33288C1.94385 7.36922 1.99943 7.4043 2.05562 7.43813L2.43127 6.77721C2.73043 6.95648 3.05656 7.0835 3.39634 7.15309L3.34992 7.14244L3.19355 7.89044L3.25036 7.90297C3.75015 8.00589 4.26485 8.00646 4.76487 7.90465C5.26488 7.80284 5.74033 7.60065 6.16389 7.30971C6.25673 7.24706 6.34713 7.17815 6.43325 7.10673L5.96721 6.50971C6.05758 6.43578 6.14383 6.35672 6.22558 6.27291C6.37736 6.11731 6.51325 5.94624 6.63115 5.76234L7.25478 6.18144L7.25967 6.1733C7.39936 5.9543 7.51743 5.72157 7.6121 5.47855C7.70105 5.25172 7.76895 5.0168 7.81489 4.77691C7.86455 4.52047 7.88951 4.25965 7.88941 3.99821C7.8893 3.83298 7.87931 3.66791 7.85948 3.50393ZM6.80279 2.54043L6.78569 2.50722L6.80279 2.54043ZM6.6849 2.32492C6.6623 2.28733 6.6397 2.25037 6.61588 2.21404C6.64032 2.25037 6.66291 2.28733 6.6849 2.32492ZM6.74598 2.43393L6.71544 2.3788L6.74598 2.43393ZM2.2688 1.32508C2.23093 1.35077 2.19367 1.37771 2.15702 1.40527C2.19367 1.37771 2.23093 1.35077 2.2688 1.32508ZM0.887768 4.2914V4.30643V4.2914ZM0.876163 4.09406C0.876163 4.1022 0.876163 4.10972 0.876163 4.11787C0.876774 4.10972 0.876163 4.10032 0.876163 4.09406ZM0.882271 4.19116C0.882271 4.19868 0.882271 4.2062 0.882271 4.21371C0.882271 4.2062 0.882271 4.19868 0.882271 4.19116ZM1.21821 5.45787L1.2347 5.49108L1.21821 5.45787ZM1.33488 5.67338C1.35748 5.71097 1.38008 5.74793 1.4039 5.78426C1.37824 5.74793 1.35564 5.71097 1.33304 5.67338H1.33488ZM1.2738 5.56375C1.28357 5.58254 1.29395 5.60133 1.30495 5.6195C1.29212 5.60384 1.28113 5.58254 1.27135 5.56375H1.2738ZM5.75221 6.67322C5.79008 6.6469 5.82734 6.61997 5.86398 6.5924C5.82571 6.61997 5.78763 6.6469 5.74976 6.67322H5.75221ZM6.29338 5.52491C6.19036 5.68704 6.07123 5.83778 5.93789 5.97471C5.69218 6.22653 5.40197 6.42808 5.08277 6.5686C4.91777 6.63998 4.74633 6.69454 4.57091 6.73148C4.38645 6.77242 4.19831 6.79341 4.00958 6.79412C3.83055 6.7941 3.65195 6.77606 3.47635 6.74025C3.3122 6.70662 3.15147 6.65733 2.99626 6.59303C2.48562 6.38297 2.04889 6.01935 1.7435 5.54996C1.44397 5.091 1.2841 4.55113 1.28418 3.99884C1.28377 3.45629 1.4379 2.92544 1.72762 2.47151C2.02175 2.00906 2.44247 1.64598 2.93701 1.42782C3.44292 1.20575 4.00251 1.14591 4.54221 1.25617C4.70653 1.29054 4.86728 1.34089 5.0223 1.40652C5.36514 1.54732 5.67676 1.75762 5.9385 2.02485C6.25554 2.34961 6.48954 2.74961 6.61974 3.18935C6.74994 3.62909 6.77233 4.095 6.6849 4.54574C6.65113 4.71482 6.60206 4.8803 6.53831 5.04002C6.47146 5.20954 6.38861 5.37194 6.29094 5.52491H6.29338ZM7.13201 3.6925V3.70565V3.6925ZM7.1369 3.78709C7.1369 3.79398 7.1369 3.8015 7.1369 3.80839C7.13812 3.79962 7.13751 3.7921 7.1369 3.78709ZM7.14179 3.88294C7.14179 3.89046 7.14179 3.89798 7.14179 3.90549C7.1424 3.8961 7.14179 3.88858 7.14179 3.88106V3.88294Z" fill="url(#paint0_linear)"/>
<path d="M1.79251 1.72382C1.87426 1.64021 1.96052 1.56136 2.05088 1.48765L1.58484 0.890625C1.47339 0.982294 1.36676 1.07995 1.26539 1.18318C1.07765 1.37579 0.909618 1.5876 0.763916 1.81529L1.38755 2.23502C1.50519 2.05091 1.64088 1.87962 1.79251 1.72382Z" fill="#111C43"/>
<path d="M6.46067 3.46946C6.42684 3.30437 6.37691 3.14318 6.31164 2.98833C6.251 2.84322 6.17739 2.70417 6.09175 2.57299C5.90356 2.28427 5.66024 2.03769 5.3765 1.84817C5.23909 1.75555 5.09299 1.67727 4.94038 1.61449C4.79765 1.55541 4.64979 1.51031 4.49877 1.4798C4.3379 1.44659 4.17422 1.4298 4.01013 1.42969C3.83649 1.4298 3.66333 1.44828 3.49339 1.48482C3.18158 1.55198 2.88512 1.67956 2.61994 1.8607C2.33766 2.05419 2.09678 2.30465 1.91202 2.59679C1.82203 2.73781 1.74591 2.88764 1.6848 3.04409C1.62742 3.19051 1.58366 3.34216 1.55409 3.49702C1.4549 4.00557 1.50813 4.53301 1.70679 5.00993C1.96982 5.63605 2.46397 6.12981 3.0811 6.38315C3.33846 6.48959 3.61141 6.551 3.88858 6.56482C3.76754 6.5585 3.6471 6.54322 3.5282 6.51909C3.3791 6.48862 3.2331 6.44395 3.09209 6.38565C2.94148 6.32316 2.79707 6.24596 2.66086 6.15511C2.51741 6.05892 2.38396 5.94787 2.26262 5.82371C2.14922 5.70544 2.04696 5.57644 1.95722 5.43844C1.87285 5.30865 1.80007 5.17131 1.73977 5.0281C1.51206 4.48404 1.47698 3.87543 1.64062 3.30764C1.80425 2.73985 2.1563 2.24861 2.63582 1.91896C2.76194 1.83206 2.89567 1.7574 3.03529 1.69594C3.18463 1.63018 3.33991 1.57961 3.49889 1.54496C3.66683 1.50894 3.83794 1.49067 4.00952 1.49045C4.17196 1.49066 4.33399 1.50724 4.49327 1.53995C4.64238 1.57041 4.78838 1.61508 4.92939 1.67338C5.08018 1.73549 5.22462 1.81271 5.36062 1.90392C5.7702 2.17827 6.09169 2.57055 6.28476 3.03156C6.34904 3.18462 6.39815 3.34391 6.43135 3.50705C6.53387 3.99768 6.49134 4.50853 6.30919 4.97423C6.2487 5.12772 6.1734 5.27462 6.08442 5.41275C5.99103 5.56002 5.88295 5.69691 5.76191 5.82121C5.53902 6.04982 5.27577 6.23287 4.98619 6.36059C4.83693 6.42643 4.68162 6.4768 4.52259 6.51095C4.35489 6.54724 4.18396 6.56551 4.01257 6.56545C4.35129 6.56555 4.68649 6.495 4.9978 6.35809C5.45261 6.15806 5.83944 5.82431 6.10946 5.39897C6.19917 5.25768 6.27546 5.1079 6.33729 4.95167C6.3949 4.80528 6.43887 4.65363 6.46861 4.49874C6.50099 4.33375 6.51736 4.16587 6.51748 3.99757C6.51624 3.82 6.49721 3.64303 6.46067 3.46946Z" fill="#111C43"/>
<path d="M1.68594 2.44552C1.58684 2.6022 1.50277 2.76837 1.4349 2.94168C1.30484 3.27831 1.2377 3.63705 1.237 3.99915C1.23692 4.56114 1.39885 5.11061 1.70243 5.57847C2.01327 6.05623 2.45791 6.42621 2.97779 6.6397C3.13602 6.7039 3.29956 6.75338 3.46643 6.78755C3.64502 6.82413 3.82671 6.84238 4.00883 6.84205C4.38359 6.84219 4.75449 6.7644 5.09911 6.61339C5.25613 6.54457 5.40645 6.46067 5.54805 6.3628C6.01395 6.04437 6.37473 5.58849 6.58275 5.05537C6.64591 4.89328 6.69416 4.72549 6.7269 4.5542C6.85372 3.90341 6.75445 3.22761 6.4463 2.64404C6.13815 2.06046 5.64057 1.60591 5.03986 1.35922C4.71183 1.22591 4.36228 1.15705 4.00944 1.15625C3.63455 1.15685 3.2636 1.2346 2.91854 1.38491C2.59338 1.52691 2.29788 1.73172 2.04815 1.9882C1.91242 2.12748 1.79105 2.28073 1.68594 2.44552ZM3.0065 1.59478C3.16033 1.52726 3.32034 1.47564 3.48415 1.44067C3.82126 1.36766 4.1693 1.36553 4.50724 1.4344C4.66089 1.46556 4.81139 1.51128 4.95679 1.57097C5.11271 1.63487 5.2619 1.71484 5.40207 1.80965C5.69096 2.00215 5.93833 2.2533 6.12893 2.54763C6.2161 2.68192 6.29075 2.82434 6.35187 2.973C6.48676 3.29811 6.55655 3.64771 6.5571 4.00103C6.55703 4.17265 6.54067 4.34386 6.50824 4.51222C6.47778 4.66979 6.4332 4.82414 6.37508 4.9733C6.31332 5.13293 6.23597 5.28573 6.1442 5.42937C5.91198 5.79274 5.59527 6.09115 5.22262 6.29774C4.84996 6.50432 4.43305 6.61258 4.00944 6.61276C3.67468 6.61333 3.34311 6.54605 3.03378 6.41478C2.72445 6.28351 2.44346 6.09084 2.20696 5.84785C2.08836 5.72672 1.98195 5.59366 1.88934 5.45067C1.80202 5.31734 1.72737 5.17574 1.66639 5.02781C1.53143 4.7025 1.46163 4.35268 1.46116 3.99915C1.46226 3.66634 1.52442 3.33672 1.64441 3.0275C1.70616 2.86788 1.78352 2.71508 1.87529 2.57144C1.97152 2.41969 2.0831 2.27879 2.20818 2.15108C2.32546 2.02959 2.45415 1.92026 2.59237 1.82469C2.72303 1.73482 2.86169 1.65783 3.0065 1.59478Z" fill="url(#paint1_linear)"/>
<path d="M6.09233 2.57285L6.27558 2.44755C6.17606 2.29522 6.06232 2.15317 5.93597 2.02344L5.78021 2.18319C5.89639 2.30233 6.00093 2.43283 6.09233 2.57285Z" fill="#FAD091"/>
<path d="M6.31193 2.98986L6.51472 2.9009C6.44854 2.74315 6.36839 2.59195 6.27528 2.44922L6.09204 2.57451C6.17769 2.7057 6.2513 2.84474 6.31193 2.98986Z" fill="#111C43"/>
<path d="M6.4605 3.46901L6.67611 3.42265C6.63883 3.24311 6.58462 3.06771 6.51425 2.89893L6.31146 2.98788C6.37674 3.14273 6.42667 3.30392 6.4605 3.46901Z" fill="#FAD091"/>
<path d="M5.77954 5.81378L5.9353 5.97353C6.06863 5.8366 6.18776 5.68586 6.29078 5.52373L6.10754 5.39844C6.01241 5.54807 5.90249 5.68726 5.77954 5.81378Z" fill="#111C43"/>
<path d="M1.68434 3.04551L1.47972 2.96094C1.41712 3.12038 1.36907 3.28543 1.33618 3.45397L1.55241 3.49844C1.58237 3.34354 1.62654 3.19189 1.68434 3.04551Z" fill="#111C43"/>
<path d="M1.55765 4.52734L1.34204 4.5737C1.37893 4.75328 1.43294 4.9287 1.50329 5.09743L1.70608 5.00847C1.64128 4.8535 1.59156 4.69234 1.55765 4.52734Z" fill="#FAD091"/>
<path d="M1.55422 3.49712L1.33799 3.45264C1.30311 3.63253 1.28551 3.8155 1.28546 3.99891H1.50596C1.50583 3.83042 1.52199 3.66233 1.55422 3.49712Z" fill="#FAD091"/>
<path d="M1.50395 4H1.28345C1.28411 4.19378 1.30458 4.38695 1.34453 4.57635L1.56014 4.52999C1.52339 4.35583 1.50456 4.17819 1.50395 4Z" fill="#111C43"/>
<path d="M1.70694 5.00781L1.50415 5.09677C1.5702 5.25439 1.65035 5.40539 1.74359 5.54783L1.92683 5.42253C1.84141 5.29142 1.76781 5.15261 1.70694 5.00781Z" fill="#111C43"/>
<path d="M2.23998 5.81641L2.08423 5.97615C2.21789 6.11273 2.36485 6.2349 2.52279 6.34076L2.64495 6.15282C2.49905 6.05524 2.36335 5.94251 2.23998 5.81641Z" fill="#111C43"/>
<path d="M1.92763 5.42578L1.74438 5.55107C1.84393 5.70359 1.95766 5.84583 2.08399 5.97582L2.23975 5.81607C2.12356 5.69671 2.01902 5.56599 1.92763 5.42578Z" fill="#FAD091"/>
<path d="M2.64194 6.14844L2.51978 6.33638C2.66957 6.43654 2.82852 6.52151 2.99437 6.59009L3.0811 6.38148C2.92763 6.31872 2.78054 6.24067 2.64194 6.14844Z" fill="#FAD091"/>
<path d="M1.91328 2.59795L1.73004 2.47266C1.63226 2.626 1.5494 2.78883 1.48267 2.95879L1.68729 3.04337C1.74812 2.88762 1.82382 2.73842 1.91328 2.59795Z" fill="#FAD091"/>
<path d="M4.00945 1.42865V1.20313C3.82064 1.20308 3.63233 1.22303 3.44751 1.26264L3.49271 1.48378C3.66265 1.44724 3.83581 1.42877 4.00945 1.42865Z" fill="#111C43"/>
<path d="M3.0234 1.63767L2.93667 1.42969C2.78286 1.49756 2.63544 1.57976 2.49628 1.67526L2.61844 1.8632C2.74625 1.7752 2.88183 1.69969 3.0234 1.63767Z" fill="#111C43"/>
<path d="M3.49358 1.48677L3.44838 1.26562C3.27327 1.30367 3.10224 1.35927 2.93774 1.43164L3.02448 1.63962C3.17545 1.57268 3.33261 1.52147 3.49358 1.48677Z" fill="#FAD091"/>
<path d="M2.23805 2.18319L2.08229 2.02344C1.94924 2.15994 1.83012 2.31003 1.72681 2.47136L1.91005 2.59665C2.00528 2.44767 2.1152 2.30912 2.23805 2.18319Z" fill="#111C43"/>
<path d="M2.61948 1.86323L2.49732 1.67529C2.34879 1.77736 2.21029 1.89402 2.0838 2.02361L2.23956 2.18336C2.35574 2.06422 2.48298 1.95701 2.61948 1.86323Z" fill="#FAD091"/>
<path d="M6.46118 3.46823C6.49678 3.64233 6.51479 3.81972 6.51493 3.9976H6.73482C6.73382 3.80405 6.71335 3.61112 6.67374 3.42188L6.46118 3.46823Z" fill="#111C43"/>
<path d="M6.46704 4.50243L6.68326 4.54691C6.71818 4.36681 6.73577 4.18363 6.73579 4H6.5159C6.51586 4.16872 6.4995 4.33702 6.46704 4.50243Z" fill="#FAD091"/>
<path d="M5.78021 2.18248L5.93596 2.02273C5.80254 1.88532 5.65557 1.7625 5.4974 1.65625L5.37524 1.84419C5.52136 1.94217 5.65708 2.05555 5.78021 2.18248Z" fill="#111C43"/>
<path d="M6.33423 4.95293L6.53824 5.03876C6.60198 4.87903 6.65106 4.71356 6.68483 4.54448L6.46861 4.5C6.43787 4.65499 6.39288 4.80665 6.33423 4.95293Z" fill="#111C43"/>
<path d="M3.08081 6.3833L2.99896 6.59317C3.15417 6.65747 3.3149 6.70675 3.47905 6.74039L3.52242 6.51862C3.37146 6.48761 3.22362 6.44231 3.08081 6.3833Z" fill="#111C43"/>
<path d="M5.37648 1.8484L5.49864 1.66046C5.34841 1.55993 5.18882 1.47494 5.02222 1.40674L4.94037 1.61598C5.09293 1.67835 5.23902 1.75621 5.37648 1.8484Z" fill="#FAD091"/>
<path d="M4.9399 1.61302L5.02175 1.40503C4.86663 1.34046 4.70588 1.29117 4.54166 1.25781L4.49829 1.47958C4.64927 1.50968 4.79713 1.55436 4.9399 1.61302Z" fill="#111C43"/>
<path d="M6.10699 5.40196L6.29024 5.52725C6.38696 5.37356 6.46879 5.21053 6.53456 5.04049L6.33055 4.95654C6.26998 5.11195 6.19512 5.2611 6.10699 5.40196Z" fill="#FAD091"/>
<path d="M4.01001 6.56935V6.79551C4.19874 6.7948 4.38688 6.7738 4.57134 6.73286L4.52614 6.51172C4.35653 6.54938 4.18354 6.56869 4.01001 6.56935Z" fill="#111C43"/>
<path d="M4.49926 1.47877L4.54263 1.257C4.36723 1.22122 4.18884 1.20318 4.01001 1.20312V1.42865C4.17431 1.42872 4.3382 1.44551 4.49926 1.47877Z" fill="#FAD091"/>
<path d="M3.52017 6.51953L3.47681 6.7413C3.6524 6.77711 3.831 6.79515 4.01004 6.79517V6.56902C3.84556 6.56919 3.68146 6.55261 3.52017 6.51953Z" fill="#FAD091"/>
<path d="M4.52563 6.51161L4.57083 6.73275C4.74592 6.69492 4.91695 6.63952 5.08147 6.56736L4.99473 6.35938C4.84364 6.42584 4.68651 6.47683 4.52563 6.51161Z" fill="#FAD091"/>
<path d="M4.99438 6.36225L5.08112 6.57023C5.23565 6.50225 5.38387 6.42006 5.52395 6.32466L5.40179 6.13672C5.27297 6.22446 5.1366 6.29995 4.99438 6.36225Z" fill="#111C43"/>
<path d="M5.40259 6.13653L5.52475 6.32447C5.67314 6.22221 5.81161 6.10557 5.93826 5.97615L5.78251 5.81641C5.66635 5.93556 5.5391 6.04278 5.40259 6.13653Z" fill="#FAD091"/>
<path d="M0.914307 4.50391C0.914307 4.51268 0.914307 4.52145 0.917971 4.53022C0.916139 4.52145 0.915528 4.51268 0.914307 4.50391Z" fill="#FAD091"/>
<path d="M6.22559 6.27229C6.37737 6.1167 6.51326 5.94562 6.63116 5.76172C6.51326 5.94562 6.37737 6.1167 6.22559 6.27229Z" fill="#FAD091"/>
<path d="M3.09424 7.07422C3.17792 7.10053 3.26343 7.12308 3.35017 7.14188C3.26465 7.12308 3.17853 7.10053 3.09424 7.07422Z" fill="#FAD091"/>
<path d="M2.96899 7.03125L3.07161 7.0657L2.96899 7.03125Z" fill="#FAD091"/>
<path d="M1.57765 1.96875C1.51039 2.05374 1.4474 2.14218 1.38892 2.23374C1.44755 2.14061 1.51047 2.05228 1.57765 1.96875Z" fill="#111C43"/>
<path d="M1.68208 1.84375C1.64909 1.88071 1.61733 1.91955 1.58618 1.95839C1.6155 1.92018 1.64909 1.88134 1.68208 1.84375Z" fill="#111C43"/>
<path d="M0.549972 5.66917C0.530427 5.62657 0.510881 5.58397 0.492557 5.54387C0.393685 5.30721 0.317981 5.06105 0.26656 4.80903C0.244571 4.70378 0.227468 4.59666 0.214641 4.48828L0.158447 4.4958C0.171885 4.60564 0.189395 4.71402 0.210976 4.82093C0.263254 5.07662 0.340186 5.32635 0.440639 5.56643C0.458963 5.61091 0.478508 5.65413 0.501719 5.69736L0.549972 5.66917Z" fill="url(#paint2_linear)"/>
<path d="M0.549972 5.66917C0.530427 5.62657 0.510881 5.58397 0.492557 5.54387C0.393685 5.30721 0.317981 5.06105 0.26656 4.80903C0.244571 4.70378 0.227468 4.59666 0.214641 4.48828L0.158447 4.4958C0.171885 4.60564 0.189395 4.71402 0.210976 4.82093C0.263254 5.07662 0.340186 5.32635 0.440639 5.56643C0.458963 5.61091 0.478508 5.65413 0.501719 5.69736L0.549972 5.66917Z" fill="url(#paint3_linear)"/>
<path d="M6.71386 6.77114C6.61406 6.87309 6.50884 6.96929 6.39868 7.05932L6.43411 7.10505C6.75406 6.84326 7.03137 6.53092 7.25564 6.17976L7.208 6.14844C7.06459 6.37287 6.899 6.58154 6.71386 6.77114Z" fill="url(#paint4_linear)"/>
<path d="M6.71386 6.77114C6.61406 6.87309 6.50884 6.96929 6.39868 7.05932L6.43411 7.10505C6.75406 6.84326 7.03137 6.53092 7.25564 6.17976L7.208 6.14844C7.06459 6.37287 6.899 6.58154 6.71386 6.77114Z" fill="url(#paint5_linear)"/>
<path d="M2.58761 7.64072C2.41438 7.56973 2.24638 7.48598 2.08492 7.39014L2.05621 7.44025C2.22001 7.5385 2.39069 7.62414 2.56685 7.69648C2.77004 7.78011 2.97993 7.84551 3.19414 7.89194L3.20575 7.83555C2.99471 7.7886 2.78793 7.72343 2.58761 7.64072Z" fill="url(#paint6_linear)"/>
<path d="M2.58761 7.64072C2.41438 7.56973 2.24638 7.48598 2.08492 7.39014L2.05621 7.44025C2.22001 7.5385 2.39069 7.62414 2.56685 7.69648C2.77004 7.78011 2.97993 7.84551 3.19414 7.89194L3.20575 7.83555C2.99471 7.7886 2.78793 7.72343 2.58761 7.64072Z" fill="url(#paint7_linear)"/>
<path d="M7.52556 2.45427C7.62443 2.69093 7.70013 2.93709 7.75156 3.18911C7.77354 3.29436 7.79065 3.40148 7.80347 3.50986L7.85967 3.50234C7.84623 3.39271 7.82913 3.28433 7.80714 3.17721C7.75477 2.92134 7.67784 2.67141 7.57748 2.43109C7.55915 2.38723 7.53961 2.34401 7.5164 2.30078L7.46509 2.32584C7.4883 2.36844 7.50723 2.41104 7.52556 2.45427Z" fill="url(#paint8_linear)"/>
<path d="M5.43088 0.359335C5.60439 0.429686 5.77243 0.513456 5.93357 0.609921L5.96228 0.559804C5.60887 0.348734 5.22496 0.19669 4.82496 0.109375L4.81274 0.166383C5.02379 0.212433 5.2306 0.276987 5.43088 0.359335Z" fill="url(#paint9_linear)"/>
<path d="M5.43088 0.359335C5.60439 0.429686 5.77243 0.513456 5.93357 0.609921L5.96228 0.559804C5.60887 0.348734 5.22496 0.19669 4.82496 0.109375L4.81274 0.166383C5.02379 0.212433 5.2306 0.276987 5.43088 0.359335Z" fill="url(#paint10_linear)"/>
<path d="M0.215274 4.48682C0.1954 4.32495 0.185404 4.16196 0.185344 3.99881C0.18544 3.74138 0.209988 3.48456 0.258641 3.23201C0.304502 2.99645 0.37157 2.76576 0.458984 2.5429C0.552517 2.30397 0.668721 2.07505 0.805921 1.85943L0.811418 1.85129L0.764386 1.81934L0.758889 1.82748C0.619624 2.04629 0.501583 2.27857 0.406455 2.52098C0.223471 2.99109 0.129363 3.49262 0.12915 3.99881C0.129212 4.16446 0.139208 4.32995 0.15908 4.49434L0.215274 4.48682Z" fill="url(#paint11_linear)"/>
<path d="M2.08333 7.38902C2.02774 7.35581 1.97338 7.32136 1.91963 7.28565C1.48666 6.99529 1.11522 6.61837 0.827514 6.17743C0.722701 6.01627 0.629802 5.84727 0.549599 5.67188L0.498291 5.69693C0.580132 5.87486 0.674656 6.04635 0.781093 6.21001C1.07303 6.65721 1.44986 7.03945 1.88909 7.33389C1.94284 7.37022 1.99842 7.40531 2.05462 7.43913L2.08333 7.38902Z" fill="url(#paint12_linear)"/>
<path d="M6.39788 7.05859C6.31237 7.12918 6.224 7.196 6.13279 7.25906C5.72789 7.53725 5.27457 7.73292 4.79757 7.83541C4.29131 7.9443 3.76882 7.94729 3.2614 7.84418L3.20521 7.83165L3.1936 7.88803L3.25041 7.90056C3.7502 8.00349 4.26491 8.00406 4.76492 7.90225C5.26493 7.80043 5.74039 7.59824 6.16394 7.3073C6.25678 7.24465 6.34718 7.17574 6.43331 7.10433L6.39788 7.05859Z" fill="url(#paint13_linear)"/>
<path d="M7.85956 3.50391L7.80336 3.51142C7.82322 3.67309 7.83321 3.83587 7.83329 3.99881C7.83323 4.25625 7.80868 4.51306 7.75999 4.76561C7.66466 5.25693 7.47803 5.72485 7.21027 6.14383L7.20477 6.15198L7.25242 6.1833L7.2573 6.17515C7.39795 5.95566 7.51683 5.72229 7.61218 5.47853C7.70113 5.2517 7.76902 5.01678 7.81497 4.77688C7.86463 4.52045 7.88959 4.25963 7.88949 3.99819C7.88938 3.83295 7.87938 3.66788 7.85956 3.50391Z" fill="url(#paint14_linear)"/>
<path d="M5.93384 0.608711C5.98942 0.641914 6.04378 0.676369 6.09753 0.712078C6.69209 1.10834 7.16666 1.66734 7.46757 2.32585L7.51887 2.30079C7.32872 1.88549 7.06953 1.50731 6.75293 1.18318C6.56273 0.9886 6.35355 0.814573 6.12868 0.66384C6.07432 0.627505 6.01874 0.592423 5.96255 0.558594L5.93384 0.608711Z" fill="url(#paint15_linear)"/>
<path d="M1.61966 0.936049C1.70578 0.865885 1.79373 0.798227 1.88535 0.73558C2.51383 0.305051 3.25274 0.0754721 4.00851 0.0759121C4.25954 0.0764547 4.50993 0.102052 4.75613 0.152341L4.81233 0.16487L4.82454 0.107862L4.76713 0.0953326C4.25219 -0.00860791 3.72215 -0.00562569 3.20836 0.104103C2.72459 0.208655 2.26476 0.407042 1.85359 0.688595C1.76075 0.751242 1.67035 0.820779 1.58423 0.892196L1.61966 0.936049Z" fill="url(#paint16_linear)"/>
<path d="M1.61966 0.936049C1.70578 0.865885 1.79373 0.798227 1.88535 0.73558C2.51383 0.305051 3.25274 0.0754721 4.00851 0.0759121C4.25954 0.0764547 4.50993 0.102052 4.75613 0.152341L4.81233 0.16487L4.82454 0.107862L4.76713 0.0953326C4.25219 -0.00860791 3.72215 -0.00562569 3.20836 0.104103C2.72459 0.208655 2.26476 0.407042 1.85359 0.688595C1.76075 0.751242 1.67035 0.820779 1.58423 0.892196L1.61966 0.936049Z" fill="url(#paint17_linear)"/>
<path d="M1.30509 1.22453C1.40503 1.12255 1.51024 1.02615 1.62026 0.93573L1.58484 0.890625C1.47339 0.982294 1.36676 1.07995 1.26539 1.18318C1.07765 1.37579 0.909618 1.5876 0.763916 1.81529L0.810948 1.84724C0.954594 1.62298 1.12016 1.41433 1.30509 1.22453Z" fill="url(#paint18_linear)"/>
<path d="M1.30509 1.22453C1.40503 1.12255 1.51024 1.02615 1.62026 0.93573L1.58484 0.890625C1.47339 0.982294 1.36676 1.07995 1.26539 1.18318C1.07765 1.37579 0.909618 1.5876 0.763916 1.81529L0.810948 1.84724C0.954594 1.62298 1.12016 1.41433 1.30509 1.22453Z" fill="url(#paint19_linear)"/>
<path d="M4.67603 7.35317C4.67603 7.32108 4.6853 7.28971 4.70269 7.26303C4.72007 7.23635 4.74478 7.21555 4.77368 7.20327C4.80259 7.19099 4.8344 7.18778 4.86509 7.19404C4.89577 7.2003 4.92396 7.21575 4.94609 7.23844C4.96821 7.26113 4.98328 7.29004 4.98938 7.32152C4.99548 7.35299 4.99235 7.38561 4.98038 7.41526C4.9684 7.44491 4.94813 7.47025 4.92211 7.48808C4.8961 7.50591 4.86551 7.51542 4.83422 7.51542C4.79227 7.51542 4.75203 7.49833 4.72236 7.4679C4.69269 7.43747 4.67603 7.3962 4.67603 7.35317Z" fill="#111C43"/>
<path d="M3.07251 0.646629C3.07251 0.614539 3.08179 0.583168 3.09917 0.556486C3.11656 0.529803 3.14126 0.509007 3.17017 0.496726C3.19908 0.484445 3.23088 0.481232 3.26157 0.487493C3.29226 0.493753 3.32045 0.509207 3.34257 0.531898C3.3647 0.55459 3.37976 0.583501 3.38587 0.614975C3.39197 0.64645 3.38884 0.679073 3.37687 0.708722C3.36489 0.73837 3.34461 0.76371 3.3186 0.781539C3.29258 0.799368 3.262 0.808884 3.23071 0.808884C3.20991 0.808967 3.1893 0.804826 3.17007 0.796702C3.15084 0.788577 3.13337 0.776629 3.11867 0.761545C3.10396 0.746462 3.09231 0.728542 3.08439 0.708819C3.07647 0.689096 3.07243 0.66796 3.07251 0.646629Z" fill="#111C43"/>
<path d="M0.541261 3.38882C0.541261 3.3567 0.550555 3.3253 0.567965 3.29861C0.585375 3.27191 0.610119 3.25112 0.639061 3.23885C0.668004 3.22659 0.699843 3.22341 0.730547 3.22973C0.761251 3.23604 0.789438 3.25155 0.811538 3.27431C0.833638 3.29706 0.848657 3.32603 0.854692 3.35755C0.860726 3.38906 0.857506 3.42171 0.845439 3.45134C0.833372 3.48098 0.813 3.50628 0.786904 3.52403C0.760808 3.54178 0.730163 3.55119 0.698848 3.55107C0.678102 3.55107 0.65756 3.54687 0.638401 3.53871C0.619241 3.53054 0.601842 3.51858 0.587201 3.50351C0.572559 3.48843 0.560964 3.47054 0.553081 3.45086C0.545197 3.43118 0.541181 3.41009 0.541261 3.38882Z" fill="#111C43"/>
<path d="M1.42212 6.39272C1.42212 6.36063 1.4314 6.32926 1.44878 6.30258C1.46616 6.2759 1.49087 6.2551 1.51978 6.24282C1.54868 6.23054 1.58049 6.22733 1.61118 6.23359C1.64187 6.23985 1.67006 6.2553 1.69218 6.27799C1.7143 6.30068 1.72937 6.32959 1.73548 6.36107C1.74158 6.39254 1.73845 6.42517 1.72647 6.45482C1.7145 6.48446 1.69422 6.5098 1.66821 6.52763C1.64219 6.54546 1.61161 6.55498 1.58032 6.55498C1.53836 6.55498 1.49812 6.53788 1.46845 6.50745C1.43879 6.47703 1.42212 6.43576 1.42212 6.39272Z" fill="#111C43"/>
<path d="M7.11548 4.79116C7.11548 4.75907 7.12476 4.7277 7.14214 4.70102C7.15952 4.67433 7.18423 4.65354 7.21314 4.64126C7.24204 4.62898 7.27385 4.62576 7.30454 4.63202C7.33523 4.63828 7.36342 4.65374 7.38554 4.67643C7.40766 4.69912 7.42273 4.72803 7.42884 4.75951C7.43494 4.79098 7.43181 4.8236 7.41983 4.85325C7.40786 4.8829 7.38758 4.90824 7.36157 4.92607C7.33555 4.9439 7.30497 4.95341 7.27368 4.95341C7.23172 4.95341 7.19148 4.93632 7.16181 4.90589C7.13215 4.87546 7.11548 4.83419 7.11548 4.79116Z" fill="#111C43"/>
<path d="M6.33618 1.69741C6.33618 1.66532 6.34546 1.63395 6.36284 1.60727C6.38023 1.58058 6.40493 1.55979 6.43384 1.54751C6.46275 1.53523 6.49456 1.53201 6.52524 1.53827C6.55593 1.54453 6.58412 1.55999 6.60624 1.58268C6.62837 1.60537 6.64343 1.63428 6.64954 1.66576C6.65564 1.69723 6.65251 1.72985 6.64054 1.7595C6.62856 1.78915 6.60829 1.81449 6.58227 1.83232C6.55625 1.85015 6.52567 1.85966 6.49438 1.85966C6.47361 1.85966 6.45303 1.85547 6.43384 1.84731C6.41465 1.83916 6.39721 1.82721 6.38252 1.81214C6.36783 1.79707 6.35617 1.77919 6.34822 1.7595C6.34027 1.73982 6.33618 1.71872 6.33618 1.69741Z" fill="#111C43"/>
<path d="M6.10742 5.40211C6.19729 5.26091 6.2732 5.11086 6.33403 4.95419C6.39107 4.80765 6.43482 4.65603 6.46474 4.50126C6.49658 4.33619 6.51274 4.16835 6.51299 4.00008C6.51191 3.65287 6.44339 3.30935 6.31143 2.9896C6.25119 2.8444 6.17777 2.70534 6.09215 2.57425C6.07199 2.54293 6.05122 2.5116 6.03107 2.48216L6.0103 2.45459C5.99503 2.43329 5.97854 2.41199 5.96205 2.39195L5.93945 2.36313C5.91807 2.33682 5.89669 2.31113 5.87409 2.28545L5.86676 2.27668C5.83927 2.24535 5.81057 2.21403 5.78186 2.18459C5.75315 2.15514 5.72078 2.12194 5.68718 2.09312L5.67924 2.08623C5.65298 2.0618 5.62549 2.03799 5.59801 2.01482L5.56869 1.99101C5.5467 1.97284 5.52471 1.95593 5.50272 1.93901L5.4734 1.91709C5.44225 1.89391 5.41232 1.87135 5.37934 1.85006C5.11176 1.67165 4.81344 1.54726 4.50039 1.48357C4.33946 1.4509 4.17581 1.43433 4.01175 1.43408C3.34753 1.43414 2.71047 1.70451 2.24042 2.18584C1.94634 2.48767 1.73011 2.85981 1.61122 3.26872C1.49232 3.67763 1.47451 4.11046 1.55937 4.52819C1.62438 4.84854 1.74879 5.1531 1.92585 5.42529C1.94601 5.45662 1.96678 5.48794 1.98693 5.51676C1.99304 5.52615 2.00037 5.53555 2.00709 5.54495L2.05534 5.60759C2.06328 5.61699 2.07061 5.62639 2.07794 5.63641C2.09932 5.66272 2.1207 5.68841 2.1433 5.71409C2.1659 5.73978 2.20438 5.78175 2.23614 5.81433C2.4765 6.06176 2.76409 6.25563 3.08088 6.38379C3.22376 6.44229 3.37159 6.48717 3.52249 6.51785C3.85455 6.58589 4.19665 6.58376 4.52788 6.51158C4.84031 6.44523 5.13731 6.3176 5.40255 6.1357C5.5394 6.0419 5.66705 5.93469 5.78369 5.81558C5.90518 5.68954 6.01366 5.55099 6.10742 5.40211ZM6.04634 2.50847L6.03351 2.48905L6.04634 2.50847ZM5.99808 2.44144C5.98709 2.42578 5.97487 2.41074 5.96327 2.39508C5.97671 2.40886 5.98892 2.42578 5.99992 2.44144H5.99808ZM5.93395 2.35812C5.91379 2.33306 5.89302 2.308 5.87287 2.2842C5.89486 2.308 5.91562 2.33306 5.93578 2.35812H5.93395ZM5.67497 2.08247C5.64931 2.05929 5.62366 2.03674 5.5974 2.01482C5.62549 2.03674 5.65115 2.05929 5.6768 2.08247H5.67497ZM5.56075 1.98287L5.5131 1.94528L5.56075 1.98287ZM5.46302 1.90769L5.44408 1.89391L5.46302 1.90769ZM1.96983 5.48982L1.98327 5.50924L1.96983 5.48982ZM2.01808 5.55685L2.0529 5.60321L2.01808 5.55685ZM2.07916 5.64017C2.09932 5.66523 2.12009 5.69029 2.14025 5.71472C2.12314 5.69029 2.1036 5.66648 2.08222 5.64017H2.07916Z" fill="url(#paint20_linear)"/>
<path d="M6.40728 3.47967C6.34269 3.16634 6.22016 2.86862 6.04629 2.60262C5.95679 2.46559 5.85451 2.33782 5.74089 2.2211C5.50602 1.98154 5.22694 1.79242 4.91997 1.6648C4.77946 1.60613 4.63384 1.56124 4.48508 1.53073C4.45026 1.52322 4.41545 1.51758 4.38002 1.51194L4.34704 1.50693L4.27068 1.4969L4.24076 1.49502C4.20838 1.49189 4.1754 1.48939 4.14303 1.48751H4.13142C4.09172 1.48751 4.05141 1.48438 4.00926 1.48438C3.96712 1.48438 3.92375 1.48437 3.8816 1.48813H3.87122C3.8364 1.48813 3.80098 1.49315 3.76677 1.49628L3.73012 1.50066C3.70264 1.5038 3.67576 1.50755 3.64889 1.51194L3.61468 1.51695C3.57742 1.52322 3.54016 1.53011 3.50352 1.53762C3.19803 1.60386 2.90775 1.72954 2.64839 1.90787C2.3728 2.09652 2.13738 2.34054 1.95635 2.62517C1.69601 3.03318 1.5572 3.51014 1.55689 3.99775C1.55649 4.49481 1.70045 4.98072 1.9704 5.39352C2.0599 5.53054 2.16218 5.65832 2.2758 5.77504C2.39587 5.89839 2.5281 6.00861 2.67038 6.10393C2.93154 6.27938 3.22306 6.40187 3.52917 6.46477C3.56399 6.47166 3.5988 6.47793 3.63423 6.48357L3.66721 6.48858C3.69287 6.49234 3.71852 6.49547 3.74417 6.49798L3.77899 6.50173C3.81136 6.50173 3.84373 6.50737 3.87672 6.50925C3.92008 6.50925 3.96406 6.51364 4.00865 6.51364C4.34046 6.51285 4.6687 6.44339 4.97372 6.30941C5.26051 6.18276 5.52126 6.00143 5.74211 5.77504C5.86195 5.65183 5.96901 5.5162 6.06156 5.37034C6.14991 5.23213 6.22459 5.08523 6.2845 4.93181C6.34101 4.78869 6.38417 4.64038 6.41338 4.4889C6.4451 4.327 6.46106 4.16227 6.46103 3.99713C6.46054 3.8232 6.44253 3.64979 6.40728 3.47967ZM4.41361 1.51946L4.39162 1.51507L4.41361 1.51946ZM4.33482 1.50693L4.27985 1.50004L4.33482 1.50693ZM4.23404 1.49502C4.2035 1.49189 4.17296 1.48939 4.14181 1.48751C4.17235 1.48939 4.2035 1.49189 4.23404 1.49502ZM3.72218 1.50192L3.6611 1.50943L3.72218 1.50192ZM3.6043 1.51883L3.5817 1.52322L3.6043 1.51883ZM3.6043 6.47668L3.62629 6.48044L3.6043 6.47668ZM3.68309 6.48921L3.73806 6.4961L3.68309 6.48921ZM3.78387 6.50111L3.87672 6.508C3.84434 6.50612 3.81319 6.50424 3.78265 6.50111H3.78387Z" fill="url(#paint21_linear)"/>
</g>
<defs>
<linearGradient id="paint0_linear" x1="3.79764" y1="-2.16976" x2="8.96979" y2="4.18584" gradientUnits="userSpaceOnUse">
<stop stop-color="#FAD091"/>
<stop offset="1" stop-color="#EBB86C"/>
</linearGradient>
<linearGradient id="paint1_linear" x1="3.85763" y1="-0.407346" x2="7.55142" y2="4.13265" gradientUnits="userSpaceOnUse">
<stop stop-color="#FAD091"/>
<stop offset="1" stop-color="#EBB86C"/>
</linearGradient>
<linearGradient id="paint2_linear" x1="0.0587336" y1="5.07352" x2="0.2887" y2="5.00715" gradientUnits="userSpaceOnUse">
<stop stop-color="#A9A5A6"/>
<stop offset="0.26" stop-color="#C9C6C7"/>
<stop offset="0.57" stop-color="#E6E5E5"/>
<stop offset="0.82" stop-color="#F8F8F8"/>
<stop offset="1" stop-color="white"/>
</linearGradient>
<linearGradient id="paint3_linear" x1="0.347981" y1="2.96182" x2="1.02606" y2="3.0821" gradientUnits="userSpaceOnUse">
<stop stop-color="#7C7ECE"/>
<stop offset="0.9375" stop-color="#38398E"/>
</linearGradient>
<linearGradient id="paint4_linear" x1="960.303" y1="3225.02" x2="955.567" y2="3220.4" gradientUnits="userSpaceOnUse">
<stop stop-color="#A9A5A6"/>
<stop offset="0.26" stop-color="#C9C6C7"/>
<stop offset="0.57" stop-color="#E6E5E5"/>
<stop offset="0.82" stop-color="#F8F8F8"/>
<stop offset="1" stop-color="white"/>
</linearGradient>
<linearGradient id="paint5_linear" x1="6.81353" y1="4.94071" x2="8.04729" y2="5.54615" gradientUnits="userSpaceOnUse">
<stop stop-color="#7C7ECE"/>
<stop offset="0.9375" stop-color="#38398E"/>
</linearGradient>
<linearGradient id="paint6_linear" x1="-953.592" y1="1579.47" x2="-951.874" y2="1575.12" gradientUnits="userSpaceOnUse">
<stop stop-color="#A9A5A6"/>
<stop offset="0.26" stop-color="#C9C6C7"/>
<stop offset="0.57" stop-color="#E6E5E5"/>
<stop offset="0.82" stop-color="#F8F8F8"/>
<stop offset="1" stop-color="white"/>
</linearGradient>
<linearGradient id="paint7_linear" x1="2.61269" y1="6.75661" x2="3.41026" y2="7.75747" gradientUnits="userSpaceOnUse">
<stop stop-color="#7C7ECE"/>
<stop offset="0.9375" stop-color="#38398E"/>
</linearGradient>
<linearGradient id="paint8_linear" x1="7.6561" y1="0.77432" x2="8.33914" y2="0.896427" gradientUnits="userSpaceOnUse">
<stop stop-color="#7C7ECE"/>
<stop offset="0.9375" stop-color="#38398E"/>
</linearGradient>
<linearGradient id="paint9_linear" x1="2224.36" y1="-3046.37" x2="2221.19" y2="-3038.91" gradientUnits="userSpaceOnUse">
<stop stop-color="#A9A5A6"/>
<stop offset="0.26" stop-color="#C9C6C7"/>
<stop offset="0.57" stop-color="#E6E5E5"/>
<stop offset="0.82" stop-color="#F8F8F8"/>
<stop offset="1" stop-color="white"/>
</linearGradient>
<linearGradient id="paint10_linear" x1="5.36922" y1="-0.522564" x2="6.16435" y2="0.477727" gradientUnits="userSpaceOnUse">
<stop stop-color="#7C7ECE"/>
<stop offset="0.9375" stop-color="#38398E"/>
</linearGradient>
<linearGradient id="paint11_linear" x1="0.451677" y1="1.08371" x2="1.4861" y2="1.4163" gradientUnits="userSpaceOnUse">
<stop stop-color="#FAD091"/>
<stop offset="1" stop-color="#EBB86C"/>
</linearGradient>
<linearGradient id="paint12_linear" x1="1.24758" y1="5.18588" x2="2.41141" y2="6.50174" gradientUnits="userSpaceOnUse">
<stop stop-color="#FAD091"/>
<stop offset="1" stop-color="#EBB86C"/>
</linearGradient>
<linearGradient id="paint13_linear" x1="4.7251" y1="6.80571" x2="4.98662" y2="7.96716" gradientUnits="userSpaceOnUse">
<stop stop-color="#FAD091"/>
<stop offset="1" stop-color="#EBB86C"/>
</linearGradient>
<linearGradient id="paint14_linear" x1="7.52846" y1="2.76707" x2="8.5662" y2="3.10138" gradientUnits="userSpaceOnUse">
<stop stop-color="#FAD091"/>
<stop offset="1" stop-color="#EBB86C"/>
</linearGradient>
<linearGradient id="paint15_linear" x1="6.68313" y1="0.0725975" x2="7.84696" y2="1.38846" gradientUnits="userSpaceOnUse">
<stop stop-color="#FAD091"/>
<stop offset="1" stop-color="#EBB86C"/>
</linearGradient>
<linearGradient id="paint16_linear" x1="1172.59" y1="6955.7" x2="1168.35" y2="6941" gradientUnits="userSpaceOnUse">
<stop stop-color="#FB0065"/>
<stop offset="0.5" stop-color="#F90063"/>
<stop offset="0.69" stop-color="#F3025C"/>
<stop offset="0.82" stop-color="#E80550"/>
<stop offset="0.92" stop-color="#D90940"/>
<stop offset="1" stop-color="#C80E2D"/>
</linearGradient>
<linearGradient id="paint17_linear" x1="3.11601" y1="-0.232511" x2="3.37583" y2="0.925451" gradientUnits="userSpaceOnUse">
<stop stop-color="#FAD091"/>
<stop offset="1" stop-color="#EBB86C"/>
</linearGradient>
<linearGradient id="paint18_linear" x1="-616.883" y1="-3656.91" x2="-611.441" y2="-3652" gradientUnits="userSpaceOnUse">
<stop stop-color="#A9A5A6"/>
<stop offset="0.26" stop-color="#C9C6C7"/>
<stop offset="0.57" stop-color="#E6E5E5"/>
<stop offset="0.82" stop-color="#F8F8F8"/>
<stop offset="1" stop-color="white"/>
</linearGradient>
<linearGradient id="paint19_linear" x1="1.17847" y1="-0.317099" x2="2.41169" y2="0.287639" gradientUnits="userSpaceOnUse">
<stop stop-color="#7C7ECE"/>
<stop offset="0.9375" stop-color="#38398E"/>
</linearGradient>
<linearGradient id="paint20_linear" x1="3.87329" y1="0.0224346" x2="7.20793" y2="4.12217" gradientUnits="userSpaceOnUse">
<stop stop-color="#FAD091"/>
<stop offset="1" stop-color="#EBB86C"/>
</linearGradient>
<linearGradient id="paint21_linear" x1="3.87521" y1="0.101328" x2="7.14239" y2="4.1175" gradientUnits="userSpaceOnUse">
<stop stop-color="#FAD091"/>
<stop offset="1" stop-color="#EBB86C"/>
</linearGradient>
</defs>
</svg>
