<svg width="115" height="154" viewBox="0 0 115 154" fill="none" xmlns="http://www.w3.org/2000/svg">
<g clip-path="url(#clip0)">
<g clip-path="url(#clip1)" filter="url(#filter0_f)">
<path d="M49.6642 135.475L52.1118 142.125C50.6678 140.495 49.5411 138.61 48.7899 136.567L46.3125 129.832C47.0646 131.907 48.2017 133.822 49.6642 135.475V135.475Z" fill="url(#paint0_linear)"/>
<path d="M109.434 112.605L109.381 112.146C109.335 111.748 109.288 111.348 109.241 110.944C109.227 110.816 109.213 110.699 109.198 110.572C109.139 110.064 109.085 109.595 108.912 109.05L108.874 108.718C108.758 108.236 108.623 107.756 108.459 107.28L108.34 106.938L110.817 113.673L110.945 114.005L111.15 114.664L111.36 115.442L111.4 115.784C111.517 116.286 111.601 116.751 111.684 117.296L111.727 117.668C111.774 118.069 111.82 118.469 111.867 118.87L111.911 119.33C111.924 119.448 111.938 119.565 111.95 119.673C111.996 120.063 111.953 120.465 111.93 120.864L109.423 114.132C109.459 113.672 109.453 113.108 109.434 112.605Z" fill="url(#paint1_linear)"/>
<path d="M60.1912 142.049L62.683 148.822C58.6093 147.606 54.9511 145.288 52.1117 142.126L49.6641 135.477C52.5113 138.581 56.1503 140.853 60.1912 142.049V142.049Z" fill="#111C43"/>
<path d="M109.424 114.132L111.911 120.866C111.596 125.105 110.162 129.185 107.754 132.69L105.277 126.044C107.704 122.517 109.137 118.402 109.424 114.132Z" fill="#111C43"/>
<path d="M77.5275 143.066L80.0026 149.782C74.2359 150.855 68.2955 150.526 62.6833 148.822L60.1973 142.098C65.8133 143.8 71.7561 144.132 77.5275 143.066V143.066Z" fill="url(#paint2_linear)"/>
<path d="M94.6653 144.602L92.1793 137.877C92.8494 137.502 93.4965 137.1 94.1294 136.66C94.3418 136.527 94.5434 136.384 94.7461 136.252C95.1785 135.964 95.6023 135.687 96.014 135.391C96.1689 135.274 96.3238 135.157 96.4799 135.05C96.8991 134.734 97.3184 134.418 97.7267 134.093C97.8816 133.976 98.0354 133.849 98.1794 133.723C98.7046 133.296 99.219 132.86 99.7126 132.416C99.7347 132.409 99.758 132.406 99.7811 132.408C100.247 131.978 100.672 131.542 101.126 131.103C101.295 130.935 101.453 130.758 101.612 130.591L102.491 129.627L102.954 129.088C103.25 128.736 103.527 128.387 103.818 127.997L104.199 127.517C104.576 127.007 104.936 126.441 105.287 125.964L107.754 132.691C107.408 133.216 107.046 133.763 106.665 134.243L106.285 134.723C106.009 135.082 105.732 135.422 105.42 135.814L104.958 136.353C104.669 136.684 104.369 137.006 104.08 137.327L103.583 137.831L103.345 138.086L102.315 139.117L102.246 139.125C101.753 139.569 101.238 140.005 100.714 140.442L100.252 140.813C99.8522 141.127 99.4341 141.453 99.0137 141.759C98.8588 141.876 98.7039 141.993 98.5478 142.1L98.3008 142.278C97.9714 142.514 97.6202 142.733 97.2799 142.961C96.9396 143.189 96.8757 143.236 96.6632 143.369C95.9837 143.834 95.3354 144.227 94.6653 144.602Z" fill="url(#paint3_linear)"/>
<path d="M78.9519 142.793L79.0204 142.785C79.1279 142.772 79.2453 142.759 79.3627 142.745C81.2786 142.319 83.1649 141.769 85.0098 141.099C85.5807 140.894 86.1396 140.67 86.6985 140.447C86.9362 140.36 87.1739 140.273 87.4093 140.166C88.119 139.876 88.8166 139.567 89.4924 139.241L89.6098 139.227L89.7692 139.149C90.5763 138.758 91.3615 138.35 92.1203 137.885L94.6075 144.62C94.1976 144.845 93.7877 145.071 93.3669 145.289C92.9461 145.506 92.6272 145.662 92.2519 145.844L92.0826 145.923L91.975 145.936C91.2895 146.263 90.5918 146.572 89.8833 146.872C89.6565 146.968 89.409 147.056 89.1725 147.153C88.7742 147.308 88.377 147.473 87.9678 147.62L87.4924 147.794C85.6445 148.465 83.7548 149.015 81.8355 149.441C81.7634 149.445 81.6915 149.454 81.6204 149.466L81.4248 149.489C80.926 149.547 80.4558 149.681 79.9495 149.759L77.4732 143.034C77.9829 142.985 78.4979 142.895 78.9519 142.793Z" fill="#111C43"/>
<path d="M69.518 95.6986C67.0568 96.5733 64.6757 97.6585 62.4011 98.9423L66.2491 104.25C67.9526 103.272 69.7417 102.451 71.5943 101.797L71.7019 101.784C73.5087 101.139 75.371 100.661 77.2653 100.356L77.0207 93.7276C74.4679 94.1683 71.9578 94.8278 69.518 95.6986V95.6986Z" fill="#111C43"/>
<path d="M72.2018 102.597C72.2131 102.695 72.3666 102.736 72.5002 102.691C73.4543 102.372 74.462 102.087 75.4471 101.864C75.4979 101.85 75.5429 101.82 75.5756 101.779C75.6083 101.738 75.6269 101.687 75.6286 101.634C75.6161 101.527 75.5093 101.46 75.355 101.498C74.3397 101.728 73.3369 102.009 72.3506 102.342C72.2757 102.38 72.1697 102.492 72.2018 102.597Z" fill="#111C43"/>
<path d="M78.1819 101.171C78.1943 101.279 78.2817 101.348 78.4197 101.342C79.398 101.216 80.3825 101.144 81.3686 101.128L81.486 101.114C81.5281 101.101 81.5663 101.078 81.5973 101.047C81.6283 101.016 81.651 100.977 81.6634 100.935C81.6509 100.828 81.6396 100.73 81.4624 100.741C80.4531 100.756 79.4455 100.827 78.4439 100.953C78.4439 100.953 78.3852 100.959 78.3559 100.963C78.3096 100.977 78.2685 101.004 78.2375 101.041C78.2066 101.078 78.1872 101.123 78.1819 101.171V101.171Z" fill="#111C43"/>
<path d="M58.2997 112.958L58.4448 112.842C58.9787 112.082 59.556 111.354 60.1738 110.66C60.1942 110.643 60.21 110.62 60.2198 110.595C60.2295 110.569 60.233 110.542 60.2299 110.515C60.2268 110.488 60.2171 110.462 60.2018 110.44C60.1865 110.418 60.166 110.399 60.142 110.387C60.0696 110.369 59.9934 110.378 59.9269 110.412C59.8573 110.438 59.7944 110.479 59.7426 110.532C59.121 111.223 58.5436 111.951 58.0136 112.714C57.9957 112.735 57.9835 112.76 57.9784 112.787C57.9732 112.814 57.9753 112.842 57.9843 112.868C57.9933 112.894 58.0091 112.918 58.0299 112.936C58.0507 112.954 58.0759 112.966 58.1029 112.971L58.2997 112.958Z" fill="#111C43"/>
<path d="M89.5832 102.38C90.3896 102.666 91.1747 103.008 91.9326 103.405L92.1575 103.379L92.2767 103.296C92.2973 103.279 92.3133 103.257 92.3233 103.233C92.3333 103.208 92.3369 103.182 92.3339 103.155C92.3308 103.129 92.3212 103.104 92.3058 103.082C92.2905 103.061 92.2699 103.043 92.246 103.032C91.4684 102.625 90.6625 102.276 89.8346 101.985C89.7686 101.972 89.7005 101.98 89.639 102.007C89.5831 102.032 89.5331 102.068 89.4928 102.114C89.4673 102.132 89.4485 102.158 89.4389 102.188C89.4294 102.218 89.4297 102.25 89.4398 102.28C89.4499 102.31 89.4693 102.336 89.4951 102.354C89.5209 102.372 89.5518 102.381 89.5832 102.38V102.38Z" fill="#111C43"/>
<path d="M55.9536 117.598L56.1408 117.418C56.408 116.625 56.7323 115.852 57.1113 115.106C57.1241 115.082 57.1305 115.056 57.13 115.029C57.1295 115.002 57.1221 114.975 57.1084 114.952C57.0948 114.929 57.0754 114.909 57.0521 114.896C57.0288 114.882 57.0023 114.875 56.9753 114.874C56.9225 114.865 56.8683 114.872 56.8189 114.892C56.7429 114.92 56.6789 114.973 56.638 115.042C56.2571 115.812 55.9254 116.605 55.645 117.416C55.6384 117.442 55.6383 117.47 55.6447 117.496C55.6512 117.523 55.6639 117.547 55.6819 117.567C55.6999 117.588 55.7225 117.603 55.7479 117.613C55.7733 117.623 55.8006 117.626 55.8276 117.623L55.9536 117.598Z" fill="#111C43"/>
<path d="M49.3891 110.745C46.9619 114.258 45.5276 118.36 45.2373 122.619L53.844 121.619C54.0414 118.414 55.1159 115.326 56.9501 112.69L49.3891 110.745Z" fill="#111C43"/>
<path d="M96.0757 106.31L96.1539 106.301C96.1789 106.29 96.201 106.273 96.2188 106.253C96.2367 106.232 96.2497 106.207 96.257 106.181C96.2644 106.155 96.2658 106.127 96.2613 106.1C96.2568 106.073 96.2464 106.047 96.2309 106.025C95.6657 105.445 95.0536 104.914 94.4007 104.435C94.3621 104.421 94.3209 104.416 94.2801 104.421C94.2394 104.426 94.2003 104.44 94.166 104.462C94.1265 104.463 94.0872 104.467 94.0486 104.476C93.9403 104.567 93.9246 104.688 94.0217 104.756C94.6572 105.223 95.2542 105.74 95.8071 106.302C95.8471 106.327 95.893 106.341 95.9402 106.343C95.9874 106.344 96.0342 106.333 96.0757 106.31V106.31Z" fill="#111C43"/>
<path d="M55.1807 122.296C55.2315 122.283 55.2772 122.255 55.3116 122.215C55.346 122.176 55.3675 122.127 55.3732 122.075C55.3688 121.302 55.4283 120.53 55.551 119.766C55.5385 119.659 55.4685 119.568 55.3316 119.584C55.2986 119.583 55.2657 119.587 55.2338 119.595C55.1892 119.608 55.1488 119.633 55.1163 119.666C55.0838 119.699 55.0602 119.74 55.0477 119.785C54.9193 120.568 54.8588 121.36 54.8669 122.154C54.8794 122.261 54.9863 122.328 55.122 122.302L55.1807 122.296Z" fill="#111C43"/>
<path d="M98.612 110.057C98.7489 110.041 98.8297 109.883 98.7781 109.78C98.475 109.081 98.1085 108.411 97.6831 107.778C97.6499 107.736 97.6037 107.707 97.5519 107.695C97.5002 107.684 97.4459 107.689 97.3979 107.712C97.3979 107.712 97.2129 107.912 97.272 107.994C97.6814 108.619 98.0395 109.277 98.3429 109.96C98.3745 110.009 98.4235 110.045 98.4803 110.061C98.5371 110.076 98.5976 110.07 98.65 110.043L98.612 110.057Z" fill="#111C43"/>
<path d="M98.9877 112.097C99.1423 112.83 99.229 113.576 99.2466 114.326C99.2503 114.354 99.2605 114.381 99.2763 114.404C99.2921 114.428 99.3131 114.448 99.3377 114.462C99.3624 114.477 99.3899 114.485 99.4183 114.487C99.4468 114.489 99.4753 114.485 99.5017 114.474L99.5604 114.467C99.6778 114.454 99.7619 114.325 99.7517 114.237C99.7368 113.468 99.6478 112.702 99.4861 111.95C99.4747 111.852 99.3298 111.8 99.1952 111.835C99.0605 111.871 99.1952 111.835 99.1952 111.835C99.1952 111.835 98.9568 112.002 98.9877 112.097Z" fill="#111C43"/>
<path d="M56.8899 128.405C56.7628 128.42 56.7038 128.595 56.7543 128.688C57.1689 129.335 57.641 129.943 58.1648 130.506C58.1995 130.541 58.2446 130.565 58.2936 130.574C58.3427 130.582 58.3932 130.575 58.4379 130.553L58.5162 130.544C58.5423 130.533 58.5655 130.515 58.5844 130.494C58.6033 130.473 58.6172 130.447 58.6254 130.42C58.6335 130.393 58.6356 130.364 58.6315 130.336C58.6275 130.308 58.6173 130.281 58.6017 130.257C58.0876 129.692 57.6254 129.083 57.2206 128.436C57.2104 128.348 57.0591 128.326 56.9354 128.37C56.8117 128.414 56.9095 128.403 56.8899 128.405Z" fill="#111C43"/>
<path d="M99.1678 116.63C99.0626 117.424 98.8882 118.206 98.6465 118.969C98.659 119.077 98.6703 119.174 98.8389 119.175L99.0051 119.155L99.1837 118.986C99.4262 118.204 99.5984 117.401 99.6982 116.589C99.6857 116.481 99.6168 116.4 99.469 116.407C99.3211 116.414 99.4103 116.414 99.3907 116.416C99.3364 116.426 99.2861 116.451 99.2464 116.489C99.2067 116.527 99.1793 116.577 99.1678 116.63V116.63Z" fill="#111C43"/>
<path d="M59.9691 131.873C59.8608 131.965 59.8451 132.086 59.9324 132.155C60.6071 132.668 61.3233 133.125 62.0735 133.521L62.2985 133.494L62.4188 133.421C62.5173 133.33 62.5123 133.202 62.3882 133.157C61.6753 132.759 60.9934 132.309 60.3482 131.809C60.3078 131.796 60.2651 131.792 60.2229 131.797C60.1807 131.802 60.14 131.816 60.1037 131.838C60.0569 131.84 60.0112 131.852 59.9691 131.873V131.873Z" fill="#111C43"/>
<path d="M64.4685 134.254C64.4139 134.271 64.3658 134.304 64.3309 134.35C64.2444 134.459 64.2667 134.565 64.3615 134.614C64.818 134.788 65.3026 134.95 65.7752 135.093C66.2479 135.236 66.5744 135.317 66.9718 135.41L67.1869 135.385L67.3505 135.257C67.3657 135.235 67.375 135.209 67.3775 135.182C67.38 135.156 67.3757 135.129 67.3649 135.104C67.3541 135.08 67.3372 135.058 67.3158 135.042C67.2945 135.026 67.2693 135.016 67.2427 135.012C66.8552 134.918 66.4665 134.815 66.0865 134.7C65.7064 134.586 65.1401 134.404 64.6946 134.238C64.6577 134.226 64.6187 134.221 64.5799 134.224C64.5411 134.226 64.5033 134.237 64.4685 134.254V134.254Z" fill="#111C43"/>
<path d="M56.8111 124.136C56.9112 124.617 57.0392 125.092 57.1943 125.558C58.5596 129.46 61.9534 132.394 66.6795 133.827C71.8485 135.209 77.3207 134.944 82.3322 133.068C87.4677 131.334 91.9358 128.045 95.1164 123.659C97.2048 120.837 98.2242 117.367 97.9932 113.865L97.9875 113.816C97.9073 112.92 97.7182 112.037 97.4244 111.187C94.6752 103.136 83.4017 99.7804 72.3193 103.703C61.8102 107.439 55.2027 116.349 56.8111 124.136Z" fill="#111C43"/>
<path d="M88.139 131.335C88.0187 131.409 87.9834 131.532 88.0523 131.613C88.0862 131.65 88.1313 131.675 88.1808 131.683C88.2302 131.692 88.2811 131.684 88.3255 131.66L88.394 131.652C89.3232 131.118 90.1391 130.548 90.9419 129.95C91.0513 129.868 91.0671 129.747 90.9895 129.677C90.953 129.648 90.9096 129.629 90.8636 129.622C90.8176 129.616 90.7706 129.621 90.7273 129.638C90.6943 129.638 90.6615 129.642 90.6295 129.649C89.8285 130.253 88.9973 130.816 88.139 131.335V131.335Z" fill="#111C43"/>
<path d="M75.6784 135.516C75.6313 135.528 75.5887 135.553 75.5558 135.588C75.5229 135.624 75.5012 135.668 75.4935 135.716C75.506 135.824 75.5846 135.904 75.7216 135.888C76.7446 135.777 77.7611 135.613 78.7669 135.395V135.395C78.8205 135.385 78.8689 135.356 78.9037 135.314C78.9386 135.272 78.9579 135.22 78.9583 135.165C78.9458 135.057 78.8302 135.002 78.6847 135.028C77.718 135.24 76.7445 135.392 75.7664 135.506C75.7367 135.505 75.707 135.508 75.6784 135.516V135.516Z" fill="#111C43"/>
<path d="M57.0519 130.797L49.6659 135.478C48.1122 133.72 46.9268 131.668 46.1796 129.444C45.4287 127.252 45.109 124.934 45.2382 122.62L53.8449 121.62C54.036 118.406 55.1095 115.307 56.9476 112.662L49.39 110.746C52.7267 105.842 57.1791 101.798 62.3821 98.9454L66.2497 104.251C67.9869 103.256 69.8108 102.421 71.6991 101.756C73.5059 101.111 75.3682 100.632 77.2624 100.327L77.0213 93.7284C82.8257 92.6444 88.8055 92.9689 94.458 94.6745L89.7373 100.968C92.7957 101.874 95.5411 103.613 97.6657 105.99L104.993 101.316C106.55 103.081 107.739 105.138 108.491 107.368C109.242 109.561 109.562 111.878 109.433 114.192L100.826 115.192C100.627 118.399 99.5535 121.49 97.7211 124.131L105.279 126.046C101.935 130.984 97.4649 135.058 92.237 137.932L88.4074 132.612C86.6978 133.583 84.9054 134.402 83.0513 135.057C81.2034 135.715 79.299 136.201 77.3619 136.51L77.5847 143.121C71.8076 144.172 65.8626 143.823 60.2488 142.104L64.9902 135.818C61.9266 134.918 59.1766 133.178 57.0519 130.797Z" fill="url(#paint4_linear)"/>
<path d="M62.0306 108.731L62.148 108.718C62.8732 108.058 63.6354 107.44 64.431 106.868C64.5404 106.785 64.5647 106.654 64.4774 106.585C64.4397 106.559 64.3961 106.542 64.3506 106.537C64.305 106.532 64.2588 106.538 64.2163 106.556C64.1867 106.555 64.1571 106.559 64.1283 106.566C63.3126 107.145 62.5314 107.772 61.7889 108.442C61.6915 108.543 61.6856 108.662 61.8207 108.716L62.0306 108.731Z" fill="#111C43"/>
<path d="M84.2454 101.239C85.1714 101.325 86.0914 101.467 87.0006 101.662L87.1766 101.642L87.3402 101.514C87.3553 101.491 87.3642 101.465 87.3661 101.437C87.368 101.41 87.3627 101.383 87.3509 101.358C87.339 101.334 87.321 101.313 87.2985 101.297C87.276 101.282 87.2499 101.272 87.2226 101.27C86.2934 101.073 85.3535 100.931 84.4076 100.844C84.3581 100.84 84.3082 100.846 84.2609 100.861C84.224 100.873 84.1899 100.893 84.1606 100.918C84.1312 100.944 84.1072 100.975 84.0899 101.01C84.0241 101.126 84.1148 101.225 84.2454 101.239Z" fill="#111C43"/>
<path d="M94.4593 94.7111L89.7386 101.005C92.797 101.91 95.5425 103.649 97.667 106.027L104.99 101.313C102.147 98.1947 98.506 95.9118 94.4593 94.7111V94.7111Z" fill="#111C43"/>
<path d="M55.0942 124.465C55.2015 125.019 55.3477 125.565 55.5317 126.098L55.5374 126.147L55.7247 126.651C55.7361 126.748 55.8884 126.78 56.022 126.735C56.1687 126.718 56.2397 126.561 56.199 126.467C56.1583 126.372 56.081 126.134 56.0226 125.972L55.7585 126.003L56.006 125.915C55.8263 125.39 55.6845 124.854 55.5816 124.31C55.5555 124.258 55.5115 124.218 55.4579 124.197C55.4044 124.176 55.3449 124.175 55.2908 124.195C55.2753 124.201 55.2584 124.203 55.2418 124.201C55.1901 124.22 55.1469 124.258 55.1199 124.306C55.0929 124.355 55.0838 124.411 55.0942 124.465V124.465Z" fill="#111C43"/>
<path d="M97.7368 121.295C97.3583 122.081 96.9302 122.842 96.4551 123.573C96.4366 123.594 96.4242 123.619 96.4193 123.646C96.4144 123.673 96.4172 123.701 96.4274 123.727C96.4376 123.752 96.4548 123.775 96.477 123.791C96.4992 123.807 96.5256 123.817 96.5531 123.819L96.7291 123.799L96.8938 123.681C97.3812 122.935 97.8208 122.16 98.2101 121.359C98.223 121.334 98.2292 121.307 98.2281 121.279C98.2271 121.251 98.2187 121.224 98.2039 121.201C98.1891 121.178 98.1685 121.159 98.144 121.146C98.1194 121.133 98.092 121.127 98.0643 121.128C98.0117 121.114 97.9559 121.121 97.9078 121.146C97.8704 121.157 97.8358 121.176 97.8063 121.202C97.7768 121.228 97.7531 121.259 97.7368 121.295Z" fill="#111C43"/>
<path d="M92.8627 127.805C92.7642 127.895 92.7681 128.014 92.8934 128.069L93.1379 128.04L93.2484 127.968C93.9557 127.314 94.6229 126.618 95.2465 125.884C95.2699 125.869 95.2886 125.847 95.3006 125.822C95.3125 125.797 95.3171 125.77 95.3139 125.742C95.3107 125.714 95.2998 125.688 95.2825 125.667C95.2651 125.645 95.242 125.629 95.2158 125.62C95.1801 125.609 95.1427 125.606 95.1057 125.61C95.0687 125.614 95.033 125.626 95.0007 125.645C94.9468 125.663 94.8991 125.696 94.863 125.74C94.237 126.466 93.5691 127.156 92.8627 127.805V127.805Z" fill="#111C43"/>
<path d="M69.7993 135.515C69.7263 135.542 69.6656 135.595 69.6283 135.663C69.6181 135.688 69.614 135.715 69.6163 135.741C69.6186 135.768 69.6272 135.794 69.6415 135.816C69.6558 135.839 69.6752 135.858 69.6983 135.871C69.7214 135.885 69.7473 135.892 69.774 135.894C70.7476 136.002 71.7266 136.054 72.7062 136.049L72.8236 136.035C72.8668 136.022 72.9063 135.999 72.9389 135.967C72.9714 135.936 72.9961 135.897 73.0108 135.855C72.9983 135.747 72.9869 135.649 72.8086 135.65C71.8523 135.655 70.8964 135.604 69.946 135.498C69.8965 135.493 69.8466 135.499 69.7993 135.515V135.515Z" fill="#111C43"/>
<path d="M56.9941 130.753L49.6627 135.478C52.5054 138.601 56.1471 140.891 60.1955 142.099L64.9369 135.813C61.8672 134.903 59.1151 133.15 56.9941 130.753V130.753Z" fill="#111C43"/>
<path d="M81.6848 134.235C81.5479 134.251 81.4648 134.39 81.486 134.486C81.497 134.513 81.5134 134.538 81.5342 134.558C81.555 134.579 81.5797 134.595 81.6069 134.606C81.6341 134.617 81.6631 134.622 81.6923 134.621C81.7215 134.62 81.7503 134.613 81.7768 134.601L82.731 134.282L82.8093 134.273C83.7601 133.925 84.7063 133.538 85.648 133.111C85.7695 133.048 85.8439 132.92 85.7836 132.828C85.7234 132.736 85.6026 132.72 85.4691 132.766C84.5861 133.185 83.6485 133.562 82.7161 133.898L82.6379 133.907L81.6848 134.235Z" fill="#111C43"/>
<path d="M100.818 115.14C100.619 118.347 99.5452 121.439 97.7129 124.079L105.276 126.043C107.704 122.516 109.136 118.402 109.423 114.131L100.818 115.14Z" fill="#111C43"/>
<path d="M77.3044 136.455L77.5272 143.066C78.0162 143.009 78.4984 142.894 78.9916 142.787L79.0796 142.777C79.1872 142.764 79.3045 142.751 79.4219 142.737C81.3378 142.31 83.2241 141.76 85.069 141.09C86.5946 140.55 88.0908 139.929 89.5516 139.232L89.669 139.219L89.8285 139.141C90.6355 138.75 91.4207 138.342 92.1796 137.877L88.35 132.557C86.6434 133.528 84.8543 134.345 83.0036 135.001C81.1526 135.66 79.2448 136.146 77.3044 136.455V136.455Z" fill="#111C43"/>
<path style="mix-blend-mode:screen" d="M46.1804 129.472C46.9365 131.663 48.1178 133.683 49.6565 135.418C52.4941 138.55 56.1378 140.844 60.1905 142.049C65.8052 143.763 71.749 144.112 77.5264 143.066C78.0056 143.01 78.4976 142.894 78.9907 142.787L79.069 142.778C79.1864 142.764 79.3037 142.751 79.4113 142.738C81.3282 142.302 83.2172 141.752 85.0682 141.091C86.5937 140.55 88.09 139.929 89.5508 139.233C89.5508 139.233 89.6193 139.225 89.6682 139.219L89.8276 139.141C90.6347 138.75 91.4199 138.342 92.1787 137.877C97.4192 135.023 101.908 130.968 105.276 126.044C107.702 122.516 109.134 118.402 109.423 114.132C109.693 109.444 108.089 104.842 104.963 101.337C102.125 98.2107 98.482 95.9236 94.4317 94.7249C88.7793 93.0193 82.7995 92.6948 76.995 93.7788C74.4511 94.2004 71.9486 94.8424 69.516 95.6976C67.0585 96.5733 64.6808 97.6581 62.4089 98.9401C57.1933 101.788 52.73 105.834 49.3874 110.745C46.9602 114.257 45.5259 118.359 45.2356 122.618C45.1087 124.942 45.4294 127.269 46.1804 129.472V129.472Z" fill="url(#paint5_linear)"/>
<g style="mix-blend-mode:multiply">
<path style="mix-blend-mode:multiply" d="M49.6636 135.476C52.5063 138.599 56.148 140.889 60.1964 142.097C65.8103 143.817 71.7553 144.166 77.5324 143.115C78.0214 143.058 78.5036 142.942 78.9967 142.835L79.0652 142.828C79.1728 142.815 79.2901 142.801 79.4075 142.788C81.3234 142.361 83.2097 141.811 85.0546 141.141C85.6255 140.936 86.1844 140.713 86.7433 140.489C86.981 140.402 87.2187 140.315 87.4541 140.209C88.1638 139.918 88.8614 139.609 89.5372 139.283L89.6546 139.27L89.814 139.192C90.6211 138.801 91.4063 138.393 92.1652 137.928C92.8353 137.553 93.4824 137.151 94.1153 136.711C94.3277 136.577 94.5293 136.435 94.732 136.303C95.1644 136.015 95.5882 135.737 95.9999 135.442C96.1548 135.325 96.3097 135.208 96.4658 135.101C96.885 134.785 97.3043 134.468 97.7126 134.144C97.8675 134.027 98.0213 133.9 98.1653 133.774C98.6905 133.346 99.2049 132.91 99.6985 132.467C99.7206 132.46 99.7439 132.457 99.767 132.459C100.232 132.028 100.658 131.593 101.112 131.153C101.281 130.985 101.439 130.808 101.598 130.641L102.477 129.677L102.94 129.138C103.236 128.787 103.513 128.438 103.804 128.047L104.185 127.567C104.562 127.058 104.922 126.491 105.273 126.015C107.697 122.496 109.13 118.392 109.424 114.131L111.911 120.865C111.596 125.105 110.161 129.185 107.753 132.69C107.408 133.215 107.045 133.763 106.665 134.243L106.285 134.723C106.009 135.082 105.731 135.421 105.42 135.814L104.957 136.353C104.669 136.684 104.369 137.006 104.079 137.327L103.583 137.83L103.345 138.085L102.315 139.116L102.246 139.124C101.753 139.568 101.238 140.004 100.714 140.441L100.252 140.812C99.852 141.126 99.4339 141.452 99.0135 141.758C98.8586 141.875 98.7037 141.992 98.5476 142.1L98.3006 142.277C97.9712 142.513 97.62 142.732 97.2797 142.96C96.9394 143.188 96.8754 143.235 96.663 143.369C96.0267 143.779 95.3784 144.172 94.7129 144.586C94.303 144.812 93.8931 145.038 93.4722 145.255C93.0514 145.472 92.7325 145.628 92.3572 145.81L92.188 145.889L92.0804 145.902C91.3948 146.229 90.6972 146.538 89.9886 146.838C89.7618 146.934 89.5144 147.022 89.2778 147.119C88.8795 147.274 88.4824 147.439 88.0732 147.586L87.5978 147.76C85.7498 148.431 83.8602 148.981 81.9409 149.407C81.8687 149.411 81.7968 149.42 81.7257 149.432L81.5301 149.455C81.0313 149.513 80.5611 149.647 80.0548 149.726C74.2754 150.826 68.3158 150.516 62.6825 148.822C58.6088 147.605 54.9506 145.288 52.1112 142.125C50.6672 140.496 49.5405 138.611 48.7893 136.568L46.3119 129.833C47.064 131.908 48.2011 133.822 49.6636 135.476V135.476Z" fill="url(#paint6_linear)"/>
<path style="mix-blend-mode:multiply" d="M109.434 112.605L109.381 112.145C109.335 111.748 109.288 111.347 109.241 110.943C109.227 110.816 109.213 110.699 109.198 110.572C109.139 110.064 109.085 109.594 108.912 109.05L108.874 108.718C108.758 108.236 108.623 107.756 108.459 107.28L108.34 106.937L110.817 113.672L110.945 114.004L111.15 114.664L111.36 115.442L111.4 115.784C111.517 116.285 111.601 116.751 111.684 117.296L111.727 117.667C111.774 118.068 111.82 118.469 111.867 118.87L111.911 119.33C111.924 119.447 111.938 119.565 111.95 119.672C111.996 120.063 111.953 120.464 111.93 120.863L109.423 114.131C109.459 113.672 109.453 113.108 109.434 112.605Z" fill="url(#paint7_linear)"/>
</g>
<g style="mix-blend-mode:soft-light">
<g style="mix-blend-mode:soft-light">
<path d="M45.2366 122.617C45.0816 124.523 45.2343 126.442 45.6886 128.3C46.1522 130.167 46.9112 131.948 47.937 133.576C48.991 135.191 50.275 136.643 51.7486 137.888C53.226 139.133 54.8538 140.189 56.594 141.029C57.459 141.457 58.3469 141.837 59.2537 142.167C60.1644 142.497 61.0607 142.789 62.0013 143.036C63.8722 143.506 65.7786 143.822 67.7014 143.979C69.6191 144.14 71.5463 144.158 73.4667 144.032C74.4447 143.918 75.3807 143.869 76.3225 143.7C77.2644 143.531 78.2695 143.395 79.143 143.234L80.5061 142.937L81.9072 142.626C82.8205 142.381 83.7194 142.098 84.616 141.796C84.8439 141.71 85.0361 141.658 85.3009 141.548L85.9531 141.274L87.2389 140.738L88.5627 140.188C88.9881 140.01 89.4244 139.841 89.8475 139.643C90.0628 139.552 90.2725 139.448 90.4755 139.332L91.0362 139.039L92.1294 138.467C92.9037 138.05 93.5877 137.624 94.327 137.161C95.7607 136.244 97.1371 135.241 98.4485 134.157C101.092 132.003 103.396 129.464 105.286 126.627C107.219 123.8 108.562 120.611 109.232 117.253C109.922 113.924 109.678 110.47 108.529 107.271C109.511 110.473 109.626 113.877 108.862 117.138C108.084 120.383 106.686 123.448 104.746 126.164C102.819 128.879 100.523 131.313 97.9239 133.395C96.6352 134.446 95.281 135.414 93.8693 136.293C93.1756 136.721 92.4253 137.174 91.7236 137.533L89.5181 138.77C89.3131 138.883 89.0927 138.948 88.8757 139.043L88.2224 139.307L86.9366 139.842L85.6059 140.334L84.9527 140.598L84.3242 140.819C83.446 141.11 82.5643 141.371 81.6706 141.613L80.3339 141.966L78.9632 142.284C77.9943 142.476 77.1013 142.639 76.156 142.779C75.2107 142.918 74.2977 142.995 73.3588 143.104C71.4874 143.243 69.6081 143.24 67.7373 143.093C65.867 142.961 64.0118 142.666 62.193 142.212C61.2949 141.989 60.3726 141.73 59.4947 141.425C58.6169 141.121 57.7344 140.778 56.8866 140.391C55.1821 139.608 53.5795 138.62 52.114 137.449C50.6603 136.268 49.3791 134.89 48.3078 133.354C46.1655 130.194 45.0895 126.432 45.2366 122.617V122.617Z" fill="#111C43"/>
</g>
</g>
</g>
<g clip-path="url(#clip2)">
<path d="M6.91665 23.2977L2.36344 31.3114C2.77058 28.5087 3.69787 25.8071 5.09756 23.3456L9.71094 15.2305C8.28021 17.7195 7.3322 20.4565 6.91665 23.2977V23.2977Z" fill="url(#paint8_linear)"/>
<path d="M79.8141 63.4933L80.2258 63.0547C80.582 62.6752 80.9411 62.2926 81.3032 61.9068C81.4171 61.7855 81.5222 61.6736 81.636 61.5522C82.0915 61.067 82.5119 60.619 82.9085 59.9907L83.2063 59.6734C83.5882 59.1542 83.9515 58.6175 84.2867 58.0545L84.5273 57.6484L79.914 65.7636L79.6914 66.1691L79.2085 66.927L78.611 67.788L78.3045 68.1146C77.905 68.6525 77.5126 69.1267 77.0407 69.6668L76.7079 70.0215C76.3488 70.4041 75.9896 70.7867 75.6305 71.1693L75.2095 71.5991C75.1044 71.7111 74.9993 71.8231 74.9029 71.9257C74.5526 72.299 74.1182 72.5934 73.7024 72.9053L78.2878 64.7638C78.7748 64.4135 79.3301 63.9341 79.8141 63.4933Z" fill="url(#paint9_linear)"/>
<path d="M9.22282 39.2748L4.58375 47.4361C2.37347 42.3667 1.60558 36.7865 2.36475 31.3105L6.91797 23.2969C6.22248 28.7323 7.01922 34.2556 9.22282 39.2748V39.2748Z" fill="#111C43"/>
<path d="M78.2889 64.7621L73.6849 72.8861C69.2076 76.1313 63.9488 78.1306 58.4448 78.6801L62.9701 70.6401C68.5124 70.0918 73.8039 68.0614 78.2889 64.7621Z" fill="#111C43"/>
<path d="M22.763 57.3544L18.1671 65.4509C12.2598 60.6216 7.60068 54.4422 4.58343 47.4349L9.17871 39.3203C12.201 46.33 16.8593 52.5141 22.763 57.3544V57.3544Z" fill="url(#paint10_linear)"/>
<path d="M35.6226 75.6733L40.2179 67.5587C41.153 67.9098 42.0958 68.2154 43.0642 68.475C43.3753 68.5739 43.6859 68.6548 43.9877 68.7449C44.6368 68.933 45.2678 69.1215 45.9071 69.2827C46.1534 69.3383 46.3997 69.394 46.6373 69.4591C47.3034 69.6103 47.9694 69.7615 48.6349 69.8947C48.8813 69.9504 49.1364 69.9967 49.3821 70.0343C50.2479 70.1974 51.113 70.3424 51.9682 70.4606C51.9938 70.4766 52.016 70.4974 52.0336 70.5219C52.852 70.6231 53.6419 70.6799 54.4597 70.763C54.7686 70.7896 55.0768 70.798 55.3763 70.8158L57.0722 70.8805L57.9963 70.8878C58.5941 70.8872 59.1732 70.869 59.806 70.8311L60.6023 70.8062C61.4249 70.7532 62.2907 70.6356 63.059 70.5843L58.445 78.6814C57.6329 78.7793 56.7847 78.8783 55.9884 78.9032L55.1921 78.9282C54.6042 78.9556 54.0338 78.9644 53.3823 78.9848L52.4582 78.9775C51.8873 78.9682 51.3157 78.9408 50.7536 78.9222L49.8364 78.8513L49.3828 78.8293L47.4938 78.671L47.4284 78.6097C46.5732 78.4915 45.708 78.3465 44.8336 78.1927L44.077 78.0443C43.4296 77.9106 42.7548 77.7687 42.0975 77.6082C41.8512 77.5525 41.6048 77.4968 41.3672 77.4317L40.9837 77.3351C40.4723 77.2062 39.9598 77.041 39.4479 76.894C38.9359 76.747 38.8355 76.723 38.5244 76.6241C37.4917 76.3394 36.5578 76.0244 35.6226 75.6733Z" fill="url(#paint11_linear)"/>
<path d="M24.2294 58.5418L24.2948 58.6032C24.3975 58.6996 24.5096 58.8048 24.6216 58.91C26.6537 60.4558 28.7835 61.8686 30.9979 63.1395C31.6808 63.5348 32.3719 63.9026 33.063 64.2705C33.349 64.4336 33.635 64.5967 33.9386 64.7412C34.8229 65.2026 35.7154 65.6366 36.6067 66.0344L36.7188 66.1396L36.9301 66.2326C37.996 66.7065 39.0607 67.1441 40.1593 67.5083L35.5553 75.6322C34.9867 75.4145 34.4182 75.1968 33.849 74.961C33.2799 74.7252 32.8573 74.5392 32.3611 74.3192L32.1405 74.2175L32.0377 74.121C31.1371 73.7145 30.2446 73.2805 29.3515 72.8284C29.066 72.6833 28.7707 72.5114 28.4759 72.3576C27.9874 72.0921 27.49 71.836 27.0009 71.5524L26.4289 71.2261C24.2109 69.953 22.0779 68.5373 20.0433 66.9878C19.9788 66.9194 19.9102 66.855 19.8379 66.795L19.6511 66.6197C19.1748 66.1726 18.6472 65.8178 18.1441 65.3807L22.7487 57.2748C23.2255 57.74 23.7467 58.1765 24.2294 58.5418Z" fill="#111C43"/>
<path d="M63.109 9.63502C60.174 7.92345 57.0969 6.46821 53.912 5.28548L51.8672 13.5648C54.2693 14.4363 56.5871 15.5249 58.7919 16.817L58.8946 16.9134C61.0526 18.1671 63.091 19.6162 64.9841 21.2425L71.3652 15.4361C68.7845 13.2693 66.0222 11.3285 63.109 9.63502V9.63502Z" fill="#111C43"/>
<path d="M58.5055 18.0938C58.4179 18.1871 58.5054 18.3746 58.6624 18.4693C59.7802 19.1499 60.9096 19.9116 61.9585 20.703C62.0148 20.7419 62.0821 20.7617 62.1505 20.7596C62.2189 20.7574 62.2848 20.7334 62.3386 20.6911C62.4349 20.5884 62.4116 20.4261 62.2447 20.3045C61.1641 19.4885 60.0423 18.7285 58.8838 18.0276C58.7828 17.9855 58.5832 17.9736 58.5055 18.0938Z" fill="#111C43"/>
<path d="M64.9439 22.8385C64.8476 22.9412 64.8522 23.0859 64.9742 23.218C65.9204 24.0844 66.8176 25.0028 67.6618 25.9689L67.7739 26.0741C67.822 26.1051 67.877 26.1238 67.9341 26.1283C67.9912 26.1328 68.0484 26.1231 68.1008 26.1001C68.1972 25.9974 68.2847 25.9041 68.1254 25.737C67.2626 24.7473 66.3465 23.8054 65.3812 22.9154C65.3812 22.9154 65.3251 22.8628 65.2971 22.8365C65.2445 22.8022 65.183 22.784 65.1202 22.7844C65.0574 22.7847 64.9961 22.8036 64.9439 22.8385V22.8385Z" fill="#111C43"/>
<path d="M36.5416 12.977L36.7786 13.0239C37.9819 12.9165 39.1904 12.8787 40.3981 12.9106C40.433 12.9159 40.4686 12.9127 40.502 12.9011C40.5353 12.8896 40.5653 12.8702 40.5895 12.8445C40.6136 12.8187 40.6311 12.7876 40.6405 12.7536C40.6499 12.7196 40.6509 12.6838 40.6434 12.6493C40.5998 12.5628 40.527 12.4945 40.4379 12.4565C40.3537 12.4092 40.26 12.3812 40.1636 12.3745C38.9558 12.3363 37.747 12.3742 36.5441 12.4878C36.5082 12.4875 36.473 12.4966 36.4417 12.5142C36.4105 12.5318 36.3845 12.5573 36.3662 12.5882C36.348 12.619 36.3381 12.6541 36.3377 12.6899C36.3372 12.7257 36.3461 12.7611 36.3636 12.7924L36.5416 12.977Z" fill="#111C43"/>
<path d="M73.3134 35.1819C73.7064 36.2229 74.0251 37.2905 74.2671 38.3765L74.4819 38.5781L74.6646 38.6268C74.6985 38.6332 74.7334 38.631 74.7662 38.6203C74.799 38.6096 74.8285 38.5909 74.8521 38.5658C74.8757 38.5406 74.8925 38.51 74.9011 38.4766C74.9097 38.4432 74.9097 38.4082 74.9011 38.3748C74.6522 37.261 74.3236 36.1664 73.9177 35.0996C73.8744 35.0237 73.8093 34.9627 73.7309 34.9243C73.6599 34.8889 73.5819 34.8697 73.5027 34.868C73.4629 34.8583 73.4211 34.8615 73.3833 34.8772C73.3455 34.8929 73.3137 34.9203 73.2926 34.9553C73.2715 34.9903 73.2621 35.0312 73.2658 35.072C73.2696 35.1127 73.2863 35.1512 73.3134 35.1819V35.1819Z" fill="#111C43"/>
<path d="M29.9626 14.5411L30.2989 14.5758C31.3112 14.1757 32.3512 13.8495 33.4107 13.5998C33.4451 13.5925 33.477 13.5766 33.5033 13.5534C33.5297 13.5303 33.5497 13.5007 33.5614 13.4676C33.5731 13.4345 33.576 13.399 33.57 13.3644C33.564 13.3298 33.5492 13.2973 33.527 13.2701C33.4913 13.2103 33.4395 13.1617 33.3776 13.1298C33.2867 13.0772 33.1803 13.0581 33.0769 13.0759C31.9925 13.3432 30.9263 13.6791 29.8845 14.0816C29.8528 14.0971 29.8254 14.1201 29.8046 14.1487C29.7838 14.1772 29.7703 14.2103 29.7651 14.2453C29.76 14.2802 29.7635 14.3158 29.7752 14.3492C29.7869 14.3825 29.8066 14.4124 29.8325 14.4365L29.9626 14.5411Z" fill="#111C43"/>
<path d="M31.2626 2.2621C25.7344 2.79876 20.4544 4.81651 15.9787 8.10277L24.1965 15.8162C27.5464 13.3227 31.5176 11.7978 35.6766 11.408L31.2626 2.2621Z" fill="#111C43"/>
<path d="M74.857 44.9369L74.9317 45.0071C74.9638 45.0224 74.9989 45.0304 75.0345 45.0307C75.0701 45.031 75.1053 45.0234 75.1377 45.0086C75.17 44.9938 75.1987 44.972 75.2218 44.9449C75.2448 44.9177 75.2615 44.8859 75.2709 44.8515C75.3725 43.8034 75.3872 42.7487 75.3149 41.6981C75.2963 41.6481 75.2663 41.6031 75.2275 41.5666C75.1886 41.5301 75.1418 41.5031 75.0908 41.4877C75.0569 41.4491 75.0194 41.4138 74.9787 41.3825C74.7966 41.352 74.6634 41.4377 74.6774 41.5912C74.7469 42.6145 74.7344 43.6417 74.6399 44.6629C74.6485 44.7238 74.6731 44.7812 74.7113 44.8294C74.7494 44.8775 74.7997 44.9147 74.857 44.9369V44.9369Z" fill="#111C43"/>
<path d="M24.6448 17.7145C24.7 17.7543 24.7661 17.7762 24.8342 17.7773C24.9022 17.7784 24.969 17.7587 25.0254 17.7207C25.79 17.0673 26.6073 16.4782 27.469 15.9594C27.5653 15.8568 27.5969 15.7109 27.4662 15.5882C27.439 15.555 27.4076 15.5255 27.3728 15.5005C27.3221 15.4675 27.2638 15.4479 27.2035 15.4434C27.1432 15.439 27.0827 15.4499 27.0278 15.4751C26.142 16.0046 25.3038 16.6097 24.5223 17.2835C24.4259 17.3862 24.4492 17.5485 24.5887 17.6619L24.6448 17.7145Z" fill="#111C43"/>
<path d="M73.2619 50.6032C73.3927 50.726 73.6174 50.6736 73.6764 50.5359C74.1172 49.6476 74.4756 48.7208 74.7472 47.767C74.7605 47.6992 74.7506 47.6289 74.719 47.5675C74.6875 47.506 74.6362 47.457 74.5733 47.4282C74.5733 47.4282 74.2196 47.4121 74.1874 47.54C73.9096 48.4716 73.557 49.3793 73.133 50.254C73.1103 50.3271 73.1156 50.406 73.148 50.4753C73.1804 50.5447 73.2374 50.5994 73.308 50.629L73.2619 50.6032Z" fill="#111C43"/>
<path d="M71.5534 52.6812C70.9546 53.4504 70.2861 54.1626 69.5563 54.8089C69.5315 54.8364 69.5132 54.8691 69.5029 54.9047C69.4926 54.9403 69.4906 54.9778 69.497 55.0143C69.5035 55.0508 69.5181 55.0853 69.5399 55.1153C69.5617 55.1453 69.5901 55.1699 69.6228 55.1873L69.6788 55.2398C69.7909 55.345 69.9894 55.3207 70.0682 55.2367C70.8199 54.5763 71.5063 53.845 72.1179 53.0531C72.2055 52.9597 72.136 52.7717 71.9878 52.6676C71.8395 52.5636 71.9878 52.6676 71.9878 52.6676C71.9878 52.6676 71.6223 52.5704 71.5534 52.6812Z" fill="#111C43"/>
<path d="M20.0085 24.5429C19.8871 24.429 19.6635 24.5175 19.6133 24.6459C19.3185 25.6008 19.1103 26.5804 18.9914 27.5728C18.9851 27.6373 18.9993 27.7021 19.032 27.758C19.0647 27.8139 19.1142 27.8581 19.1734 27.8842L19.2481 27.9543C19.2815 27.9706 19.318 27.9794 19.3551 27.9802C19.3921 27.9809 19.4289 27.9737 19.4629 27.9588C19.4969 27.944 19.5273 27.9219 19.5519 27.8942C19.5765 27.8664 19.5948 27.8337 19.6055 27.7982C19.7346 26.8137 19.9522 25.8429 20.2554 24.8975C20.3342 24.8135 20.2292 24.6447 20.0815 24.5588C19.9338 24.4728 20.0272 24.5605 20.0085 24.5429Z" fill="#111C43"/>
<path d="M67.1959 56.6717C66.3193 57.2331 65.3952 57.7167 64.4342 58.1168C64.3379 58.2195 64.2503 58.3128 64.3915 58.4805L64.5503 58.6295L64.8684 58.6648C65.8493 58.2491 66.7911 57.7468 67.6827 57.1637C67.779 57.0611 67.8018 56.9245 67.6705 56.7837C67.5392 56.6429 67.6145 56.7311 67.5958 56.7136C67.5409 56.6674 67.4735 56.6388 67.4022 56.6313C67.3309 56.6239 67.2591 56.638 67.1959 56.6717V56.6717Z" fill="#111C43"/>
<path d="M19.1496 30.5118C18.9675 30.4813 18.8344 30.567 18.839 30.7117C18.8949 31.8133 19.0421 32.9085 19.2789 33.9859L19.4937 34.1875L19.6677 34.2454C19.8405 34.2672 19.9637 34.1546 19.9042 33.9935C19.701 32.9514 19.5763 31.8956 19.5313 30.835C19.5105 30.7838 19.4788 30.7378 19.4385 30.7C19.3982 30.6621 19.3503 30.6335 19.2979 30.6159C19.2558 30.5717 19.2054 30.5363 19.1496 30.5118V30.5118Z" fill="#111C43"/>
<path d="M20.5637 36.9805C20.5013 36.9403 20.4278 36.9204 20.3536 36.9237C20.1726 36.9294 20.0856 37.0408 20.1171 37.1756C20.3265 37.776 20.5727 38.3932 20.8271 38.9831C21.0815 39.5729 21.2752 39.9654 21.5168 40.4379L21.7222 40.6307L21.9867 40.6858C22.0214 40.6824 22.0546 40.6701 22.0832 40.6502C22.1119 40.6303 22.135 40.6034 22.1503 40.5721C22.1656 40.5408 22.1727 40.5061 22.1708 40.4712C22.169 40.4364 22.1583 40.4026 22.1397 40.3731C21.9075 39.9093 21.684 39.4363 21.4786 38.9627C21.2732 38.489 20.9786 37.7737 20.7698 37.1914C20.751 37.1445 20.7231 37.1016 20.6878 37.0654C20.6524 37.0292 20.6103 37.0004 20.5637 36.9805V36.9805Z" fill="#111C43"/>
<path d="M24.1851 20.8839C23.7913 21.387 23.4271 21.9126 23.0942 22.4579C20.3621 27.0904 20.2952 32.9256 22.839 38.824C25.8039 45.121 30.6606 50.3363 36.7312 53.7417C42.7649 57.3894 49.7833 59.0691 56.8122 58.5475C61.3692 58.2543 65.6734 56.3543 68.9592 53.1855L69.003 53.1388C69.826 52.3071 70.5445 51.3782 71.1427 50.3727C76.8353 40.8832 70.7073 26.8636 57.5075 19.1432C44.9731 11.8366 30.5732 12.7494 24.1851 20.8839Z" fill="#111C43"/>
<path d="M43.3292 58.0491C43.1552 57.9912 43.0034 58.0593 42.9806 58.1959C42.9722 58.2606 42.9855 58.3263 43.0185 58.3826C43.0514 58.439 43.1021 58.4828 43.1627 58.5072L43.2281 58.5686C44.5385 59.0438 45.7901 59.376 47.0586 59.6714C47.232 59.7113 47.3651 59.6256 47.3698 59.4896C47.3678 59.4291 47.35 59.3702 47.3182 59.3188C47.2863 59.2673 47.2416 59.2251 47.1883 59.1964C47.1608 59.1635 47.1294 59.1341 47.0949 59.1087C45.8225 58.8197 44.5657 58.466 43.3292 58.0491V58.0491Z" fill="#111C43"/>
<path d="M28.7162 49.1789C28.6653 49.1417 28.6046 49.1203 28.5417 49.1175C28.4788 49.1146 28.4164 49.1304 28.3624 49.1628C28.2661 49.2654 28.2526 49.4108 28.3834 49.5335C29.3521 50.4572 30.3686 51.3294 31.4289 52.1464V52.1464C31.4842 52.1909 31.5532 52.2149 31.6242 52.2144C31.6952 52.2138 31.7638 52.1887 31.8183 52.1432C31.9146 52.0406 31.8732 51.8788 31.7244 51.7567C30.703 50.9735 29.7341 50.1343 28.8002 49.2578C28.7767 49.2271 28.7483 49.2005 28.7162 49.1789V49.1789Z" fill="#111C43"/>
<path d="M17.7712 26.7076L6.91943 23.2975C7.36254 20.2777 8.4062 17.3777 9.98879 14.7687C11.5376 12.1819 13.572 9.91911 15.9801 8.10491L24.1979 15.8183C27.5522 13.3104 31.5334 11.7755 35.7043 11.3821L31.264 2.26424C38.9382 1.46344 46.6943 2.49326 53.896 5.26924L51.87 13.5661C54.3167 14.4573 56.6776 15.5687 58.9236 16.8867C61.0816 18.1404 63.12 19.5895 65.0132 21.2158L71.368 15.4374C77.3172 20.2954 82.0141 26.51 85.0637 33.5586L74.8473 34.1502C76.5146 37.9495 77.0909 42.1374 76.5115 46.2444L87.3072 49.6019C86.8601 52.6304 85.8139 55.5391 84.2297 58.158C82.6806 60.7447 80.6462 63.0074 78.2384 64.8219L70.0206 57.1084C66.667 59.6027 62.6936 61.1305 58.5317 61.526L62.972 70.6439C55.258 71.466 47.4578 70.4436 40.2139 67.6609L42.286 59.3898C39.8857 58.5063 37.5683 57.4119 35.3608 56.1195C33.1561 54.8354 31.0741 53.3512 29.1411 51.6858L22.7589 57.4561C16.8652 52.5975 12.2218 46.3972 9.21841 39.3753L19.4447 38.8105C17.7673 35.0109 17.1876 30.8182 17.7712 26.7076Z" fill="url(#paint12_linear)"/>
<path d="M43.8749 13.1337L43.9869 13.2389C45.2511 13.4059 46.5047 13.6449 47.7417 13.9546C47.9151 13.9945 48.0663 13.9083 48.0616 13.7635C48.056 13.7041 48.0357 13.647 48.0025 13.5974C47.9693 13.5479 47.9242 13.5074 47.8714 13.4796C47.8468 13.4499 47.8186 13.4234 47.7874 13.4007C46.5269 13.0764 45.2486 12.8261 43.9591 12.651C43.7775 12.6386 43.6537 12.733 43.7138 12.9123L43.8749 13.1337Z" fill="#111C43"/>
<path d="M69.9701 28.9215C70.6617 29.9141 71.2936 30.9468 71.8625 32.0144L72.0306 32.1721L72.2951 32.2273C72.3304 32.2232 72.364 32.21 72.3926 32.189C72.4213 32.168 72.4439 32.1399 72.4584 32.1074C72.4729 32.075 72.4787 32.0394 72.4753 32.004C72.4718 31.9686 72.4592 31.9348 72.4387 31.9057C71.8539 30.8174 71.2063 29.7641 70.499 28.751C70.4615 28.6983 70.4139 28.6536 70.359 28.6195C70.3158 28.5932 70.2678 28.5756 70.2178 28.5679C70.1678 28.5601 70.1168 28.5623 70.0677 28.5743C69.8966 28.6068 69.875 28.7796 69.9701 28.9215Z" fill="#111C43"/>
<path d="M85.0267 33.5943L74.8103 34.1859C76.4776 37.9853 77.0539 42.1732 76.4746 46.2801L87.3053 49.6003C88.0182 44.158 87.2303 38.6234 85.0267 33.5943V33.5943Z" fill="#111C43"/>
<path d="M22.4186 19.4508C21.9582 20.0224 21.5387 20.6257 21.163 21.2563L21.1192 21.303L20.7764 21.9115C20.6888 22.0048 20.785 22.183 20.9421 22.2777C21.0821 22.4092 21.2976 22.3481 21.3571 22.2285C21.4167 22.1088 21.589 21.8317 21.7006 21.638L21.4484 21.4014L21.7438 21.5733C22.1139 20.9548 22.5278 20.3637 22.9824 19.8045C23.0114 19.7354 23.0142 19.6582 22.9903 19.5872C22.9663 19.5162 22.9173 19.4565 22.8524 19.4191C22.833 19.4092 22.8168 19.394 22.8057 19.3752C22.7425 19.3404 22.6691 19.3289 22.5984 19.3427C22.5276 19.3565 22.464 19.3948 22.4186 19.4508V19.4508Z" fill="#111C43"/>
<path d="M61.3619 59.1648C60.2632 59.4483 59.1476 59.6617 58.0218 59.8037C57.986 59.8025 57.9505 59.8113 57.9194 59.8292C57.8883 59.8472 57.8629 59.8734 57.846 59.9051C57.829 59.9367 57.8214 59.9725 57.8237 60.0083C57.8261 60.0441 57.8385 60.0786 57.8595 60.1077L58.0276 60.2655L58.2833 60.3299C59.4332 60.1885 60.5729 59.9743 61.6957 59.6887C61.7308 59.681 61.7633 59.6642 61.7899 59.6399C61.8164 59.6156 61.8361 59.5848 61.847 59.5504C61.8578 59.5161 61.8594 59.4796 61.8516 59.4444C61.8438 59.4093 61.8269 59.3768 61.8026 59.3502C61.7721 59.2864 61.7188 59.2363 61.6532 59.21C61.6106 59.1822 61.5626 59.1639 61.5124 59.1561C61.4621 59.1483 61.4108 59.1512 61.3619 59.1648Z" fill="#111C43"/>
<path d="M50.8 59.7844C50.6272 59.7626 50.5128 59.8659 50.5635 60.0364L50.797 60.2555L50.9616 60.3047C52.2053 60.4584 53.457 60.5372 54.7101 60.5406C54.7445 60.5514 54.7813 60.5522 54.8162 60.543C54.851 60.5339 54.8826 60.5151 54.9073 60.4888C54.932 60.4625 54.9488 60.4298 54.9557 60.3944C54.9626 60.359 54.9595 60.3223 54.9465 60.2886C54.9271 60.2443 54.8989 60.2043 54.8635 60.1712C54.8282 60.1381 54.7866 60.1124 54.7411 60.0958C54.6777 60.0576 54.6049 60.038 54.531 60.039C53.2835 60.0267 52.0377 59.9417 50.8 59.7844V59.7844Z" fill="#111C43"/>
<path d="M23.7806 43.3367C23.6921 43.2872 23.5887 43.2711 23.4893 43.2915C23.4562 43.3021 23.4262 43.3205 23.4017 43.3452C23.3771 43.3698 23.3589 43.3999 23.3484 43.4331C23.338 43.4662 23.3356 43.5014 23.3415 43.5356C23.3474 43.5699 23.3614 43.6023 23.3824 43.63C24.0922 44.6882 24.8627 45.7044 25.69 46.6736L25.802 46.7787C25.8513 46.8107 25.9075 46.8306 25.966 46.8366C26.0244 46.8427 26.0835 46.8347 26.1383 46.8135C26.2346 46.7109 26.3222 46.6175 26.1716 46.4411C25.3641 45.4948 24.6125 44.5022 23.9207 43.4682C23.8832 43.4155 23.8356 43.3708 23.7806 43.3367V43.3367Z" fill="#111C43"/>
<path d="M17.7658 26.6168L6.91696 23.2972C6.1991 28.744 6.98084 34.2844 9.17801 39.3218L19.4043 38.7571C17.7319 34.9429 17.1641 30.7364 17.7658 26.6168V26.6168Z" fill="#111C43"/>
<path d="M35.0321 54.0737C34.9013 53.951 34.6941 53.9846 34.6158 54.0867C34.5982 54.1204 34.5877 54.1573 34.5847 54.1952C34.5818 54.233 34.5865 54.2711 34.5987 54.3071C34.6108 54.3431 34.6301 54.3763 34.6554 54.4047C34.6807 54.433 34.7115 54.456 34.7459 54.4721L35.8637 55.1527L35.9384 55.2228C37.0825 55.8754 38.2615 56.4906 39.4757 57.0685C39.6409 57.1358 39.83 57.1027 39.8709 56.9656C39.9118 56.8284 39.826 56.6952 39.669 56.6005C38.5109 56.0752 37.3499 55.4594 36.2333 54.815L36.1586 54.7449L35.0321 54.0737Z" fill="#111C43"/>
<path d="M70.0627 57.0599C66.709 59.5542 62.7357 61.0819 58.5738 61.4775L62.9703 70.642C68.5127 70.0937 73.8041 68.0633 78.2892 64.764L70.0627 57.0599Z" fill="#111C43"/>
<path d="M29.1455 51.5824L22.7633 57.3527C23.2302 57.791 23.7497 58.1732 24.2697 58.5736L24.3538 58.6525C24.4565 58.7489 24.5686 58.8541 24.6806 58.9593C26.7127 60.5051 28.8425 61.9179 31.0568 63.1888C32.8748 64.2508 34.747 65.2171 36.6657 66.0837L36.7778 66.1889L36.9891 66.2819C38.055 66.7558 39.1197 67.1934 40.2183 67.5576L42.2905 59.2865C39.8937 58.4052 37.5793 57.3138 35.3746 56.0249C33.1663 54.7385 31.0811 53.2514 29.1455 51.5824V51.5824Z" fill="#111C43"/>
<path style="mix-blend-mode:screen" d="M9.96063 14.7962C8.41797 17.3867 7.40172 20.2564 6.9701 23.241C6.2392 28.69 7.01826 34.2361 9.22239 39.2749C12.2314 46.2936 16.8739 52.4927 22.7628 57.3557C23.2204 57.7852 23.7492 58.1762 24.2693 58.5766L24.344 58.6467C24.4561 58.7519 24.5681 58.8571 24.6708 58.9535C26.7128 60.4926 28.8451 61.9079 31.0564 63.1918C32.8744 64.2538 34.7466 65.2201 36.6653 66.0867C36.6653 66.0867 36.7306 66.1481 36.7773 66.1919L36.9886 66.2849C38.0545 66.7588 39.1192 67.1965 40.2178 67.5606C47.4528 70.3724 55.2502 71.4289 62.9701 70.6433C68.5119 70.0925 73.8027 68.0624 78.289 64.7653C83.1729 61.0984 86.3996 55.6414 87.2598 49.5937C87.9837 44.1492 87.1986 38.6094 84.99 33.5784C81.9404 26.5299 77.2435 20.3153 71.2943 15.4572C68.74 13.2831 66.0016 11.3353 63.1099 9.6358C60.177 7.92879 57.1031 6.47654 53.9222 5.29503C46.7148 2.50238 38.9477 1.46336 31.2621 2.26373C25.7339 2.80039 20.4539 4.81814 15.9782 8.1044C13.5623 9.92903 11.5195 12.2007 9.96063 14.7962V14.7962Z" fill="url(#paint13_linear)"/>
<g style="mix-blend-mode:multiply">
<path style="mix-blend-mode:multiply" d="M6.91849 23.2956C6.20062 28.7423 6.98237 34.2827 9.17954 39.3202C12.183 46.3421 16.8263 52.5425 22.72 57.401C23.1869 57.8392 23.7064 58.2215 24.2264 58.6219L24.2918 58.6832C24.3945 58.7797 24.5066 58.8848 24.6187 58.99C26.6507 60.5359 28.7806 61.9487 30.9949 63.2196C31.6778 63.6148 32.3689 63.9827 33.06 64.3505C33.346 64.5136 33.6321 64.6768 33.9356 64.8213C34.8199 65.2827 35.7124 65.7167 36.6038 66.1145L36.7158 66.2197L36.9271 66.3127C37.993 66.7865 39.0577 67.2242 40.1563 67.5883C41.0914 67.9395 42.0342 68.2451 43.0026 68.5046C43.3138 68.6036 43.6243 68.6844 43.9261 68.7746C44.5752 68.9626 45.2063 69.1512 45.8455 69.3123C46.0918 69.368 46.3381 69.4237 46.5757 69.4887C47.2418 69.6399 47.9079 69.7912 48.5733 69.9243C48.8197 69.98 49.0748 70.0264 49.3205 70.064C50.1863 70.2271 51.0514 70.3721 51.9066 70.4902C51.9322 70.5062 51.9544 70.5271 51.972 70.5516C52.7904 70.6528 53.5803 70.7096 54.3981 70.7926C54.707 70.8192 55.0152 70.8277 55.3147 70.8455L57.0106 70.9101L57.9347 70.9174C58.5325 70.9168 59.1116 70.8987 59.7444 70.8607L60.5407 70.8358C61.3633 70.7829 62.2291 70.6652 62.9974 70.614C68.5279 70.0693 73.8094 68.0489 78.29 64.764L73.6859 72.8879C69.2086 76.1332 63.9498 78.1325 58.4459 78.6819C57.6338 78.7798 56.7855 78.8788 55.9893 78.9037L55.193 78.9287C54.6051 78.9561 54.0347 78.9649 53.3832 78.9853L52.4591 78.978C51.8881 78.9688 51.3166 78.9414 50.7544 78.9227L49.8373 78.8518L49.3837 78.8298L47.4946 78.6715L47.4293 78.6102C46.574 78.492 45.7089 78.347 44.8344 78.1933L44.0779 78.0449C43.4305 77.9112 42.7557 77.7692 42.0984 77.6087C41.852 77.553 41.6057 77.4973 41.3681 77.4323L40.9846 77.3356C40.4732 77.2067 39.9607 77.0416 39.4487 76.8946C38.9368 76.7476 38.8364 76.7235 38.5253 76.6246C37.5831 76.3371 36.6491 76.0221 35.6789 75.7083C35.1104 75.4906 34.5418 75.2729 33.9727 75.0371C33.4036 74.8013 32.981 74.6153 32.4848 74.3953L32.2642 74.2935L32.1614 74.1971C31.2608 73.7906 30.3683 73.3566 29.4752 72.9045C29.1897 72.7594 28.8944 72.5875 28.5996 72.4337C28.111 72.1682 27.6137 71.9121 27.1246 71.6285L26.5526 71.3022C24.3346 70.0291 22.2016 68.6133 20.167 67.0639C20.1025 66.9955 20.0339 66.9311 19.9616 66.8711L19.7748 66.6958C19.2985 66.2487 18.7709 65.8939 18.2678 65.4568C12.3233 60.6373 7.62916 54.4548 4.58426 47.4348C2.37398 42.3654 1.6061 36.7852 2.36527 31.3092C2.77241 28.5065 3.6997 25.8049 5.0994 23.3435L9.71277 15.2283C8.28205 17.7174 7.33404 20.4543 6.91849 23.2956V23.2956Z" fill="url(#paint14_linear)"/>
<path style="mix-blend-mode:multiply" d="M79.8151 63.4963L80.2268 63.0577C80.583 62.6782 80.9421 62.2956 81.3042 61.9099C81.418 61.7886 81.5231 61.6766 81.637 61.5553C82.0925 61.07 82.5129 60.6221 82.9095 59.9937L83.2073 59.6764C83.5892 59.1573 83.9525 58.6205 84.2877 58.0575L84.5283 57.6515L79.9149 65.7666L79.6924 66.1721L79.2094 66.93L78.612 67.7911L78.3054 68.1177C77.906 68.6555 77.5136 69.1298 77.0417 69.6699L76.7089 70.0245C76.3498 70.4071 75.9906 70.7897 75.6315 71.1723L75.2105 71.6021C75.1054 71.7141 75.0003 71.8261 74.9039 71.9288C74.5536 72.302 74.1191 72.5964 73.7034 72.9083L78.2888 64.7669C78.7757 64.4165 79.331 63.9372 79.8151 63.4963Z" fill="url(#paint15_linear)"/>
</g>
<g style="mix-blend-mode:soft-light">
<g style="mix-blend-mode:soft-light">
<path d="M15.9766 8.10287C13.9522 9.54893 12.1736 11.3111 10.7089 13.322C9.24262 15.3498 8.10984 17.5991 7.35337 19.9848C6.63329 22.3876 6.26765 24.8828 6.26799 27.3917C6.27037 29.9052 6.58785 32.4087 7.21302 34.8437C7.51417 36.0622 7.88221 37.2632 8.31547 38.4413C8.75184 39.6232 9.21391 40.7591 9.75771 41.9014C10.8607 44.1552 12.1477 46.3143 13.6056 48.3568C15.0545 50.3982 16.6544 52.3282 18.3918 54.1306C19.3256 55.0071 20.1602 55.8958 21.1186 56.6901C22.0769 57.4843 23.0563 58.3684 23.9493 59.1013L25.3887 60.2066L26.8741 61.3376C27.8839 62.0396 28.9194 62.6956 29.9723 63.3329C30.249 63.4872 30.4621 63.6346 30.7936 63.8053L31.6131 64.2235L33.2248 65.0516L34.8825 65.9055C35.4166 66.1786 35.9513 66.4698 36.5029 66.7243C36.7741 66.8618 37.0532 66.9831 37.3388 67.0876L38.1006 67.3989L39.5873 68.0045C40.6514 68.424 41.649 68.746 42.729 69.0926C44.8434 69.7477 46.9958 70.2732 49.1742 70.6661C53.5333 71.4845 57.9901 71.6442 62.3956 71.1398C66.8281 70.6887 71.1231 69.3465 75.0228 67.1938C78.9096 65.0851 82.1379 61.9437 84.3516 58.1158C81.995 61.7793 78.7082 64.7514 74.8267 66.729C70.9486 68.6795 66.73 69.8634 62.4023 70.2157C58.0866 70.5794 53.7409 70.3405 49.4903 69.5059C47.3643 69.1074 45.2658 68.5741 43.2074 67.9092C42.2004 67.5784 41.1199 67.2137 40.1743 66.8176L37.094 65.6641C36.8097 65.5553 36.5599 65.391 36.2838 65.2547L35.473 64.8272L33.8614 63.9991L32.2562 63.0893L31.4454 62.6618L30.6977 62.2232C29.6721 61.5941 28.6729 60.9371 27.6818 60.2525L26.2085 59.2208L24.7423 58.1254C23.7384 57.3236 22.8268 56.5732 21.8947 55.7509C20.9626 54.9287 20.1204 54.0855 19.2239 53.2441C17.5141 51.5018 15.9402 49.6313 14.5159 47.6489C13.0769 45.6799 11.8128 43.5888 10.738 41.3997C10.2053 40.3204 9.68893 39.1863 9.25429 38.0586C8.81966 36.931 8.42005 35.766 8.09284 34.5987C7.44077 32.2473 7.07734 29.8254 7.01057 27.3865C6.96361 24.9509 7.25779 22.521 7.88457 20.1674C9.22707 15.3856 12.0622 11.1587 15.9766 8.10287V8.10287Z" fill="#111C43"/>
</g>
</g>
</g>
</g>
<defs>
<filter id="filter0_f" x="39" y="86.9996" width="79.0642" height="69.5126" filterUnits="userSpaceOnUse" color-interpolation-filters="sRGB">
<feFlood flood-opacity="0" result="BackgroundImageFix"/>
<feBlend mode="normal" in="SourceGraphic" in2="BackgroundImageFix" result="shape"/>
<feGaussianBlur stdDeviation="1.5" result="effect1_foregroundBlur"/>
</filter>
<linearGradient id="paint0_linear" x1="41.3511" y1="136.891" x2="54.0873" y2="135.451" gradientUnits="userSpaceOnUse">
<stop stop-color="#ABACE7"/>
<stop offset="0.9375" stop-color="#5E5FB7"/>
</linearGradient>
<linearGradient id="paint1_linear" x1="106.368" y1="114.338" x2="112.605" y2="113.622" gradientUnits="userSpaceOnUse">
<stop stop-color="#ABACE7"/>
<stop offset="0.9375" stop-color="#5E5FB7"/>
</linearGradient>
<linearGradient id="paint2_linear" x1="36.0938" y1="149.933" x2="91.2709" y2="144.47" gradientUnits="userSpaceOnUse">
<stop stop-color="#ABACE7"/>
<stop offset="0.9375" stop-color="#5E5FB7"/>
</linearGradient>
<linearGradient id="paint3_linear" x1="70.8752" y1="138.663" x2="118.034" y2="133.586" gradientUnits="userSpaceOnUse">
<stop stop-color="#ABACE7"/>
<stop offset="0.9375" stop-color="#5E5FB7"/>
</linearGradient>
<linearGradient id="paint4_linear" x1="-40.8195" y1="132.14" x2="150.785" y2="112.203" gradientUnits="userSpaceOnUse">
<stop stop-color="#ABACE7"/>
<stop offset="0.9375" stop-color="#5E5FB7"/>
</linearGradient>
<linearGradient id="paint5_linear" x1="16.4285" y1="99.6455" x2="130.394" y2="120.09" gradientUnits="userSpaceOnUse">
<stop stop-color="white"/>
<stop offset="0.572917"/>
</linearGradient>
<linearGradient id="paint6_linear" x1="101.159" y1="127.958" x2="16.6556" y2="154.843" gradientUnits="userSpaceOnUse">
<stop stop-color="white"/>
<stop offset="0.14" stop-color="#FBFBFB"/>
<stop offset="0.29" stop-color="#EEEEED"/>
<stop offset="0.45" stop-color="#D9D9D7"/>
<stop offset="0.62" stop-color="#BBBCB9"/>
<stop offset="0.79" stop-color="#949691"/>
<stop offset="0.95" stop-color="#666861"/>
<stop offset="1" stop-color="#585A53"/>
</linearGradient>
<linearGradient id="paint7_linear" x1="474.514" y1="640.42" x2="1188.44" y2="1168.1" gradientUnits="userSpaceOnUse">
<stop stop-color="white"/>
<stop offset="0.14" stop-color="#FBFBFB"/>
<stop offset="0.29" stop-color="#EEEEED"/>
<stop offset="0.45" stop-color="#D9D9D7"/>
<stop offset="0.62" stop-color="#BBBCB9"/>
<stop offset="0.79" stop-color="#949691"/>
<stop offset="0.95" stop-color="#666861"/>
<stop offset="1" stop-color="#585A53" stop-opacity="0.5"/>
</linearGradient>
<linearGradient id="paint8_linear" x1="-1.46861" y1="16.2258" x2="10.6529" y2="27.673" gradientUnits="userSpaceOnUse">
<stop stop-color="#ABACE7"/>
<stop offset="0.9375" stop-color="#5E5FB7"/>
</linearGradient>
<linearGradient id="paint9_linear" x1="75.5179" y1="61.9007" x2="81.4646" y2="67.4974" gradientUnits="userSpaceOnUse">
<stop stop-color="#ABACE7"/>
<stop offset="0.9375" stop-color="#5E5FB7"/>
</linearGradient>
<linearGradient id="paint10_linear" x1="-18.8392" y1="21.9452" x2="32.9033" y2="72.1902" gradientUnits="userSpaceOnUse">
<stop stop-color="#ABACE7"/>
<stop offset="0.9375" stop-color="#5E5FB7"/>
</linearGradient>
<linearGradient id="paint11_linear" x1="21.5549" y1="47.0482" x2="66.1841" y2="89.6489" gradientUnits="userSpaceOnUse">
<stop stop-color="#ABACE7"/>
<stop offset="0.9375" stop-color="#5E5FB7"/>
</linearGradient>
<linearGradient id="paint12_linear" x1="-65.715" y1="-69.4206" x2="114.925" y2="104.244" gradientUnits="userSpaceOnUse">
<stop stop-color="#ABACE7"/>
<stop offset="0.9375" stop-color="#5E5FB7"/>
</linearGradient>
<linearGradient id="paint13_linear" x1="14.6265" y1="-39.8042" x2="89.9703" y2="90.6058" gradientUnits="userSpaceOnUse">
<stop stop-color="white"/>
<stop offset="0.572917"/>
</linearGradient>
<linearGradient id="paint14_linear" x1="57.6125" y1="68.1572" x2="-40.033" y2="6.75147" gradientUnits="userSpaceOnUse">
<stop stop-color="white"/>
<stop offset="0.14" stop-color="#FBFBFB"/>
<stop offset="0.29" stop-color="#EEEEED"/>
<stop offset="0.45" stop-color="#D9D9D7"/>
<stop offset="0.62" stop-color="#BBBCB9"/>
<stop offset="0.79" stop-color="#949691"/>
<stop offset="0.95" stop-color="#666861"/>
<stop offset="1" stop-color="#585A53"/>
</linearGradient>
<linearGradient id="paint15_linear" x1="-138.241" y1="869.318" x2="-63.3587" y2="2021.68" gradientUnits="userSpaceOnUse">
<stop stop-color="white"/>
<stop offset="0.14" stop-color="#FBFBFB"/>
<stop offset="0.29" stop-color="#EEEEED"/>
<stop offset="0.45" stop-color="#D9D9D7"/>
<stop offset="0.62" stop-color="#BBBCB9"/>
<stop offset="0.79" stop-color="#949691"/>
<stop offset="0.95" stop-color="#666861"/>
<stop offset="1" stop-color="#585A53" stop-opacity="0.5"/>
</linearGradient>
<clipPath id="clip0">
<rect width="115" height="154" fill="white"/>
</clipPath>
<clipPath id="clip1">
<rect width="56.1529" height="67.0325" fill="white" transform="matrix(0.115389 0.99332 0.99332 -0.115389 42 97.7344)"/>
</clipPath>
<clipPath id="clip2">
<rect width="73.0422" height="87.1942" fill="white" transform="matrix(-0.684378 0.729127 0.729127 0.684378 37.9883 -16)"/>
</clipPath>
</defs>
</svg>
