<svg width="16" height="16" viewBox="0 0 16 16" fill="none" xmlns="http://www.w3.org/2000/svg">
<path d="M13.8271 6.74271C13.5014 5.16408 12.5789 3.78223 11.2617 2.89997C10.63 2.47507 9.9252 2.17742 9.18495 2.02292C9.10066 2.00538 9.01515 1.99034 8.92964 1.97781L8.85023 1.96529L8.66455 1.94148L8.57415 1.93521C8.49597 1.9277 8.41656 1.92143 8.33716 1.91767H8.31028C8.21378 1.91767 8.11605 1.91016 8.01832 1.91016C7.92059 1.91016 7.81065 1.91016 7.70925 1.91893H7.6836C7.59931 1.91893 7.51502 1.93146 7.43073 1.94023L7.34155 1.95025C7.2768 1.95777 7.21084 1.96654 7.14609 1.97656L7.0618 1.98909C6.97262 2.00413 6.88345 2.02041 6.79427 2.03921C5.83944 2.24775 4.94923 2.6938 4.20196 3.3381C3.45469 3.9824 2.87327 4.8052 2.50887 5.7341C2.07056 6.85031 1.96636 8.07513 2.20958 9.25233C2.2894 9.64349 2.40727 10.0255 2.5614 10.3925C2.70489 10.7361 2.8791 11.0654 3.0818 11.376C3.74836 12.3972 4.69936 13.1888 5.81087 13.6476C6.14956 13.7859 6.50004 13.8916 6.85779 13.9633C6.94086 13.9796 7.02637 13.9947 7.11189 14.0085L7.19129 14.0197C7.25359 14.0285 7.31345 14.0373 7.37697 14.0435L7.46127 14.0536C7.54067 14.0611 7.61885 14.0673 7.69826 14.0711C7.80454 14.0711 7.91082 14.0811 8.01832 14.0811C8.42865 14.0828 8.83804 14.0408 9.23993 13.9558C9.98186 13.7969 10.687 13.4927 11.3167 13.06C11.6406 12.8405 11.9426 12.5887 12.2182 12.3082C12.5083 12.0096 12.7678 11.6813 12.9927 11.3284C13.4071 10.6806 13.6974 9.95774 13.8478 9.19845C14.0049 8.39116 14.0008 7.55958 13.8356 6.75398L13.8271 6.74271ZM8.99927 1.9941L8.94552 1.98533L8.99927 1.9941ZM8.8087 1.96529L8.67554 1.94774L8.8087 1.96529ZM8.56438 1.93647C8.48864 1.92895 8.41412 1.92269 8.33838 1.91893C8.41534 1.92269 8.48986 1.93521 8.5656 1.93521L8.56438 1.93647ZM7.67993 1.91893C7.59931 1.91893 7.51868 1.9302 7.43561 1.93897C7.5199 1.93522 7.60053 1.92394 7.68116 1.91893H7.67993ZM7.32322 1.9515L7.18152 1.97155L7.32322 1.9515ZM7.03737 1.99285L6.98362 2.00413L7.03737 1.99285ZM7.03737 13.9997L7.09112 14.0097L7.03737 13.9997ZM7.22794 14.0298L7.36232 14.0473L7.22794 14.0298ZM7.47226 14.0586C7.548 14.0661 7.62252 14.0724 7.69826 14.0761C7.62007 14.0724 7.54556 14.0661 7.46982 14.0586H7.47226Z" fill="#FAD091"/>
<path d="M2.25393 10.53C2.09358 10.1432 1.97083 9.74115 1.88745 9.32967C1.85203 9.15676 1.82393 8.98135 1.80194 8.80469L0.318909 8.99012C0.345784 9.2098 0.380804 9.42656 0.423967 9.64039C0.528522 10.1518 0.682386 10.6512 0.883291 11.1314C0.919939 11.2203 0.959031 11.3068 1.00545 11.3932L2.34922 10.7405C2.31624 10.6716 2.28447 10.6014 2.25393 10.53Z" fill="#111C43"/>
<path d="M14.5101 12.3616L13.2628 11.5234C13.027 11.8912 12.7552 12.2334 12.4517 12.5446C12.2882 12.7122 12.1157 12.8703 11.9349 13.0182L12.867 14.2122C13.5069 13.6886 14.0615 13.064 14.5101 12.3616Z" fill="#111C43"/>
<path d="M5.68842 13.9642C5.40376 13.848 5.12811 13.7098 4.86384 13.5508L4.11255 14.8726C4.44014 15.0691 4.7815 15.2404 5.13381 15.3851C5.54021 15.5523 5.95998 15.6831 6.3884 15.776L6.70114 14.28C6.35534 14.2048 6.01651 14.0992 5.68842 13.9642Z" fill="#111C43"/>
<path d="M13.7839 5.46776C13.9443 5.85579 14.0671 6.25909 14.1504 6.67183C14.1858 6.84473 14.2139 7.02014 14.2359 7.19806L15.7152 7.00761C15.6884 6.78835 15.6542 6.57159 15.6102 6.35734C15.5055 5.84561 15.3516 5.34576 15.1509 4.8651C15.1142 4.7774 15.0751 4.69094 15.0287 4.60449L13.6849 5.25602C13.7216 5.32618 13.7533 5.39634 13.7839 5.46776Z" fill="#111C43"/>
<path d="M10.3515 2.02707C10.634 2.14306 10.908 2.27999 11.1712 2.43678L11.9224 1.11494C11.2167 0.693604 10.4501 0.389951 9.65148 0.215332L9.33875 1.71133C9.68419 1.78792 10.0229 1.89352 10.3515 2.02707Z" fill="#111C43"/>
<path d="M15.719 7.00786L14.2397 7.1983C14.2177 7.02039 14.1896 6.84498 14.1541 6.67082C14.0709 6.25809 13.9481 5.85478 13.7877 5.46675C13.7571 5.39534 13.7254 5.32517 13.6936 5.25501L15.0374 4.60349C14.6571 3.77289 14.1387 3.01652 13.5055 2.36826C13.1251 1.9791 12.7067 1.63104 12.257 1.32958C12.1483 1.25691 12.0371 1.18674 11.9247 1.11909L11.171 2.43717C10.9062 2.27874 10.6306 2.14014 10.3464 2.02245C10.0193 1.89086 9.68221 1.78694 9.33857 1.71172L9.6513 0.215724L9.53647 0.190665C8.50658 -0.0172158 7.44652 -0.0112513 6.41893 0.208206C5.4514 0.41731 4.53174 0.814084 3.7094 1.37719C3.52372 1.50248 3.34292 1.64156 3.17067 1.78439L4.10276 2.97844C3.92204 3.12586 3.74952 3.28356 3.58602 3.45079C3.27889 3.76567 3.00458 4.11252 2.76754 4.48571L2.77609 4.47318L1.52883 3.63372L1.51784 3.65001C1.23931 4.08763 1.00323 4.55218 0.812972 5.037C0.446395 5.97879 0.258167 6.98361 0.258362 7.99767C0.258486 8.32898 0.278477 8.65996 0.318221 8.98874L1.79759 8.7983C1.81958 8.97621 1.84767 9.15162 1.8831 9.32453C1.96617 9.73772 2.08892 10.1415 2.24958 10.5298C2.28012 10.6013 2.31188 10.6714 2.34364 10.7403L0.999877 11.3931C1.16356 11.749 1.35261 12.0919 1.56548 12.4193C2.14912 13.3131 2.90236 14.0771 3.78025 14.6658C3.88776 14.7384 3.99892 14.8086 4.11131 14.8763L4.8626 13.5544C5.46092 13.913 6.11319 14.167 6.79274 14.3062L6.6999 14.2849L6.38716 15.7809L6.50077 15.8059C7.50036 16.0118 8.52977 16.0129 9.52979 15.8093C10.5298 15.6057 11.4807 15.2013 12.3278 14.6194C12.5135 14.4941 12.6943 14.3563 12.8666 14.2135L11.9345 13.0194C12.1152 12.8716 12.2877 12.7134 12.4512 12.5458C12.7548 12.2346 13.0266 11.8925 13.2624 11.5247L14.5096 12.3629L14.5194 12.3466C14.7988 11.9086 15.0349 11.4431 15.2243 10.9571C15.4022 10.5034 15.538 10.0336 15.6298 9.55381C15.7292 9.04095 15.7791 8.51931 15.7789 7.99642C15.7787 7.66595 15.7587 7.33581 15.719 7.00786ZM13.6056 5.08085L13.5714 5.01445L13.6056 5.08085ZM13.3699 4.64984C13.3247 4.57467 13.2795 4.50075 13.2318 4.42808C13.2807 4.50075 13.3259 4.57467 13.3699 4.64984ZM13.492 4.86785L13.4309 4.7576L13.492 4.86785ZM4.53765 2.65017C4.46191 2.70154 4.38739 2.75541 4.3141 2.81054C4.38739 2.75541 4.46191 2.70154 4.53765 2.65017ZM1.7756 8.58279V8.61286V8.58279ZM1.75239 8.18812C1.75239 8.20441 1.75239 8.21944 1.75239 8.23573C1.75361 8.21944 1.75239 8.20065 1.75239 8.18812ZM1.7646 8.38232C1.7646 8.39736 1.7646 8.41239 1.7646 8.42743C1.7646 8.41239 1.7646 8.39736 1.7646 8.38232ZM2.43649 10.9157L2.46947 10.9822L2.43649 10.9157ZM2.66981 11.3468C2.71501 11.4219 2.76021 11.4959 2.80786 11.5685C2.75655 11.4959 2.71135 11.4219 2.66615 11.3468H2.66981ZM2.54765 11.1275C2.5672 11.1651 2.58797 11.2027 2.60996 11.239C2.5843 11.2077 2.56231 11.1651 2.54277 11.1275H2.54765ZM11.5045 13.3464C11.5802 13.2938 11.6547 13.2399 11.728 13.1848C11.6515 13.2399 11.5753 13.2938 11.4996 13.3464H11.5045ZM12.5868 11.0498C12.3808 11.3741 12.1425 11.6756 11.8758 11.9494C11.3844 12.4531 10.804 12.8562 10.1656 13.1372C9.8356 13.28 9.49271 13.3891 9.14189 13.463C8.77296 13.5448 8.39669 13.5868 8.01923 13.5882C7.66116 13.5882 7.30396 13.5521 6.95277 13.4805C6.62446 13.4132 6.30301 13.3147 5.99258 13.1861C4.97129 12.7659 4.09785 12.0387 3.48707 11.0999C2.888 10.182 2.56826 9.10226 2.56842 7.99767C2.5676 6.91259 2.87586 5.85089 3.45531 4.94303C4.04355 4.01812 4.885 3.29196 5.87409 2.85565C6.8859 2.41149 8.00509 2.29181 9.08447 2.51235C9.41311 2.58109 9.73463 2.68177 10.0447 2.81305C10.7303 3.09464 11.3536 3.51525 11.8771 4.04969C12.5111 4.69922 12.9791 5.49921 13.2395 6.3787C13.4999 7.25819 13.5447 8.19 13.3699 9.09148C13.3023 9.42964 13.2042 9.76059 13.0767 10.08C12.943 10.4191 12.7773 10.7439 12.5819 11.0498H12.5868ZM14.2641 7.38499V7.4113V7.38499ZM14.2739 7.57418C14.2739 7.58797 14.2739 7.603 14.2739 7.61678C14.2763 7.59924 14.2751 7.58421 14.2739 7.57418ZM14.2836 7.76588C14.2836 7.78092 14.2836 7.79595 14.2836 7.81099C14.2849 7.79219 14.2836 7.77716 14.2836 7.76212V7.76588Z" fill="url(#paint0_linear)"/>
<path d="M3.58673 3.45058C3.75023 3.28334 3.92275 3.12565 4.10347 2.97822L3.17138 1.78418C2.94849 1.96752 2.73523 2.16283 2.53248 2.3693C2.15701 2.75452 1.82094 3.17813 1.52954 3.63351L2.7768 4.47297C3.01208 4.10474 3.28347 3.76216 3.58673 3.45058Z" fill="#111C43"/>
<path d="M12.9213 6.93891C12.8537 6.60873 12.7538 6.28636 12.6233 5.97666C12.502 5.68643 12.3548 5.40834 12.1835 5.14597C11.8071 4.56854 11.3205 4.07539 10.753 3.69633C10.4782 3.5111 10.186 3.35454 9.88076 3.22899C9.5953 3.11082 9.29958 3.02062 8.99754 2.95961C8.67581 2.89317 8.34845 2.8596 8.02026 2.85938C7.67298 2.8596 7.32666 2.89655 6.98678 2.96963C6.36315 3.10396 5.77025 3.35911 5.23988 3.72139C4.67532 4.10837 4.19357 4.6093 3.82404 5.19358C3.64405 5.47561 3.49183 5.77528 3.3696 6.08818C3.25484 6.38102 3.16731 6.68432 3.10817 6.99404C2.90979 8.01115 3.01626 9.06602 3.41358 10.0199C3.93965 11.2721 4.92795 12.2596 6.16219 12.7663C6.67691 12.9792 7.22281 13.102 7.77716 13.1296C7.53507 13.117 7.2942 13.0864 7.05641 13.0382C6.7582 12.9772 6.46619 12.8879 6.18418 12.7713C5.88295 12.6463 5.59414 12.4919 5.32173 12.3102C5.03482 12.1178 4.76792 11.8957 4.52524 11.6474C4.29844 11.4109 4.09393 11.1529 3.91443 10.8769C3.7457 10.6173 3.60014 10.3426 3.47954 10.0562C3.02411 8.96807 2.95396 7.75087 3.28123 6.61529C3.6085 5.4797 4.3126 4.49722 5.27164 3.83791C5.52388 3.66413 5.79134 3.5148 6.07057 3.39187C6.36926 3.26035 6.67982 3.15921 6.99777 3.08991C7.33366 3.01787 7.67588 2.98134 8.01903 2.98091C8.34392 2.98132 8.66798 3.01448 8.98655 3.07989C9.28475 3.14082 9.57676 3.23017 9.85878 3.34676C10.1604 3.47098 10.4492 3.62542 10.7212 3.80784C11.5404 4.35655 12.1834 5.1411 12.5695 6.06312C12.6981 6.36923 12.7963 6.68782 12.8627 7.01409C13.0677 7.99536 12.9827 9.01705 12.6184 9.94845C12.4974 10.2554 12.3468 10.5492 12.1688 10.8255C11.9821 11.12 11.7659 11.3938 11.5238 11.6424C11.078 12.0996 10.5515 12.4657 9.97239 12.7212C9.67386 12.8529 9.36325 12.9536 9.04519 13.0219C8.70979 13.0945 8.36793 13.131 8.02514 13.1309C8.70258 13.1311 9.37298 12.99 9.99559 12.7162C10.9052 12.3161 11.6789 11.6486 12.2189 10.7979C12.3983 10.5154 12.5509 10.2158 12.6746 9.90335C12.7898 9.61056 12.8777 9.30726 12.9372 8.99748C13.002 8.66749 13.0347 8.33174 13.035 7.99513C13.0325 7.64 12.9944 7.28606 12.9213 6.93891Z" fill="#111C43"/>
<path d="M3.37194 4.89054C3.17374 5.20392 3.0056 5.53624 2.86986 5.88286C2.60974 6.55614 2.47547 7.2736 2.47406 7.99781C2.4739 9.1218 2.79776 10.2207 3.40493 11.1564C4.0266 12.112 4.91588 12.8519 5.95564 13.2789C6.2721 13.4073 6.59918 13.5063 6.93293 13.5746C7.2901 13.6478 7.65349 13.6843 8.01771 13.6836C8.76724 13.6839 9.50903 13.5283 10.1983 13.2263C10.5123 13.0887 10.813 12.9209 11.0962 12.7251C12.028 12.0882 12.7495 11.1765 13.1656 10.1103C13.2919 9.78607 13.3884 9.4505 13.4539 9.10791C13.7075 7.80632 13.509 6.45474 12.8927 5.28758C12.2764 4.12043 11.2812 3.21133 10.0798 2.71796C9.42373 2.45132 8.72463 2.31361 8.01894 2.31201C7.26917 2.31321 6.52725 2.46872 5.83715 2.76933C5.18682 3.05332 4.59582 3.46296 4.09635 3.9759C3.82491 4.25447 3.58216 4.56096 3.37194 4.89054ZM6.01306 3.18906C6.32072 3.05404 6.64073 2.95079 6.96835 2.88084C7.64258 2.73483 8.33867 2.73057 9.01455 2.86831C9.32184 2.93063 9.62284 3.02206 9.91365 3.14145C10.2255 3.26925 10.5239 3.42919 10.8042 3.61882C11.382 4.00381 11.8767 4.50612 12.2579 5.09477C12.4323 5.36336 12.5816 5.6482 12.7038 5.94551C12.9736 6.59573 13.1132 7.29493 13.1143 8.00157C13.1141 8.34481 13.0814 8.68723 13.0165 9.02396C12.9556 9.3391 12.8665 9.64779 12.7502 9.94612C12.6267 10.2654 12.472 10.571 12.2885 10.8583C11.824 11.585 11.1906 12.1818 10.4453 12.595C9.69997 13.0081 8.86615 13.2247 8.01894 13.225C7.34942 13.2262 6.68628 13.0916 6.06762 12.8291C5.44896 12.5665 4.88698 12.1812 4.41397 11.6952C4.17678 11.453 3.96396 11.1868 3.77874 10.9009C3.60411 10.6342 3.4548 10.351 3.33285 10.0551C3.06291 9.40452 2.92332 8.70487 2.92239 7.99781C2.92457 7.3322 3.0489 6.67295 3.28887 6.05452C3.41238 5.73527 3.5671 5.42966 3.75064 5.14238C3.9431 4.8389 4.16627 4.5571 4.41642 4.30167C4.65099 4.05868 4.90837 3.84003 5.18481 3.64889C5.44612 3.46914 5.72344 3.31518 6.01306 3.18906Z" fill="url(#paint1_linear)"/>
<path d="M12.1847 5.1457L12.5512 4.89511C12.3521 4.59043 12.1246 4.30635 11.8719 4.04688L11.5604 4.36637C11.7928 4.60465 12.0019 4.86567 12.1847 5.1457Z" fill="#FAD091"/>
<path d="M12.6239 5.97581L13.0295 5.7979C12.8971 5.48239 12.7369 5.18 12.5506 4.89453L12.1841 5.14512C12.3554 5.40749 12.5027 5.68558 12.6239 5.97581Z" fill="#111C43"/>
<path d="M12.9217 6.93704L13.3529 6.84433C13.2783 6.48524 13.1699 6.13444 13.0292 5.79688L12.6236 5.97479C12.7541 6.28449 12.854 6.60686 12.9217 6.93704Z" fill="#FAD091"/>
<path d="M11.5611 11.6315L11.8726 11.951C12.1393 11.6771 12.3775 11.3756 12.5836 11.0514L12.2171 10.8008C12.0268 11.1001 11.807 11.3784 11.5611 11.6315Z" fill="#111C43"/>
<path d="M3.36874 6.08711L2.9595 5.91797C2.83431 6.23685 2.73821 6.56695 2.67242 6.90403L3.10487 6.99298C3.1648 6.68317 3.25315 6.37987 3.36874 6.08711Z" fill="#111C43"/>
<path d="M3.11684 9.05762L2.68561 9.15033C2.75938 9.50948 2.8674 9.86032 3.00811 10.1978L3.41369 10.0199C3.28408 9.70993 3.18465 9.38761 3.11684 9.05762Z" fill="#FAD091"/>
<path d="M3.10837 6.99521L2.67592 6.90625C2.60615 7.26603 2.57097 7.63197 2.57086 7.9988H3.01186C3.0116 7.66182 3.04392 7.32564 3.10837 6.99521Z" fill="#FAD091"/>
<path d="M3.00991 7.99609H2.56891C2.57023 8.38365 2.61117 8.77 2.69107 9.14879L3.1223 9.05607C3.0488 8.70775 3.01113 8.35248 3.00991 7.99609Z" fill="#111C43"/>
<path d="M3.41394 10.0195L3.00836 10.1974C3.14046 10.5127 3.30077 10.8147 3.48723 11.0996L3.85371 10.849C3.68289 10.5867 3.53569 10.3091 3.41394 10.0195Z" fill="#111C43"/>
<path d="M4.47807 11.6289L4.16656 11.9484C4.4339 12.2215 4.7278 12.4659 5.04368 12.6776L5.288 12.3017C4.99621 12.1066 4.7248 11.8811 4.47807 11.6289Z" fill="#111C43"/>
<path d="M3.85336 10.8477L3.48688 11.0982C3.68597 11.4033 3.91344 11.6878 4.16609 11.9477L4.4776 11.6282C4.24523 11.3895 4.03616 11.1281 3.85336 10.8477Z" fill="#FAD091"/>
<path d="M5.28387 12.3003L5.03955 12.6762C5.33915 12.8765 5.65704 13.0464 5.98874 13.1836L6.16221 12.7664C5.85527 12.6409 5.56108 12.4848 5.28387 12.3003Z" fill="#FAD091"/>
<path d="M3.82467 5.19199L3.45819 4.94141C3.26263 5.2481 3.09692 5.57375 2.96344 5.91368L3.37268 6.08283C3.49435 5.77133 3.64575 5.47293 3.82467 5.19199Z" fill="#FAD091"/>
<path d="M8.01896 2.86121V2.41016C7.64134 2.41007 7.26472 2.44996 6.89508 2.52918L6.98548 2.97147C7.32536 2.89839 7.67169 2.86144 8.01896 2.86121Z" fill="#111C43"/>
<path d="M6.04686 3.27535L5.87339 2.85938C5.56577 2.99512 5.27095 3.15953 4.99261 3.35052L5.23694 3.7264C5.49256 3.5504 5.76373 3.39939 6.04686 3.27535Z" fill="#111C43"/>
<path d="M6.98721 2.96963L6.89681 2.52734C6.54661 2.60343 6.20454 2.71464 5.87555 2.85937L6.04902 3.27534C6.35097 3.14145 6.66528 3.03903 6.98721 2.96963Z" fill="#FAD091"/>
<path d="M4.47616 4.36637L4.16465 4.04688C3.89853 4.31988 3.6603 4.62005 3.45367 4.94272L3.82016 5.19331C4.01063 4.89534 4.23045 4.61824 4.47616 4.36637Z" fill="#111C43"/>
<path d="M5.23895 3.72646L4.99463 3.35059C4.69757 3.55473 4.42059 3.78803 4.1676 4.04721L4.47911 4.36671C4.71148 4.12845 4.96596 3.91401 5.23895 3.72646Z" fill="#FAD091"/>
<path d="M12.9224 6.94037C12.9936 7.28856 13.0296 7.64334 13.0299 7.9991H13.4697C13.4677 7.612 13.4268 7.22614 13.3475 6.84766L12.9224 6.94037Z" fill="#111C43"/>
<path d="M12.9322 9.00095L13.3646 9.08991C13.4345 8.72971 13.4697 8.36335 13.4697 7.99609H13.0299C13.0298 8.33354 12.9971 8.67014 12.9322 9.00095Z" fill="#FAD091"/>
<path d="M11.5605 4.36887L11.872 4.04937C11.6052 3.77455 11.3112 3.52891 10.9949 3.31641L10.7505 3.69229C11.0428 3.88824 11.3142 4.115 11.5605 4.36887Z" fill="#111C43"/>
<path d="M12.6666 9.90977L13.0746 10.0814C13.2021 9.76197 13.3002 9.43102 13.3678 9.09286L12.9353 9.00391C12.8739 9.3139 12.7839 9.61721 12.6666 9.90977Z" fill="#111C43"/>
<path d="M6.16229 12.7656L5.9986 13.1854C6.30902 13.314 6.63048 13.4125 6.95878 13.4798L7.04551 13.0363C6.74358 12.9742 6.44791 12.8836 6.16229 12.7656Z" fill="#111C43"/>
<path d="M10.753 3.6963L10.9973 3.32043C10.6968 3.11937 10.3776 2.9494 10.0444 2.81299L9.88074 3.23147C10.1859 3.35622 10.478 3.51194 10.753 3.6963Z" fill="#FAD091"/>
<path d="M9.88145 3.22897L10.0451 2.81299C9.73491 2.68386 9.4134 2.58527 9.08496 2.51855L8.99823 2.96209C9.30018 3.0223 9.59591 3.11165 9.88145 3.22897Z" fill="#111C43"/>
<path d="M12.2134 10.8049L12.5799 11.0555C12.7734 10.7481 12.937 10.422 13.0686 10.082L12.6605 9.91406C12.5394 10.2249 12.3897 10.5232 12.2134 10.8049Z" fill="#FAD091"/>
<path d="M8.01813 13.1348V13.5871C8.39559 13.5857 8.77186 13.5437 9.14078 13.4618L9.05038 13.0195C8.71117 13.0948 8.36519 13.1335 8.01813 13.1348Z" fill="#111C43"/>
<path d="M8.99663 2.96145L9.08337 2.51791C8.73258 2.44635 8.37579 2.41026 8.01813 2.41016V2.86121C8.34673 2.86135 8.6745 2.89493 8.99663 2.96145Z" fill="#FAD091"/>
<path d="M7.04041 13.0352L6.95367 13.4787C7.30487 13.5503 7.66207 13.5864 8.02014 13.5864V13.1341C7.69117 13.1345 7.36299 13.1013 7.04041 13.0352Z" fill="#FAD091"/>
<path d="M9.04938 13.0271L9.13978 13.4694C9.48995 13.3937 9.83201 13.2829 10.161 13.1386L9.98757 12.7227C9.68538 12.8556 9.37112 12.9576 9.04938 13.0271Z" fill="#FAD091"/>
<path d="M9.98969 12.7211L10.1632 13.137C10.4722 13.0011 10.7687 12.8367 11.0488 12.6459L10.8045 12.27C10.5468 12.4455 10.2741 12.5965 9.98969 12.7211Z" fill="#111C43"/>
<path d="M10.8052 12.2692L11.0496 12.645C11.3463 12.4405 11.6233 12.2072 11.8766 11.9484L11.5651 11.6289C11.3328 11.8672 11.0783 12.0817 10.8052 12.2692Z" fill="#FAD091"/>
<path d="M1.82867 9.01172C1.82867 9.02926 1.82867 9.0468 1.836 9.06434C1.83234 9.0468 1.83112 9.02926 1.82867 9.01172Z" fill="#FAD091"/>
<path d="M12.4513 12.5446C12.7549 12.2334 13.0266 11.8912 13.2624 11.5234C13.0266 11.8912 12.7549 12.2334 12.4513 12.5446Z" fill="#FAD091"/>
<path d="M6.1886 14.1479C6.35596 14.2006 6.52698 14.2457 6.70045 14.2833C6.52943 14.2457 6.35718 14.2006 6.1886 14.1479Z" fill="#FAD091"/>
<path d="M5.93829 14.0654L6.14352 14.1343L5.93829 14.0654Z" fill="#FAD091"/>
<path d="M3.15439 3.94092C3.01987 4.11089 2.89388 4.28778 2.77692 4.47091C2.89419 4.28464 3.02002 4.10798 3.15439 3.94092Z" fill="#111C43"/>
<path d="M3.36422 3.69141C3.29825 3.76533 3.23473 3.84301 3.17242 3.92069C3.23106 3.84426 3.29825 3.76658 3.36422 3.69141Z" fill="#111C43"/>
<path d="M1.10147 11.3418C1.06238 11.2566 1.02329 11.1714 0.98664 11.0912C0.788897 10.6178 0.637489 10.1255 0.534645 9.62148C0.490667 9.41099 0.456462 9.19674 0.430808 8.97998L0.31842 8.99502C0.345296 9.2147 0.380315 9.43145 0.423479 9.64529C0.528034 10.1567 0.681898 10.6561 0.882803 11.1363C0.919451 11.2252 0.958543 11.3117 1.00496 11.3981L1.10147 11.3418Z" fill="url(#paint2_linear)"/>
<path d="M1.10147 11.3418C1.06238 11.2566 1.02329 11.1714 0.98664 11.0912C0.788897 10.6178 0.637489 10.1255 0.534645 9.62148C0.490667 9.41099 0.456462 9.19674 0.430808 8.97998L0.31842 8.99502C0.345296 9.2147 0.380315 9.43145 0.423479 9.64529C0.528034 10.1567 0.681898 10.6561 0.882803 11.1363C0.919451 11.2252 0.958543 11.3117 1.00496 11.3981L1.10147 11.3418Z" fill="url(#paint3_linear)"/>
<path d="M13.4278 13.5462C13.2282 13.7501 13.0177 13.9425 12.7974 14.1225L12.8683 14.214C13.5082 13.6904 14.0628 13.0658 14.5113 12.3634L14.4161 12.3008C14.1292 12.7496 13.7981 13.167 13.4278 13.5462Z" fill="url(#paint4_linear)"/>
<path d="M13.4278 13.5462C13.2282 13.7501 13.0177 13.9425 12.7974 14.1225L12.8683 14.214C13.5082 13.6904 14.0628 13.0658 14.5113 12.3634L14.4161 12.3008C14.1292 12.7496 13.7981 13.167 13.4278 13.5462Z" fill="url(#paint5_linear)"/>
<path d="M5.17468 15.2824C4.82821 15.1404 4.4922 14.9729 4.16929 14.7812L4.11188 14.8815C4.43947 15.078 4.78083 15.2493 5.13314 15.3939C5.53953 15.5612 5.9593 15.692 6.38773 15.7849L6.41094 15.6721C5.98888 15.5782 5.57532 15.4478 5.17468 15.2824Z" fill="url(#paint6_linear)"/>
<path d="M5.17468 15.2824C4.82821 15.1404 4.4922 14.9729 4.16929 14.7812L4.11188 14.8815C4.43947 15.078 4.78083 15.2493 5.13314 15.3939C5.53953 15.5612 5.9593 15.692 6.38773 15.7849L6.41094 15.6721C5.98888 15.5782 5.57532 15.4478 5.17468 15.2824Z" fill="url(#paint7_linear)"/>
<path d="M15.0507 4.91146C15.2485 5.3848 15.3999 5.87711 15.5027 6.38115C15.5467 6.59164 15.5809 6.80589 15.6066 7.02265L15.719 7.00761C15.6921 6.78835 15.6579 6.57159 15.6139 6.35734C15.5092 5.8456 15.3553 5.34576 15.1546 4.8651C15.1179 4.7774 15.0788 4.69094 15.0324 4.60449L14.9298 4.65461C14.9762 4.73981 15.0141 4.82501 15.0507 4.91146Z" fill="url(#paint8_linear)"/>
<path d="M10.8623 0.715251C11.2093 0.855954 11.5454 1.02349 11.8677 1.21642L11.9251 1.11619C11.2183 0.694051 10.4505 0.389963 9.65047 0.215332L9.62604 0.329349C10.0481 0.421447 10.4617 0.550556 10.8623 0.715251Z" fill="url(#paint9_linear)"/>
<path d="M10.8623 0.715251C11.2093 0.855954 11.5454 1.02349 11.8677 1.21642L11.9251 1.11619C11.2183 0.694051 10.4505 0.389963 9.65047 0.215332L9.62604 0.329349C10.0481 0.421447 10.4617 0.550556 10.8623 0.715251Z" fill="url(#paint10_linear)"/>
<path d="M0.430608 8.97169C0.390861 8.64795 0.370869 8.32197 0.37075 7.99566C0.370941 7.4808 0.420037 6.96718 0.517343 6.46208C0.609064 5.99095 0.743202 5.52956 0.91803 5.08385C1.1051 4.60599 1.3375 4.14814 1.6119 3.71691L1.6229 3.70062L1.52883 3.63672L1.51784 3.65301C1.23931 4.09063 1.00323 4.55518 0.812972 5.04C0.447004 5.98023 0.258788 6.98328 0.258362 7.99566C0.258486 8.32696 0.278477 8.65795 0.318221 8.98673L0.430608 8.97169Z" fill="url(#paint11_linear)"/>
<path d="M4.16867 14.7741C4.0575 14.7077 3.94878 14.6388 3.84128 14.5674C2.97534 13.9867 2.23246 13.2328 1.65704 12.351C1.44742 12.0286 1.26162 11.6906 1.10121 11.3398L0.998596 11.39C1.16228 11.7458 1.35133 12.0888 1.5642 12.4161C2.14806 13.3105 2.90174 14.075 3.78019 14.6639C3.8877 14.7365 3.99886 14.8067 4.11125 14.8744L4.16867 14.7741Z" fill="url(#paint12_linear)"/>
<path d="M12.795 14.1211C12.624 14.2623 12.4473 14.3959 12.2648 14.522C11.455 15.0784 10.5484 15.4698 9.59441 15.6747C8.58188 15.8925 7.53691 15.8985 6.52207 15.6923L6.40968 15.6672L6.38647 15.78L6.50008 15.805C7.49968 16.0109 8.52908 16.012 9.52911 15.8084C10.5291 15.6048 11.48 15.2004 12.3272 14.6185C12.5128 14.4932 12.6936 14.3554 12.8659 14.2126L12.795 14.1211Z" fill="url(#paint13_linear)"/>
<path d="M15.7192 7.00781L15.6068 7.02285C15.6465 7.34618 15.6665 7.67174 15.6666 7.99763C15.6665 8.5125 15.6174 9.02612 15.5201 9.53122C15.3294 10.5139 14.9561 11.4497 14.4206 12.2877L14.4096 12.304L14.5049 12.3666L14.5147 12.3503C14.796 11.9113 15.0337 11.4446 15.2244 10.9571C15.4023 10.5034 15.5381 10.0336 15.63 9.55377C15.7293 9.0409 15.7792 8.51926 15.779 7.99638C15.7788 7.66591 15.7588 7.33577 15.7192 7.00781Z" fill="url(#paint14_linear)"/>
<path d="M11.8677 1.22133C11.9789 1.28773 12.0876 1.35664 12.1951 1.42806C13.3842 2.22058 14.3334 3.33859 14.9352 4.65561L15.0378 4.60549C14.6575 3.7749 14.1391 3.01853 13.5059 2.37027C13.1255 1.98111 12.7072 1.63305 12.2574 1.33159C12.1487 1.25892 12.0375 1.18875 11.9252 1.12109L11.8677 1.22133Z" fill="url(#paint15_linear)"/>
<path d="M3.24132 1.876C3.41357 1.73568 3.58948 1.60036 3.77272 1.47507C5.02968 0.614008 6.50749 0.15485 8.01903 0.155731C8.5211 0.156816 9.02188 0.208009 9.51428 0.308588L9.62667 0.333647L9.6511 0.21963L9.53627 0.194571C8.50638 -0.0133096 7.44632 -0.00734513 6.41872 0.212112C5.4512 0.421216 4.53154 0.817991 3.7092 1.3811C3.52352 1.50639 3.34272 1.64546 3.17047 1.7883L3.24132 1.876Z" fill="url(#paint16_linear)"/>
<path d="M3.24132 1.876C3.41357 1.73568 3.58948 1.60036 3.77272 1.47507C5.02968 0.614008 6.50749 0.15485 8.01903 0.155731C8.5211 0.156816 9.02188 0.208009 9.51428 0.308588L9.62667 0.333647L9.6511 0.21963L9.53627 0.194571C8.50638 -0.0133096 7.44632 -0.00734513 6.41872 0.212112C5.4512 0.421216 4.53154 0.817991 3.7092 1.3811C3.52352 1.50639 3.34272 1.64546 3.17047 1.7883L3.24132 1.876Z" fill="url(#paint17_linear)"/>
<path d="M2.61188 2.45199C2.81178 2.24803 3.0222 2.05522 3.24223 1.87439L3.17138 1.78418C2.94849 1.96752 2.73523 2.16283 2.53248 2.3693C2.15701 2.75452 1.82094 3.17813 1.52954 3.63351L1.6236 3.6974C1.9109 3.24889 2.24204 2.83159 2.61188 2.45199Z" fill="url(#paint18_linear)"/>
<path d="M2.61188 2.45199C2.81178 2.24803 3.0222 2.05522 3.24223 1.87439L3.17138 1.78418C2.94849 1.96752 2.73523 2.16283 2.53248 2.3693C2.15701 2.75452 1.82094 3.17813 1.52954 3.63351L1.6236 3.6974C1.9109 3.24889 2.24204 2.83159 2.61188 2.45199Z" fill="url(#paint19_linear)"/>
<path d="M9.35211 14.7073C9.35211 14.6431 9.37067 14.5804 9.40543 14.527C9.4402 14.4737 9.48961 14.4321 9.54743 14.4075C9.60524 14.383 9.66886 14.3765 9.73023 14.389C9.79161 14.4016 9.84798 14.4325 9.89223 14.4779C9.93648 14.5232 9.96661 14.5811 9.97882 14.644C9.99103 14.707 9.98477 14.7722 9.96082 14.8315C9.93687 14.8908 9.89632 14.9415 9.84429 14.9771C9.79226 15.0128 9.73108 15.0318 9.66851 15.0318C9.58459 15.0318 9.50412 14.9976 9.44478 14.9368C9.38545 14.8759 9.35211 14.7934 9.35211 14.7073Z" fill="#111C43"/>
<path d="M6.14417 1.28984C6.14417 1.22566 6.16272 1.16292 6.19749 1.10955C6.23226 1.05619 6.28167 1.0146 6.33948 0.990034C6.3973 0.965473 6.46091 0.959046 6.52229 0.971568C6.58366 0.984089 6.64004 1.015 6.68429 1.06038C6.72854 1.10576 6.75867 1.16358 6.77088 1.22653C6.78309 1.28948 6.77682 1.35473 6.75288 1.41403C6.72893 1.47332 6.68837 1.524 6.63634 1.55966C6.58431 1.59532 6.52314 1.61435 6.46056 1.61435C6.41897 1.61452 6.37775 1.60623 6.33929 1.58999C6.30083 1.57374 6.26589 1.54984 6.23648 1.51967C6.20707 1.48951 6.18377 1.45367 6.16792 1.41422C6.15208 1.37477 6.14401 1.3325 6.14417 1.28984Z" fill="#111C43"/>
<path d="M1.08386 6.78154C1.08387 6.7173 1.10245 6.65451 1.13727 6.60112C1.17209 6.54773 1.22158 6.50614 1.27947 6.48161C1.33735 6.45709 1.40103 6.45074 1.46244 6.46336C1.52385 6.47598 1.58022 6.50701 1.62442 6.55252C1.66862 6.59803 1.69866 6.65597 1.71073 6.719C1.7228 6.78203 1.71636 6.84732 1.69222 6.90659C1.66809 6.96586 1.62734 7.01646 1.57515 7.05197C1.52296 7.08747 1.46167 7.10629 1.39904 7.10604C1.35755 7.10604 1.31646 7.09764 1.27814 7.08132C1.23983 7.065 1.20503 7.04107 1.17574 7.01092C1.14646 6.98077 1.12327 6.94499 1.1075 6.90563C1.09174 6.86626 1.0837 6.82409 1.08386 6.78154Z" fill="#111C43"/>
<path d="M2.8443 12.7815C2.8443 12.7174 2.86286 12.6546 2.89762 12.6013C2.93239 12.5479 2.9818 12.5063 3.03962 12.4817C3.09743 12.4572 3.16105 12.4507 3.22242 12.4633C3.2838 12.4758 3.34017 12.5067 3.38442 12.5521C3.42867 12.5975 3.4588 12.6553 3.47101 12.7182C3.48322 12.7812 3.47695 12.8464 3.45301 12.9057C3.42906 12.965 3.38851 13.0157 3.33648 13.0514C3.28444 13.087 3.22327 13.106 3.1607 13.106C3.07678 13.106 2.99631 13.0719 2.93697 13.011C2.87763 12.9501 2.8443 12.8676 2.8443 12.7815Z" fill="#111C43"/>
<path d="M14.233 9.58623C14.233 9.52205 14.2515 9.45931 14.2863 9.40594C14.3211 9.35258 14.3705 9.31098 14.4283 9.28642C14.4861 9.26186 14.5497 9.25543 14.6111 9.26795C14.6725 9.28048 14.7288 9.31138 14.7731 9.35676C14.8173 9.40215 14.8475 9.45997 14.8597 9.52292C14.8719 9.58587 14.8656 9.65112 14.8417 9.71041C14.8177 9.76971 14.7772 9.82039 14.7251 9.85605C14.6731 9.8917 14.6119 9.91074 14.5494 9.91074C14.4655 9.91074 14.385 9.87655 14.3256 9.81569C14.2663 9.75483 14.233 9.67229 14.233 9.58623Z" fill="#111C43"/>
<path d="M12.6722 3.39824C12.6722 3.33406 12.6907 3.27132 12.7255 3.21795C12.7603 3.16459 12.8097 3.12299 12.8675 3.09843C12.9253 3.07387 12.9889 3.06744 13.0503 3.07997C13.1117 3.09249 13.1681 3.12339 13.2123 3.16878C13.2566 3.21416 13.2867 3.27198 13.2989 3.33493C13.3111 3.39788 13.3048 3.46313 13.2809 3.52242C13.2569 3.58172 13.2164 3.6324 13.1644 3.66806C13.1123 3.70371 13.0512 3.72275 12.9886 3.72275C12.947 3.72275 12.9059 3.71435 12.8675 3.69805C12.8291 3.68174 12.7942 3.65783 12.7649 3.6277C12.7355 3.59757 12.7122 3.56179 12.6963 3.52242C12.6804 3.48305 12.6722 3.44085 12.6722 3.39824Z" fill="#111C43"/>
<path d="M12.2157 10.8033C12.3955 10.5208 12.5473 10.2207 12.669 9.90741C12.7831 9.61433 12.8706 9.31109 12.9304 9.00154C12.9941 8.67141 13.0264 8.33572 13.0269 7.99919C13.0247 7.30476 12.8877 6.61772 12.6238 5.97821C12.5033 5.68783 12.3565 5.40971 12.1852 5.14752C12.1449 5.08488 12.1034 5.02223 12.063 4.96334L12.0215 4.90821C11.991 4.86561 11.958 4.82301 11.925 4.78292L11.8798 4.72528C11.8371 4.67266 11.7943 4.62129 11.7491 4.56992L11.7344 4.55238C11.6795 4.48973 11.622 4.42709 11.5646 4.3682C11.5072 4.30931 11.4425 4.24291 11.3753 4.18527L11.3594 4.17149C11.3069 4.12262 11.2519 4.07501 11.1969 4.02865L11.1383 3.98104C11.0943 3.94471 11.0503 3.91088 11.0064 3.87705L10.9477 3.8332C10.8854 3.78684 10.8256 3.74173 10.7596 3.69913C10.2244 3.34232 9.6278 3.09355 9.0017 2.96617C8.67983 2.90082 8.35253 2.86767 8.02441 2.86719C6.69597 2.8673 5.42185 3.40804 4.48175 4.3707C3.89359 4.97437 3.46113 5.71865 3.22335 6.53647C2.98556 7.35429 2.94993 8.21995 3.11966 9.05541C3.24967 9.69611 3.4985 10.3052 3.85262 10.8496C3.89293 10.9123 3.93447 10.9749 3.97478 11.0325C3.987 11.0513 4.00166 11.0701 4.0151 11.0889L4.1116 11.2142C4.12748 11.233 4.14214 11.2518 4.1568 11.2718C4.19956 11.3245 4.24231 11.3758 4.28751 11.4272C4.33271 11.4786 4.40967 11.5625 4.4732 11.6277C4.95392 12.1225 5.52909 12.5103 6.16268 12.7666C6.44843 12.8836 6.74409 12.9734 7.0459 13.0347C7.71002 13.1708 8.39422 13.1665 9.05667 13.0222C9.68154 12.8895 10.2755 12.6342 10.806 12.2704C11.0797 12.0828 11.335 11.8684 11.5683 11.6302C11.8113 11.3781 12.0282 11.101 12.2157 10.8033ZM12.0936 5.01596L12.0679 4.97712L12.0936 5.01596ZM11.9971 4.8819C11.9751 4.85058 11.9507 4.82051 11.9274 4.78918C11.9543 4.81675 11.9788 4.85058 12.0007 4.8819H11.9971ZM11.8688 4.71526C11.8285 4.66514 11.787 4.61503 11.7467 4.56741C11.7906 4.61503 11.8322 4.66514 11.8725 4.71526H11.8688ZM11.3509 4.16397C11.2995 4.11761 11.2482 4.07251 11.1957 4.02865C11.2519 4.07251 11.3032 4.11761 11.3545 4.16397H11.3509ZM11.1224 3.96476L11.0271 3.88958L11.1224 3.96476ZM10.927 3.8144L10.8891 3.78684L10.927 3.8144ZM3.94058 10.9787L3.96745 11.0175L3.94058 10.9787ZM4.03708 11.1127L4.10672 11.2054L4.03708 11.1127ZM4.15925 11.2794C4.19956 11.3295 4.24109 11.3796 4.28141 11.4285C4.2472 11.3796 4.20811 11.332 4.16535 11.2794H4.15925Z" fill="url(#paint20_linear)"/>
<path d="M12.8166 6.96324C12.6874 6.33659 12.4423 5.74115 12.0946 5.20914C11.9156 4.93509 11.711 4.67954 11.4838 4.4461C11.0141 3.96698 10.4559 3.58874 9.84195 3.3335C9.56093 3.21616 9.2697 3.12639 8.97217 3.06537C8.90254 3.05034 8.8329 3.03906 8.76205 3.02779L8.69608 3.01776L8.54338 2.99771L8.48353 2.99396C8.41878 2.98769 8.35281 2.98268 8.28807 2.97892H8.26486C8.18545 2.97892 8.10483 2.97266 8.02054 2.97266C7.93625 2.97266 7.84951 2.97266 7.76522 2.98017H7.74445C7.67482 2.98017 7.60397 2.9902 7.53556 2.99646L7.46226 3.00523C7.40729 3.0115 7.35354 3.01901 7.29979 3.02779L7.23138 3.03781C7.15686 3.05034 7.08234 3.06412 7.00905 3.07916C6.39807 3.21163 5.81751 3.46299 5.2988 3.81964C4.74762 4.19695 4.27677 4.68499 3.91472 5.25424C3.39404 6.07026 3.11642 7.02418 3.11579 7.99941C3.115 8.99352 3.40291 9.96534 3.94281 10.7909C4.12182 11.065 4.32638 11.3205 4.55362 11.554C4.79375 11.8007 5.05822 12.0211 5.34277 12.2118C5.86509 12.5627 6.44813 12.8077 7.06035 12.9335C7.12998 12.9472 7.19962 12.9598 7.27047 12.971L7.33644 12.9811C7.38774 12.9886 7.43905 12.9948 7.49036 12.9999L7.55999 13.0074C7.62474 13.0074 7.68948 13.0187 7.75545 13.0224C7.84218 13.0224 7.93014 13.0312 8.01931 13.0312C8.68294 13.0296 9.33942 12.8907 9.94945 12.6227C10.523 12.3694 11.0445 12.0068 11.4862 11.554C11.7259 11.3076 11.94 11.0363 12.1251 10.7446C12.3018 10.4682 12.4512 10.1744 12.571 9.86753C12.684 9.58128 12.7703 9.28468 12.8288 8.98171C12.8922 8.6579 12.9241 8.32844 12.9241 7.99816C12.9231 7.65031 12.8871 7.30349 12.8166 6.96324ZM8.82924 3.04282L8.78526 3.03405L8.82924 3.04282ZM8.67165 3.01776L8.56171 3.00398L8.67165 3.01776ZM8.47009 2.99396C8.40901 2.98769 8.34793 2.98268 8.28562 2.97892C8.34671 2.98268 8.40901 2.98769 8.47009 2.99396ZM7.44638 3.00774L7.32422 3.02277L7.44638 3.00774ZM7.21061 3.04157L7.16541 3.05034L7.21061 3.04157ZM7.21061 12.9573L7.25459 12.9648L7.21061 12.9573ZM7.3682 12.9823L7.47814 12.9961L7.3682 12.9823ZM7.56976 13.0061L7.75545 13.0199C7.6907 13.0161 7.6284 13.0124 7.56732 13.0061H7.56976Z" fill="url(#paint21_linear)"/>
<defs>
<linearGradient id="paint0_linear" x1="7.59533" y1="-4.33952" x2="17.9396" y2="8.37168" gradientUnits="userSpaceOnUse">
<stop stop-color="#FAD091"/>
<stop offset="1" stop-color="#EBB86C"/>
</linearGradient>
<linearGradient id="paint1_linear" x1="7.71532" y1="-0.815181" x2="15.1029" y2="8.26481" gradientUnits="userSpaceOnUse">
<stop stop-color="#FAD091"/>
<stop offset="1" stop-color="#EBB86C"/>
</linearGradient>
<linearGradient id="paint2_linear" x1="0.118993" y1="10.1505" x2="0.578925" y2="10.0177" gradientUnits="userSpaceOnUse">
<stop stop-color="#A9A5A6"/>
<stop offset="0.26" stop-color="#C9C6C7"/>
<stop offset="0.57" stop-color="#E6E5E5"/>
<stop offset="0.82" stop-color="#F8F8F8"/>
<stop offset="1" stop-color="white"/>
</linearGradient>
<linearGradient id="paint3_linear" x1="0.697488" y1="5.92706" x2="2.05365" y2="6.16762" gradientUnits="userSpaceOnUse">
<stop stop-color="#7C7ECE"/>
<stop offset="0.9375" stop-color="#38398E"/>
</linearGradient>
<linearGradient id="paint4_linear" x1="1920.61" y1="6450.04" x2="1911.13" y2="6440.8" gradientUnits="userSpaceOnUse">
<stop stop-color="#A9A5A6"/>
<stop offset="0.26" stop-color="#C9C6C7"/>
<stop offset="0.57" stop-color="#E6E5E5"/>
<stop offset="0.82" stop-color="#F8F8F8"/>
<stop offset="1" stop-color="white"/>
</linearGradient>
<linearGradient id="paint5_linear" x1="13.6271" y1="9.88533" x2="16.0946" y2="11.0962" gradientUnits="userSpaceOnUse">
<stop stop-color="#7C7ECE"/>
<stop offset="0.9375" stop-color="#38398E"/>
</linearGradient>
<linearGradient id="paint6_linear" x1="-1907.18" y1="3158.94" x2="-1903.75" y2="3150.25" gradientUnits="userSpaceOnUse">
<stop stop-color="#A9A5A6"/>
<stop offset="0.26" stop-color="#C9C6C7"/>
<stop offset="0.57" stop-color="#E6E5E5"/>
<stop offset="0.82" stop-color="#F8F8F8"/>
<stop offset="1" stop-color="white"/>
</linearGradient>
<linearGradient id="paint7_linear" x1="5.22483" y1="13.5142" x2="6.81998" y2="15.5159" gradientUnits="userSpaceOnUse">
<stop stop-color="#7C7ECE"/>
<stop offset="0.9375" stop-color="#38398E"/>
</linearGradient>
<linearGradient id="paint8_linear" x1="15.3118" y1="1.55157" x2="16.6779" y2="1.79578" gradientUnits="userSpaceOnUse">
<stop stop-color="#7C7ECE"/>
<stop offset="0.9375" stop-color="#38398E"/>
</linearGradient>
<linearGradient id="paint9_linear" x1="4448.73" y1="-6092.74" x2="4442.39" y2="-6077.81" gradientUnits="userSpaceOnUse">
<stop stop-color="#A9A5A6"/>
<stop offset="0.26" stop-color="#C9C6C7"/>
<stop offset="0.57" stop-color="#E6E5E5"/>
<stop offset="0.82" stop-color="#F8F8F8"/>
<stop offset="1" stop-color="white"/>
</linearGradient>
<linearGradient id="paint10_linear" x1="10.739" y1="-1.04855" x2="12.3293" y2="0.952036" gradientUnits="userSpaceOnUse">
<stop stop-color="#7C7ECE"/>
<stop offset="0.9375" stop-color="#38398E"/>
</linearGradient>
<linearGradient id="paint11_linear" x1="0.903415" y1="2.16547" x2="2.97225" y2="2.83064" gradientUnits="userSpaceOnUse">
<stop stop-color="#FAD091"/>
<stop offset="1" stop-color="#EBB86C"/>
</linearGradient>
<linearGradient id="paint12_linear" x1="2.49717" y1="10.3679" x2="4.82484" y2="12.9996" gradientUnits="userSpaceOnUse">
<stop stop-color="#FAD091"/>
<stop offset="1" stop-color="#EBB86C"/>
</linearGradient>
<linearGradient id="paint13_linear" x1="9.44947" y1="13.6153" x2="9.97251" y2="15.9382" gradientUnits="userSpaceOnUse">
<stop stop-color="#FAD091"/>
<stop offset="1" stop-color="#EBB86C"/>
</linearGradient>
<linearGradient id="paint14_linear" x1="15.057" y1="5.53415" x2="17.1325" y2="6.20276" gradientUnits="userSpaceOnUse">
<stop stop-color="#FAD091"/>
<stop offset="1" stop-color="#EBB86C"/>
</linearGradient>
<linearGradient id="paint15_linear" x1="13.3663" y1="0.149101" x2="15.694" y2="2.78082" gradientUnits="userSpaceOnUse">
<stop stop-color="#FAD091"/>
<stop offset="1" stop-color="#EBB86C"/>
</linearGradient>
<linearGradient id="paint16_linear" x1="2345.18" y1="13911.4" x2="2336.7" y2="13882" gradientUnits="userSpaceOnUse">
<stop stop-color="#FB0065"/>
<stop offset="0.5" stop-color="#F90063"/>
<stop offset="0.69" stop-color="#F3025C"/>
<stop offset="0.82" stop-color="#E80550"/>
<stop offset="0.92" stop-color="#D90940"/>
<stop offset="1" stop-color="#C80E2D"/>
</linearGradient>
<linearGradient id="paint17_linear" x1="6.23404" y1="-0.461116" x2="6.75368" y2="1.85481" gradientUnits="userSpaceOnUse">
<stop stop-color="#FAD091"/>
<stop offset="1" stop-color="#EBB86C"/>
</linearGradient>
<linearGradient id="paint18_linear" x1="-1233.76" y1="-7313.82" x2="-1222.88" y2="-7303.99" gradientUnits="userSpaceOnUse">
<stop stop-color="#A9A5A6"/>
<stop offset="0.26" stop-color="#C9C6C7"/>
<stop offset="0.57" stop-color="#E6E5E5"/>
<stop offset="0.82" stop-color="#F8F8F8"/>
<stop offset="1" stop-color="white"/>
</linearGradient>
<linearGradient id="paint19_linear" x1="2.35864" y1="-0.631268" x2="4.82509" y2="0.578207" gradientUnits="userSpaceOnUse">
<stop stop-color="#7C7ECE"/>
<stop offset="0.9375" stop-color="#38398E"/>
</linearGradient>
<linearGradient id="paint20_linear" x1="7.74749" y1="0.0438927" x2="14.4168" y2="8.24336" gradientUnits="userSpaceOnUse">
<stop stop-color="#FAD091"/>
<stop offset="1" stop-color="#EBB86C"/>
</linearGradient>
<linearGradient id="paint21_linear" x1="7.75243" y1="0.206562" x2="14.2868" y2="8.2389" gradientUnits="userSpaceOnUse">
<stop stop-color="#FAD091"/>
<stop offset="1" stop-color="#EBB86C"/>
</linearGradient>
</defs>
</svg>
