<svg width="423" height="423" viewBox="0 0 423 423" fill="none" xmlns="http://www.w3.org/2000/svg">
<path fill-rule="evenodd" clip-rule="evenodd" d="M211.5 422C327.756 422 422 327.756 422 211.5C422 95.2441 327.756 1 211.5 1C95.2441 1 1 95.2441 1 211.5C1 327.756 95.2441 422 211.5 422ZM211.5 423C328.308 423 423 328.308 423 211.5C423 94.6918 328.308 0 211.5 0C94.6918 0 0 94.6918 0 211.5C0 328.308 94.6918 423 211.5 423ZM374.276 217.165L373.277 217.134L372.277 217.103C372.329 215.418 372.355 213.727 372.355 212.029C372.355 210.331 372.329 208.64 372.277 206.955L373.277 206.924L374.276 206.893C374.329 208.599 374.355 210.311 374.355 212.029C374.355 213.747 374.329 215.459 374.276 217.165ZM373.091 191.571L372.098 191.694L371.106 191.818C370.687 188.451 370.164 185.117 369.542 181.818L370.524 181.633L371.507 181.447C372.137 184.787 372.666 188.162 373.091 191.571ZM367.947 166.496L366.986 166.773L366.026 167.051C365.086 163.798 364.048 160.587 362.914 157.422L363.855 157.085L364.797 156.747C365.945 159.952 366.996 163.202 367.947 166.496ZM358.934 142.539L358.028 142.964L357.123 143.389C355.687 140.327 354.157 137.318 352.538 134.365L353.415 133.884L354.292 133.403C355.931 136.393 357.48 139.439 358.934 142.539ZM346.278 120.289L345.45 120.85L344.622 121.41C342.727 118.613 340.746 115.879 338.684 113.211L339.475 112.599L340.266 111.987C342.354 114.688 344.359 117.457 346.278 120.289ZM330.307 100.281L329.577 100.964L328.846 101.647C326.541 99.1812 324.159 96.788 321.705 94.4713L322.391 93.7441L323.078 93.017C325.562 95.3622 327.973 97.7849 330.307 100.281ZM311.419 83.0022L310.804 83.7904L310.189 84.5787C307.53 82.5035 304.805 80.5102 302.017 78.6026L302.582 77.7773L303.146 76.952C305.969 78.8833 308.728 80.9013 311.419 83.0022ZM290.067 68.8811L289.582 69.756L289.098 70.6309C286.151 68.9996 283.148 67.4584 280.092 66.0109L280.521 65.1071L280.949 64.2034C284.043 65.669 287.083 67.2295 290.067 68.8811ZM266.761 58.2915L266.421 59.2318L266.08 60.1722C262.919 59.0282 259.711 57.9808 256.462 57.0335L256.741 56.0734L257.021 55.1134C260.312 56.0726 263.56 57.1332 266.761 58.2915ZM242.078 51.5205L241.891 52.5028L241.703 53.4851C238.406 52.8567 235.073 52.3293 231.708 51.9061L231.832 50.9139L231.957 49.9217C235.365 50.3502 238.739 50.8842 242.078 51.5205ZM216.636 48.7248L216.605 49.7243L216.574 50.7238C214.889 50.6715 213.198 50.6451 211.5 50.6451C209.803 50.6451 208.111 50.6715 206.427 50.7238L206.396 49.7243L206.364 48.7248C208.07 48.6718 209.782 48.6451 211.5 48.6451C213.218 48.6451 214.93 48.6718 216.636 48.7248ZM191.043 49.9217L191.168 50.9139L191.292 51.9061C187.927 52.3293 184.594 52.8567 181.297 53.4851L181.109 52.5028L180.922 51.5205C184.261 50.8842 187.635 50.3502 191.043 49.9217ZM165.979 55.1134L166.259 56.0735L166.539 57.0335C163.289 57.9808 160.081 59.0282 156.92 60.1722L156.58 59.2318L156.239 58.2915C159.44 57.1332 162.688 56.0726 165.979 55.1134ZM142.052 64.2034L142.48 65.1071L142.908 66.0109C139.852 67.4584 136.849 68.9996 133.902 70.6309L133.418 69.756L132.933 68.8812C135.917 67.2295 138.957 65.669 142.052 64.2034ZM119.854 76.952L120.418 77.7773L120.983 78.6026C118.195 80.5102 115.47 82.5035 112.811 84.5787L112.196 83.7904L111.581 83.0021C114.272 80.9013 117.031 78.8833 119.854 76.952ZM99.9223 93.017L100.609 93.7441L101.295 94.4713C98.8411 96.788 96.4595 99.1812 94.1542 101.647L93.4237 100.964L92.6932 100.281C95.0269 97.7849 97.4379 95.3622 99.9223 93.017ZM82.7343 111.987L83.5254 112.599L84.3166 113.211C82.2542 115.879 80.2734 118.613 78.3779 121.41L77.5501 120.85L76.7222 120.289C78.6411 117.457 80.6464 114.688 82.7343 111.987ZM68.708 133.403L69.5849 133.884L70.4617 134.365C68.8428 137.318 67.3134 140.327 65.8771 143.389L64.9717 142.964L64.0664 142.539C65.5206 139.439 67.069 136.393 68.708 133.403ZM58.2034 156.747L59.1447 157.085L60.0861 157.422C58.952 160.587 57.9137 163.798 56.9746 167.051L56.0139 166.773L55.0531 166.496C56.0038 163.202 57.0551 159.952 58.2034 156.747ZM51.4931 181.447L52.4758 181.633L53.4584 181.818C52.8358 185.117 52.3133 188.451 51.8941 191.818L50.9018 191.694L49.9094 191.571C50.3338 188.162 50.8628 184.787 51.4931 181.447ZM48.724 206.893C48.6715 208.599 48.6451 210.311 48.6451 212.029C48.6451 213.747 48.6715 215.459 48.724 217.165L49.7235 217.134L50.7231 217.103C50.6712 215.418 50.6451 213.727 50.6451 212.029C50.6451 210.331 50.6712 208.64 50.7231 206.955L49.7235 206.924L48.724 206.893ZM49.9095 232.487L50.9018 232.364L51.8941 232.24C52.3133 235.607 52.8358 238.941 53.4584 242.239L52.4758 242.425L51.4931 242.61C50.8628 239.271 50.3338 235.895 49.9095 232.487ZM55.0531 257.562L56.0139 257.284L56.9746 257.007C57.9137 260.26 58.952 263.471 60.0861 266.636L59.1447 266.973L58.2034 267.311C57.0551 264.106 56.0038 260.855 55.0531 257.562ZM64.0664 281.519L64.9718 281.094L65.8771 280.669C67.3134 283.731 68.8428 286.74 70.4617 289.693L69.5849 290.174L68.708 290.655C67.069 287.665 65.5206 284.618 64.0664 281.519ZM76.7222 303.769L77.5501 303.208L78.3779 302.647C80.2734 305.445 82.2542 308.179 84.3166 310.847L83.5254 311.459L82.7343 312.07C80.6464 309.369 78.6411 306.601 76.7222 303.769ZM92.6932 323.776L93.4237 323.094L94.1542 322.411C96.4594 324.877 98.8411 327.27 101.295 329.586L100.609 330.314L99.9223 331.041C97.4379 328.695 95.0269 326.273 92.6932 323.776ZM111.581 341.056L112.196 340.267L112.811 339.479C115.47 341.554 118.195 343.547 120.983 345.455L120.418 346.28L119.854 347.106C117.031 345.174 114.272 343.156 111.581 341.056ZM132.933 355.177L133.418 354.302L133.902 353.427C136.849 355.058 139.852 356.599 142.908 358.047L142.48 358.951L142.052 359.854C138.958 358.389 135.917 356.828 132.933 355.177ZM156.239 365.766L156.58 364.826L156.92 363.886C160.081 365.03 163.289 366.077 166.539 367.024L166.259 367.984L165.979 368.944C162.688 367.985 159.44 366.925 156.239 365.766ZM180.922 372.537L181.11 371.555L181.297 370.573C184.594 371.201 187.927 371.728 191.292 372.152L191.168 373.144L191.043 374.136C187.636 373.708 184.261 373.174 180.922 372.537ZM206.365 375.333L206.396 374.333L206.427 373.334C208.111 373.386 209.803 373.413 211.5 373.413C213.198 373.413 214.889 373.386 216.574 373.334L216.605 374.333L216.636 375.333C214.93 375.386 213.218 375.413 211.5 375.413C209.782 375.413 208.07 375.386 206.365 375.333ZM231.957 374.136L231.833 373.144L231.708 372.152C235.073 371.728 238.406 371.201 241.704 370.573L241.891 371.555L242.078 372.537C238.739 373.174 235.365 373.708 231.957 374.136ZM257.021 368.944L256.742 367.984L256.462 367.024C259.712 366.077 262.919 365.029 266.08 363.886L266.421 364.826L266.761 365.766C263.56 366.924 260.312 367.985 257.021 368.944ZM280.949 359.854L280.521 358.951L280.092 358.047C283.148 356.599 286.151 355.058 289.098 353.427L289.582 354.302L290.067 355.177C287.083 356.828 284.043 358.389 280.949 359.854ZM303.146 347.106L302.582 346.28L302.017 345.455C304.805 343.547 307.53 341.554 310.189 339.479L310.804 340.267L311.419 341.056C308.728 343.156 305.969 345.174 303.146 347.106ZM323.078 331.041L322.391 330.314L321.705 329.586C324.159 327.27 326.541 324.877 328.846 322.411L329.577 323.094L330.307 323.776C327.973 326.273 325.562 328.695 323.078 331.041ZM340.266 312.07L339.475 311.459L338.684 310.847C340.746 308.179 342.727 305.445 344.622 302.647L345.45 303.208L346.278 303.769C344.359 306.601 342.354 309.369 340.266 312.07ZM354.292 290.655L353.415 290.174L352.538 289.693C354.157 286.74 355.687 283.731 357.123 280.669L358.028 281.094L358.934 281.518C357.48 284.618 355.931 287.665 354.292 290.655ZM364.797 267.31L363.855 266.973L362.914 266.636C364.048 263.471 365.086 260.26 366.026 257.007L366.986 257.284L367.947 257.562C366.996 260.855 365.945 264.106 364.797 267.31ZM371.507 242.61L370.524 242.425L369.542 242.239C370.164 238.941 370.687 235.607 371.106 232.24L372.098 232.364L373.091 232.487C372.666 235.895 372.137 239.271 371.507 242.61ZM324.711 211.499C324.711 274.023 274.025 324.709 211.501 324.709C148.977 324.709 98.291 274.023 98.291 211.499C98.291 148.975 148.977 98.2891 211.501 98.2891C274.025 98.2891 324.711 148.975 324.711 211.499ZM325.711 211.499C325.711 274.576 274.577 325.709 211.501 325.709C148.425 325.709 97.291 274.576 97.291 211.499C97.291 148.423 148.425 97.2891 211.501 97.2891C274.577 97.2891 325.711 148.423 325.711 211.499Z" fill="url(#paint0_radial)"/>
<defs>
<radialGradient id="paint0_radial" cx="0" cy="0" r="1" gradientUnits="userSpaceOnUse" gradientTransform="translate(-11.1038 447.323) rotate(-46.6981) scale(517.307)">
<stop stop-color="#7C7ECE"/>
<stop offset="1" stop-color="#38398E"/>
</radialGradient>
</defs>
</svg>
