<svg width="76" height="51" viewBox="0 0 76 51" fill="none" xmlns="http://www.w3.org/2000/svg">
<path d="M37.5363 17.7901L18.5918 5.46429V30.8757H21.3491V10.5508L25.1757 13.0413V30.8757H27.933V14.8353L37.5363 21.0932L47.15 14.8353V30.8757H49.8968V13.0413L53.734 10.5508V30.8757H56.4912V5.46429L37.5363 17.7901Z" fill="white"/>
<path d="M5.42773 36.1284H8.30033L10.6173 39.9169L12.9133 36.1284H15.7649V45.9215H13.081V40.2651L10.5963 44.0958H10.5439L8.06969 40.3495V45.9426H5.42773V36.1284Z" fill="white"/>
<path d="M20.8772 36.0302H23.4667L27.6603 45.8866H24.6933L24.0223 44.1348H20.2272L19.5352 45.8866H16.6836L20.8772 36.0302ZM23.2361 42.0242L22.1877 39.2382L21.1393 42.0242H23.2361Z" fill="white"/>
<path d="M28.5195 36.1284H32.2728C35.743 36.1284 37.7559 38.144 37.7559 40.9721C37.7559 43.8003 35.722 45.9004 32.2204 45.9004H28.5195V36.1284ZM32.3147 43.5154C32.6586 43.5585 33.0077 43.5258 33.3378 43.4196C33.668 43.3134 33.9712 43.1362 34.2265 42.9003C34.4818 42.6643 34.6831 42.3754 34.8164 42.0534C34.9497 41.7314 35.0119 41.3841 34.9986 41.0355C35.0103 40.6877 34.947 40.3416 34.813 40.0209C34.679 39.7002 34.4775 39.4126 34.2224 39.1778C33.9672 38.9431 33.6646 38.7668 33.3352 38.6612C33.0059 38.5556 32.6577 38.5232 32.3147 38.5661H31.2663V43.5154H32.3147Z" fill="white"/>
<path d="M39.1504 36.1284H42.002L44.319 39.9169L46.6359 36.1284H49.4875V45.9215H46.8037V40.2651L44.319 44.0958L41.8448 40.3495V45.9426H39.1504V36.1284Z" fill="white"/>
<path d="M51.2109 36.1284H59.032V38.4394H53.8843V39.9169H58.5497V42.0274H53.8843V43.5787H59.1263V45.8898H51.2109V36.1284Z" fill="white"/>
<path d="M60.4766 36.1284H62.9927L67.008 41.2676V36.1284H69.6814V45.9215H67.2911L63.0975 40.55V45.9215H60.4766V36.1284Z" fill="white"/>
</svg>
