<svg width="398" height="247" viewBox="0 0 398 247" fill="none" xmlns="http://www.w3.org/2000/svg">
<path d="M163.089 102.538V103.779L159.47 104.277L158.061 106.013L156.454 106.263L156.053 105.767L156.255 104.527L157.06 103.782H158.668L160.679 102.542H163.089V102.538ZM133.738 74.5231L134.743 76.2591L135.747 76.7515L136.148 78.2413L137.155 78.9861V81.467L138.561 81.7163L139.969 83.1998L140.171 85.1851L137.155 87.1704H133.334L132.327 88.4108H131.525L131.123 89.1525L131.525 90.1436L128.711 92.1289L127.504 93.8649L121.675 97.0843L121.072 98.0785L121.274 100.061L122.48 102.788L123.487 103.533L133.337 102.289L136.754 101.298L137.357 100.556L140.575 99.562L141.984 98.571L142.786 99.3158L142.584 100.307L143.591 101.794H144.997L145.199 101.049L147.008 100.058L148.414 101.794L150.425 101.544L151.834 102.535H152.639L153.242 101.544L153.643 102.043H155.453V103.034L154.044 104.274L155.652 106.01L154.044 108.488L154.846 108.987L155.049 110.47L154.445 111.215H152.636L151.429 110.224L150.223 110.47V111.464L151.429 111.957L151.028 113.693L149.822 115.179L149.017 117.657L147.409 118.156L147.008 119.396L145.6 120.138L145.401 122.123L147.008 122.373L148.818 121.378H150.024L150.425 120.387L151.632 120.138L152.235 119.396L155.453 118.651L156.056 117.411L157.464 117.91L157.262 118.651H159.675L159.877 117.91L161.083 118.651L161.485 117.66L163.095 118.159L163.496 117.91V115.924L164.703 115.432H167.317L167.718 114.687L169.124 114.441L169.528 112.209L171.742 110.473L173.551 109.981L175.159 108.741H178.977L179.179 109.981L176.365 109.732V111.96L174.96 114.441L175.361 117.168L173.551 119.895L172.746 123.114H173.349L173.75 121.378L174.957 119.646L175.56 119.15H177.167L178.775 117.168L179.58 116.919L180.786 113.945L181.794 113.696L182.397 114.441L184.007 114.191L186.824 116.42H189.436L190.241 117.906L191.444 118.648L190.841 120.135L192.452 121.129L193.257 123.607L195.067 123.111L194.463 122.619L194.666 120.387L196.273 120.138L197.479 122.619V126.583L198.285 126.829L198.686 125.592L199.491 125.346L199.895 127.574L201.102 129.061L208.34 130.547L208.539 129.803L211.757 128.316L213.563 129.556L216.579 130.301L216.983 130.794L216.781 132.53L218.793 133.275L219.194 134.266H220.801L221.806 135.007L221.252 137.286L219.051 138.641L218.059 140.539L219.71 141.082L220.26 146.645L219.38 147.867H214.757L212.335 150.986L208.703 151.123L206.723 149.631L204.742 148.951L203.091 149.088L202.541 150.986H201.991L198.91 147.595L194.949 147.187L192.638 148.68L192.968 153.564L192.526 156.955L191.867 158.31L188.457 158.719L185.263 157.497L184.604 157.768L182.073 161.022L181.965 164.276L181.194 164.413L176.791 160.617L168.645 161.293L167.544 161.972L163.471 169.159L163.362 171.057L164.134 171.871L164.575 173.906L166.888 176.754L166.229 182.991L167.442 185.568L167.551 189.769L168.981 191.668V192.618L164.578 196.548L162.818 197.496L161.388 197.767L159.628 196.548L156.435 196.685L155.555 199.802L154.125 201.834L153.354 205.088L150.052 208.747L149.943 210.916L149.244 211.792L146.834 211.542L145.83 210.554L143.417 210.804L140.401 208.326L139.394 206.347L136.378 205.602L134.164 202.878L129.743 199.911L128.335 196.691L127.128 195.704L126.727 194.217L125.925 193.472L123.913 193.229L122.505 192.235L122.906 191.742H122.303V191.247L123.711 189.76L118.886 189.511L114.866 186.787L114.262 184.808L112.453 183.321L110.441 180.597L111.243 175.645L109.232 169.452L107.021 167.966L105.212 165.242V163.509L106.418 162.272L106.62 160.785L105.013 158.31V156.577L109.235 157.569L114.06 157.319L113.858 156.328L112.652 156.079L112.049 154.592L112.45 154.097L112.248 153.106L110.438 152.114L110.236 150.877L108.629 150.628L108.025 147.405L108.629 142.949L109.434 141.954H111.442L112.848 142.204L114.657 144.681H115.463L115.665 143.94L116.268 144.189L115.867 142.453L116.268 139.729L113.252 139.978L112.649 137.747L112.851 137.005L117.073 137.254L117.474 136.51H116.069L115.668 135.518V134.032L117.076 133.29L116.675 132.296L113.457 132.791L112.049 131.305L112.45 130.809L112.049 130.317L110.239 129.572L106.418 129.08L105.212 126.353L105.613 123.875L107.621 122.638H110.637V119.91L112.043 118.916V116.934L114.455 115.447V114.703H113.05L112.248 113.961L112.649 111.976L111.645 110.243H112.851L113.053 109.498L110.441 108.257L110.04 107.017L110.441 106.275H111.648L112.049 105.032L111.243 103.791L110.842 101.314L105.616 101.064L103.806 102.305H101.593L99.183 101.064L98.1756 99.0821L99.382 97.8417L99.7831 95.6071L100.79 93.6249L102.196 92.3845H104.41L106.418 88.6632H107.425L107.624 89.1619L108.43 88.9126L108.831 87.1797L104.41 85.6931L105.013 82.4674L106.219 82.2181L106.017 83.4585L105.414 83.9571L106.216 84.9482L109.835 84.4558L112.248 85.6962H113.454L114.057 84.9513L115.466 84.702L118.28 85.9424L117.676 84.702L118.077 83.9603H120.49L121.895 85.2007L122.499 80.9839H124.712L125.316 81.2332L125.717 82.723H127.523L128.328 80.4883L131.546 80.7377L131.748 80.2452L129.74 79.251L129.538 76.7733L130.545 75.7822L133.157 76.7733L132.955 75.0374L133.738 74.5231Z" fill="url(#paint0_linear)"/>
<path d="M221.793 135.007L223.202 135.256L224.408 136.989L222.801 138.479L223.003 139.221L224.007 138.971L224.809 139.467L225.813 138.725L226.619 139.467L225.412 140.458V142.194H226.218L226.016 145.909L224.206 146.158V146.903L225.011 147.146V148.14L226.218 149.132H227.222L228.027 148.633V146.405L228.63 146.158L231.848 147.396L233.857 149.132L235.265 149.627L235.063 152.105L236.873 152.847L237.678 155.078L240.492 156.066L240.694 157.057L239.285 158.048H237.877L234.864 156.565L234.662 155.82L233.254 155.078H231.245L228.027 156.808L227.626 158.294L231.848 157.802L234.46 158.793L234.258 161.021L232.651 162.013L230.841 161.766L230.44 161.021L228.829 160.28H226.821L228.229 162.259H229.234L229.837 163.004V165.232L228.027 166.22V167.956L227.405 171.054L224.321 172.815L222.452 171.867L221.902 170.512L218.93 169.969L217.279 173.223L216.399 173.36L214.086 176.477L213.427 176.614L211.004 174.716L205.831 173.36H203.188L199.006 171.188L198.126 171.867L197.355 175.258L196.366 175.797L193.061 175.258L190.201 175.797L188.441 175.392L184.147 175.663L178.094 179.325L176.552 179.188L172.479 177.561L170.389 177.97L166.867 176.748L164.553 173.902L164.115 171.867L163.344 171.054L163.453 169.156L167.526 161.969L168.626 161.289L176.772 160.613L181.175 164.409L181.946 164.275L182.055 161.018L184.589 157.765L185.248 157.493L188.441 158.715L191.852 158.307L192.511 156.951L192.953 153.56L192.623 148.677L194.933 147.187L198.897 147.592L201.979 150.983H202.529L203.079 149.085L204.73 148.948L206.711 149.627L208.691 151.12L212.326 150.983L214.748 147.863H219.368L220.251 146.645L219.701 141.081L218.05 140.539L219.039 138.641L221.24 137.282L221.793 135.007Z" fill="url(#paint1_linear)"/>
<path d="M260.196 225.89L260.317 223.237L258.775 221.476L258.004 218.902L254.263 214.972L250.078 213.482L249.528 211.45L248.869 211.179L248.539 209.147L244.687 203.724L241.494 197.354L237.2 195.73L234.561 193.695L232.468 193.966L229.166 195.593L228.395 196.678L226.856 196.815L225.973 193.424L223.442 192.882L222.121 191.121L219.481 190.17L217.83 188.68V187.867L219.369 187.191L216.288 184.342L216.73 182.852L219.59 178.648L222.121 177.021L224.655 176.75L226.306 174.852H227.515L228.066 174.31L228.837 172.14L227.406 171.056L228.028 167.958L229.434 167.709L230.64 165.979H231.644L232.25 164.985H233.056L233.858 163.498H234.663L235.266 162.507L237.073 162.261L238.481 160.774L240.695 161.27L242.704 159.783H243.91L243.108 164.985L242.302 165.73H240.493L239.89 166.222L238.481 167.958V168.946L237.073 169.691L235.667 173.156L234.461 174.151L232.652 174.643L231.445 176.628L229.636 177.121L230.239 178.607H231.445L232.652 177.367H233.255L233.858 175.88L236.874 175.388L238.481 174.397L239.691 175.142L240.291 176.875H240.894L241.5 179.103L241.699 177.616L239.287 171.427L241.901 172.168L243.708 174.892H244.513L243.708 171.673L242.704 170.682L243.108 169.94L244.914 172.168L248.735 173.156V172.664H247.731L246.12 170.189L247.128 168.703L248.533 168.453L246.522 166.471L246.727 165.48L246.12 163.747L246.727 163.252L248.533 164.243L249.136 165.73L249.743 164.985H251.35L252.759 165.979H253.763L254.969 167.216L256.978 166.967L257.982 167.709H259.188L263.411 172.418L266.426 173.156L268.239 176.13H269.243L270.248 177.121L270.45 179.103L272.862 179.352L275.272 180.836L279.696 186.53L280.903 187.025L282.109 189.999L284.32 191.731L284.121 192.473H281.907L281.105 193.218L278.689 192.723L277.486 194.206H275.073L274.268 194.948V195.693H275.073L275.272 195.197L278.089 194.948L278.288 194.206L279.895 193.96L282.311 195.443L283.316 196.93L284.923 197.179V197.672L282.51 199.405L281.304 201.387L279.696 201.633L277.887 202.87L278.089 203.366H276.681L275.676 204.354L275.474 205.84L276.482 206.835L277.284 207.327L280.903 207.573L280.502 209.309H279.895L279.696 210.048H278.891L278.49 212.03H279.093L279.696 213.267L281.304 214.009L282.311 215.496V216.484L279.895 217.724L278.089 215L275.474 214.505L274.268 215.742L275.073 217.724H273.264L272.66 218.712L273.061 220.448L275.676 221.187L275.875 221.682L274.47 223.911L274.669 225.394L275.875 226.881L275.676 228.857L275.073 229.106L274.871 231.088L273.264 230.839L274.871 232.076V233.064H273.463L273.867 235.539H272.259L271.653 234.551L271.454 232.322L270.046 230.589L270.45 227.373L269.442 226.631L266.629 218.961L265.422 217.724L261.604 216.733L261.402 217.475L262.204 219.949H263.01L262.608 221.187L263.411 223.169L262.204 225.394L260.196 225.89Z" fill="url(#paint2_linear)"/>
<path d="M227.405 171.054L228.835 172.139L228.064 174.308L227.514 174.851H226.304L224.653 176.749L222.119 177.02L219.589 178.647L216.728 182.851L216.287 184.341L219.368 187.189L217.829 187.866V188.679L219.48 190.169L222.119 191.119L223.441 192.88L225.972 193.423L226.855 196.813L228.394 196.676L229.165 195.592L232.467 193.965L234.559 193.694L237.199 195.729L241.493 197.353L244.686 203.723L248.538 209.146L248.868 211.178L249.527 211.449L250.077 213.481L254.262 214.971L258.002 218.901L258.773 221.475L260.316 223.236L260.194 225.888L259.389 225.642L257.178 222.672L254.162 223.411H251.75L252.353 224.156L251.548 225.393H253.155L253.761 228.363L253.155 229.105L249.94 229.354L250.945 232.321L251.548 232.57V234.057H252.353L252.757 233.063L254.564 232.321L258.382 236.529L260.194 236.775L259.591 235.291L258.382 234.3L257.782 232.57H260.797L263.21 234.796L263.409 236.775L265.219 235.784H265.623V236.529L264.818 236.778L262.607 239.499L261.199 237.766L260.595 241.724L257.981 243.457V244.199L256.373 244.694L255.369 245.682H253.761L252.353 246.919L245.718 246.424L244.913 245.931L241.095 246.67L237.678 245.931L236.67 244.943L234.864 244.694L231.444 242.466H230.639L230.44 241.724H229.031L228.428 240.979L226.419 240.736L225.213 239.991L221.193 239.745L220.789 240.24H218.979L217.372 239.499L216.769 238.508L215.562 238.754L215.36 239.499L213.551 239.003L213.352 239.745H211.138V239.003H210.336L210.134 238.508L208.725 238.754V238.258H207.32L204.705 235.537L200.884 235.291L198.673 234.55L198.474 234.057L198.272 234.55L197.467 234.3V235.045L196.864 235.537H194.653L186.613 231.579H185.605L184.803 232.321L181.585 229.105L176.157 228.612L173.946 227.867H171.129L168.716 226.63L167.513 223.909V222.177L163.291 221.435L159.874 219.948L159.069 220.939L158.064 219.453L157.06 218.96L157.259 218.465L154.846 218.711L153.64 217.966L152.636 214.503L150.823 214.257L149.216 211.783L149.915 210.907L150.027 208.738L153.329 205.079L154.097 201.825L155.53 199.793L156.41 196.676L159.6 196.539L161.363 197.761L162.793 197.49L164.553 196.539L168.959 192.609V191.662L167.525 189.764L167.417 185.562L166.207 182.985L166.867 176.748L170.389 177.97L172.479 177.561L176.552 179.188L178.094 179.325L184.147 175.663L188.441 175.392L190.201 175.797L193.061 175.258L196.366 175.797L197.355 175.258L198.126 171.867L199.006 171.188L203.188 173.36H205.831L211.004 174.716L213.427 176.614L214.086 176.477L216.399 173.36L217.279 173.223L218.93 169.969L221.902 170.512L222.452 171.867L224.321 172.815L227.405 171.054Z" fill="url(#paint3_linear)"/>
<path d="M99.9602 60.1361L101.167 61.3796V62.3707L101.77 62.6201V64.1098L100.364 62.6201L98.3528 63.1125L96.9443 61.6227V60.6317L99.9602 60.1361ZM113.432 55.4269L114.437 56.6673L114.035 57.9077L115.444 59.6437H117.655L121.473 63.8605L122.076 65.3502L120.869 67.0831L120.67 68.3235L118.258 68.0773L114.841 68.819L114.639 69.3177L113.23 69.0683L112.829 69.567L110.015 69.0683L109.21 69.567L109.813 69.8132L109.611 70.3119L104.988 70.0625L103.377 70.8074H101.77L103.781 68.0804L105.591 66.84L105.793 65.8458L105.591 64.8547L104.385 65.3533L103.781 64.8547L103.579 63.6143L102.373 63.1156L101.369 60.6348L101.972 59.6437L100.567 58.4033L101.17 56.6673L103.785 57.166L104.587 55.9256H105.995L106.598 57.6584L107.201 55.9256H108.408L109.816 56.9166L111.222 57.166L111.825 58.4064V55.6762L113.432 55.4269ZM39.4464 0.085083L40.6528 1.07617H42.6644L44.474 1.81792L48.093 1.56859L48.4941 2.06725H50.5058V3.06145L49.7005 3.31078V4.05877L50.7079 4.80053L54.728 5.29919L55.1291 7.03515L54.529 8.27868L54.728 9.26976H55.9375L56.5407 7.28136L56.9417 7.53069L57.1438 7.03203H59.3576L60.3618 8.02623H61.5682L64.7862 11.5013L64.9883 13.4897L65.9956 14.7301L68.6074 15.4718L69.0084 16.9616L71.418 17.7096L72.0212 18.95L74.0297 18.7007L76.2435 14.7301L78.2551 14.4808L78.8583 15.7212H79.6605L80.4657 18.202L81.271 18.95L83.0774 19.1962L85.2912 22.1757L86.8986 21.9264L89.3113 20.4397L93.1325 20.9353L93.7357 22.1757L94.1399 26.8942L95.5483 27.3898L95.7504 29.3782H96.9568L97.961 28.3871L100.778 29.3782L102.385 32.3577L110.025 40.0495L111.231 42.2841L111.632 45.0143L110.025 46.5009L106.81 46.9996L105.404 48.7386L101.984 48.988L100.175 51.2195H96.7578L95.7535 50.2284L94.1461 49.979H92.3365V50.4777L90.7291 50.7239H89.3206L88.1143 49.7328H87.3121L86.5068 50.7239L84.8994 50.2315L84.4952 51.7212L86.1027 51.9674L79.8719 56.6829H78.0623L77.4592 56.1842L76.4549 56.6829L76.2528 57.9233L74.8443 58.422L70.6252 58.1726L70.022 59.6624L64.9945 58.6713L63.185 60.4041L58.9658 61.8939L57.3584 63.3836V64.1285H56.7552L54.7436 61.6446H52.1319L50.3223 58.1726H45.9011L44.8937 57.4278H40.0714L39.2692 56.686H36.6544L35.8522 55.6949L34.6459 55.9443L33.4395 55.4456V54.9469L30.8278 55.4456V55.9443H29.6215L29.2204 56.686L27.2087 55.6949L27.4108 54.9501L25.8034 55.4487L24.597 53.4634H23.7918L23.3907 52.223L20.779 49.4929V47.2614L18.3663 45.0299L15.9536 45.2761L16.5567 44.7836L14.7472 43.7894H11.3302L10.5249 44.7836L9.52068 44.5343L7.71114 45.033V44.5343L7.10796 44.7836L4.49626 43.0446L3.49199 43.2939L2.08354 41.5548V40.0651L4.29727 37.5843L3.89619 36.3438L4.29727 34.1123L3.2899 31.1329L3.49199 30.388L4.69835 30.1386L4.90045 29.1476L4.29727 28.4058H3.4951L3.09402 25.6756L5.70572 22.9455L5.90782 21.7051L5.10254 17.9807L2.49084 16.7403H0.8834L0.681304 16.2448L0.078125 9.29469L0.8834 6.56454L3.09713 7.06008H7.11729L7.72047 6.56454L11.1374 6.81387L12.7449 5.57345L13.9512 3.33572H16.364L18.9757 2.0953H21.7895L25.2096 1.35355L26.2138 2.34463H27.6192L28.6265 0.356229H29.8329L31.8445 1.59664H33.6541L34.2572 0.110016H36.2689L36.8721 0.605559L39.4464 0.085083Z" fill="url(#paint4_linear)"/>
<path fill-rule="evenodd" clip-rule="evenodd" d="M232.56 152.312C233.914 151.198 237.25 148.087 237.25 144.5C237.25 141.601 234.899 139.25 232 139.25C229.101 139.25 226.75 141.601 226.75 144.5C226.75 148.087 230.086 151.198 231.44 152.312C231.77 152.584 232.23 152.584 232.56 152.312ZM232 146.75C233.243 146.75 234.25 145.743 234.25 144.5C234.25 143.257 233.243 142.25 232 142.25C230.757 142.25 229.75 143.257 229.75 144.5C229.75 145.743 230.757 146.75 232 146.75Z" fill="url(#paint5_linear)"/>
<path d="M250.896 147.708C250.984 148.228 251.184 148.628 251.496 148.908C251.808 149.188 252.236 149.328 252.78 149.328C253.532 149.328 254.088 149.036 254.448 148.452C254.816 147.86 254.984 146.884 254.952 145.524C254.8 145.964 254.508 146.312 254.076 146.568C253.652 146.816 253.164 146.94 252.612 146.94C251.772 146.94 251.096 146.688 250.584 146.184C250.08 145.68 249.828 144.98 249.828 144.084C249.828 143.548 249.932 143.064 250.14 142.632C250.348 142.2 250.664 141.86 251.088 141.612C251.512 141.364 252.032 141.24 252.648 141.24C253.784 141.24 254.576 141.612 255.024 142.356C255.472 143.092 255.696 144.152 255.696 145.536C255.696 147.032 255.472 148.156 255.024 148.908C254.584 149.66 253.824 150.036 252.744 150.036C251.952 150.036 251.336 149.824 250.896 149.4C250.456 148.968 250.196 148.404 250.116 147.708H250.896ZM252.744 146.22C253.12 146.22 253.464 146.144 253.776 145.992C254.096 145.832 254.352 145.6 254.544 145.296C254.736 144.992 254.832 144.628 254.832 144.204C254.832 143.548 254.644 143.008 254.268 142.584C253.9 142.16 253.368 141.948 252.672 141.948C252.056 141.948 251.56 142.14 251.184 142.524C250.816 142.908 250.632 143.42 250.632 144.06C250.632 144.732 250.816 145.26 251.184 145.644C251.552 146.028 252.072 146.22 252.744 146.22ZM262.428 142.056L259.08 150H258.228L261.612 142.128H256.812V141.408H262.428V142.056ZM277.327 141.612L274.951 150H274.015L271.903 142.848L269.743 150L268.831 150.012L266.503 141.612H267.403L269.323 148.968L271.471 141.612H272.407L274.495 148.968L276.427 141.612H277.327ZM279.032 142.212C278.864 142.212 278.72 142.152 278.6 142.032C278.48 141.912 278.42 141.764 278.42 141.588C278.42 141.412 278.48 141.268 278.6 141.156C278.72 141.036 278.864 140.976 279.032 140.976C279.2 140.976 279.344 141.036 279.464 141.156C279.584 141.268 279.644 141.412 279.644 141.588C279.644 141.764 279.584 141.912 279.464 142.032C279.344 142.152 279.2 142.212 279.032 142.212ZM279.452 143.448V150H278.612V143.448H279.452ZM284.427 143.328C285.211 143.328 285.851 143.572 286.347 144.06C286.843 144.54 287.091 145.24 287.091 146.16V150H286.263V146.256C286.263 145.544 286.083 145 285.723 144.624C285.371 144.248 284.887 144.06 284.271 144.06C283.639 144.06 283.135 144.26 282.759 144.66C282.383 145.06 282.195 145.648 282.195 146.424V150H281.355V143.448H282.195V144.564C282.403 144.164 282.703 143.86 283.095 143.652C283.487 143.436 283.931 143.328 284.427 143.328ZM288.564 146.712C288.564 146.04 288.7 145.452 288.972 144.948C289.244 144.436 289.616 144.044 290.088 143.772C290.568 143.492 291.108 143.352 291.708 143.352C292.284 143.352 292.804 143.492 293.268 143.772C293.732 144.052 294.072 144.416 294.288 144.864V141.12H295.128V150H294.288V148.536C294.088 148.992 293.76 149.368 293.304 149.664C292.848 149.952 292.312 150.096 291.696 150.096C291.096 150.096 290.556 149.956 290.076 149.676C289.604 149.396 289.232 149 288.96 148.488C288.696 147.976 288.564 147.384 288.564 146.712ZM294.288 146.724C294.288 146.196 294.18 145.732 293.964 145.332C293.748 144.932 293.452 144.624 293.076 144.408C292.708 144.192 292.3 144.084 291.852 144.084C291.388 144.084 290.972 144.188 290.604 144.396C290.236 144.604 289.944 144.908 289.728 145.308C289.52 145.7 289.416 146.168 289.416 146.712C289.416 147.248 289.52 147.72 289.728 148.128C289.944 148.528 290.236 148.836 290.604 149.052C290.972 149.26 291.388 149.364 291.852 149.364C292.3 149.364 292.708 149.256 293.076 149.04C293.452 148.824 293.748 148.516 293.964 148.116C294.18 147.716 294.288 147.252 294.288 146.724ZM299.302 150.096C298.55 150.096 297.934 149.924 297.454 149.58C296.982 149.228 296.718 148.752 296.662 148.152H297.526C297.566 148.52 297.738 148.82 298.042 149.052C298.354 149.276 298.77 149.388 299.29 149.388C299.746 149.388 300.102 149.28 300.358 149.064C300.622 148.848 300.754 148.58 300.754 148.26C300.754 148.036 300.682 147.852 300.538 147.708C300.394 147.564 300.21 147.452 299.986 147.372C299.77 147.284 299.474 147.192 299.098 147.096C298.61 146.968 298.214 146.84 297.91 146.712C297.606 146.584 297.346 146.396 297.13 146.148C296.922 145.892 296.818 145.552 296.818 145.128C296.818 144.808 296.914 144.512 297.106 144.24C297.298 143.968 297.57 143.752 297.922 143.592C298.274 143.432 298.674 143.352 299.122 143.352C299.826 143.352 300.394 143.532 300.826 143.892C301.258 144.244 301.49 144.732 301.522 145.356H300.682C300.658 144.972 300.506 144.664 300.226 144.432C299.954 144.192 299.578 144.072 299.098 144.072C298.674 144.072 298.33 144.172 298.066 144.372C297.802 144.572 297.67 144.82 297.67 145.116C297.67 145.372 297.746 145.584 297.898 145.752C298.058 145.912 298.254 146.04 298.486 146.136C298.718 146.224 299.03 146.324 299.422 146.436C299.894 146.564 300.27 146.688 300.55 146.808C300.83 146.928 301.07 147.104 301.27 147.336C301.47 147.568 301.574 147.876 301.582 148.26C301.582 148.612 301.486 148.928 301.294 149.208C301.102 149.48 300.834 149.696 300.49 149.856C300.146 150.016 299.75 150.096 299.302 150.096ZM306.031 150.096C305.415 150.096 304.859 149.96 304.363 149.688C303.875 149.408 303.487 149.016 303.199 148.512C302.919 148 302.779 147.404 302.779 146.724C302.779 146.044 302.923 145.452 303.211 144.948C303.499 144.436 303.891 144.044 304.387 143.772C304.883 143.492 305.439 143.352 306.055 143.352C306.671 143.352 307.227 143.492 307.723 143.772C308.227 144.044 308.619 144.436 308.899 144.948C309.187 145.452 309.331 146.044 309.331 146.724C309.331 147.396 309.187 147.988 308.899 148.5C308.611 149.012 308.215 149.408 307.711 149.688C307.207 149.96 306.647 150.096 306.031 150.096ZM306.031 149.364C306.463 149.364 306.863 149.268 307.231 149.076C307.599 148.876 307.895 148.58 308.119 148.188C308.351 147.788 308.467 147.3 308.467 146.724C308.467 146.148 308.355 145.664 308.131 145.272C307.907 144.872 307.611 144.576 307.243 144.384C306.875 144.184 306.475 144.084 306.043 144.084C305.611 144.084 305.211 144.184 304.843 144.384C304.475 144.576 304.179 144.872 303.955 145.272C303.739 145.664 303.631 146.148 303.631 146.724C303.631 147.3 303.739 147.788 303.955 148.188C304.179 148.58 304.471 148.876 304.831 149.076C305.199 149.268 305.599 149.364 306.031 149.364ZM311.702 144.612C311.886 144.204 312.166 143.888 312.542 143.664C312.926 143.44 313.394 143.328 313.946 143.328V144.204H313.718C313.11 144.204 312.622 144.368 312.254 144.696C311.886 145.024 311.702 145.572 311.702 146.34V150H310.862V143.448H311.702V144.612ZM321.047 150.084C320.495 150.084 320.007 149.988 319.583 149.796C319.167 149.604 318.839 149.336 318.599 148.992C318.359 148.648 318.231 148.264 318.215 147.84H319.103C319.143 148.248 319.323 148.608 319.643 148.92C319.963 149.224 320.431 149.376 321.047 149.376C321.615 149.376 322.063 149.232 322.391 148.944C322.727 148.648 322.895 148.276 322.895 147.828C322.895 147.468 322.803 147.18 322.619 146.964C322.435 146.74 322.207 146.576 321.935 146.472C321.663 146.36 321.287 146.24 320.807 146.112C320.247 145.96 319.803 145.812 319.475 145.668C319.147 145.524 318.867 145.3 318.635 144.996C318.403 144.692 318.287 144.28 318.287 143.76C318.287 143.328 318.399 142.944 318.623 142.608C318.847 142.264 319.163 141.996 319.571 141.804C319.979 141.612 320.447 141.516 320.975 141.516C321.751 141.516 322.375 141.708 322.847 142.092C323.327 142.468 323.603 142.956 323.675 143.556H322.763C322.707 143.212 322.519 142.908 322.199 142.644C321.879 142.372 321.447 142.236 320.903 142.236C320.399 142.236 319.979 142.372 319.643 142.644C319.307 142.908 319.139 143.272 319.139 143.736C319.139 144.088 319.231 144.372 319.415 144.588C319.599 144.804 319.827 144.968 320.099 145.08C320.379 145.192 320.755 145.312 321.227 145.44C321.771 145.592 322.211 145.744 322.547 145.896C322.883 146.04 323.167 146.264 323.399 146.568C323.631 146.872 323.747 147.28 323.747 147.792C323.747 148.184 323.643 148.556 323.435 148.908C323.227 149.26 322.919 149.544 322.511 149.76C322.103 149.976 321.615 150.084 321.047 150.084ZM326.462 144.156V148.224C326.462 148.624 326.538 148.9 326.69 149.052C326.842 149.204 327.11 149.28 327.494 149.28H328.262V150H327.362C326.77 150 326.33 149.864 326.042 149.592C325.754 149.312 325.61 148.856 325.61 148.224V144.156H324.698V143.448H325.61V141.804H326.462V143.448H328.262V144.156H326.462ZM330.488 144.612C330.672 144.204 330.952 143.888 331.328 143.664C331.712 143.44 332.18 143.328 332.732 143.328V144.204H332.504C331.896 144.204 331.408 144.368 331.04 144.696C330.672 145.024 330.488 145.572 330.488 146.34V150H329.648V143.448H330.488V144.612ZM339.923 146.388C339.923 146.676 339.915 146.896 339.899 147.048H334.463C334.487 147.544 334.607 147.968 334.823 148.32C335.039 148.672 335.323 148.94 335.675 149.124C336.027 149.3 336.411 149.388 336.827 149.388C337.371 149.388 337.827 149.256 338.195 148.992C338.571 148.728 338.819 148.372 338.939 147.924H339.827C339.667 148.564 339.323 149.088 338.795 149.496C338.275 149.896 337.619 150.096 336.827 150.096C336.211 150.096 335.659 149.96 335.171 149.688C334.683 149.408 334.299 149.016 334.019 148.512C333.747 148 333.611 147.404 333.611 146.724C333.611 146.044 333.747 145.448 334.019 144.936C334.291 144.424 334.671 144.032 335.159 143.76C335.647 143.488 336.203 143.352 336.827 143.352C337.451 143.352 337.995 143.488 338.459 143.76C338.931 144.032 339.291 144.4 339.539 144.864C339.795 145.32 339.923 145.828 339.923 146.388ZM339.071 146.364C339.079 145.876 338.979 145.46 338.771 145.116C338.571 144.772 338.295 144.512 337.943 144.336C337.591 144.16 337.207 144.072 336.791 144.072C336.167 144.072 335.635 144.272 335.195 144.672C334.755 145.072 334.511 145.636 334.463 146.364H339.071ZM347.388 146.388C347.388 146.676 347.38 146.896 347.364 147.048H341.928C341.952 147.544 342.072 147.968 342.288 148.32C342.504 148.672 342.788 148.94 343.14 149.124C343.492 149.3 343.876 149.388 344.292 149.388C344.836 149.388 345.292 149.256 345.66 148.992C346.036 148.728 346.284 148.372 346.404 147.924H347.292C347.132 148.564 346.788 149.088 346.26 149.496C345.74 149.896 345.084 150.096 344.292 150.096C343.676 150.096 343.124 149.96 342.636 149.688C342.148 149.408 341.764 149.016 341.484 148.512C341.212 148 341.076 147.404 341.076 146.724C341.076 146.044 341.212 145.448 341.484 144.936C341.756 144.424 342.136 144.032 342.624 143.76C343.112 143.488 343.668 143.352 344.292 143.352C344.916 143.352 345.46 143.488 345.924 143.76C346.396 144.032 346.756 144.4 347.004 144.864C347.26 145.32 347.388 145.828 347.388 146.388ZM346.536 146.364C346.544 145.876 346.444 145.46 346.236 145.116C346.036 144.772 345.76 144.512 345.408 144.336C345.056 144.16 344.672 144.072 344.256 144.072C343.632 144.072 343.1 144.272 342.66 144.672C342.22 145.072 341.976 145.636 341.928 146.364H346.536ZM350.017 144.156V148.224C350.017 148.624 350.093 148.9 350.245 149.052C350.397 149.204 350.665 149.28 351.049 149.28H351.817V150H350.917C350.325 150 349.885 149.864 349.597 149.592C349.309 149.312 349.165 148.856 349.165 148.224V144.156H348.253V143.448H349.165V141.804H350.017V143.448H351.817V144.156H350.017ZM353.97 148.608L352.722 151.752H352.146L353.034 148.608H353.97ZM361.113 150.084C360.561 150.084 360.073 149.988 359.649 149.796C359.233 149.604 358.905 149.336 358.665 148.992C358.425 148.648 358.297 148.264 358.281 147.84H359.169C359.209 148.248 359.389 148.608 359.709 148.92C360.029 149.224 360.497 149.376 361.113 149.376C361.681 149.376 362.129 149.232 362.457 148.944C362.793 148.648 362.961 148.276 362.961 147.828C362.961 147.468 362.869 147.18 362.685 146.964C362.501 146.74 362.273 146.576 362.001 146.472C361.729 146.36 361.353 146.24 360.873 146.112C360.313 145.96 359.869 145.812 359.541 145.668C359.213 145.524 358.933 145.3 358.701 144.996C358.469 144.692 358.353 144.28 358.353 143.76C358.353 143.328 358.465 142.944 358.689 142.608C358.913 142.264 359.229 141.996 359.637 141.804C360.045 141.612 360.513 141.516 361.041 141.516C361.817 141.516 362.441 141.708 362.913 142.092C363.393 142.468 363.669 142.956 363.741 143.556H362.829C362.773 143.212 362.585 142.908 362.265 142.644C361.945 142.372 361.513 142.236 360.969 142.236C360.465 142.236 360.045 142.372 359.709 142.644C359.373 142.908 359.205 143.272 359.205 143.736C359.205 144.088 359.297 144.372 359.481 144.588C359.665 144.804 359.893 144.968 360.165 145.08C360.445 145.192 360.821 145.312 361.293 145.44C361.837 145.592 362.277 145.744 362.613 145.896C362.949 146.04 363.233 146.264 363.465 146.568C363.697 146.872 363.813 147.28 363.813 147.792C363.813 148.184 363.709 148.556 363.501 148.908C363.293 149.26 362.985 149.544 362.577 149.76C362.169 149.976 361.681 150.084 361.113 150.084ZM366.277 141.12V150H365.437V141.12H366.277ZM368.599 142.212C368.431 142.212 368.287 142.152 368.167 142.032C368.047 141.912 367.987 141.764 367.987 141.588C367.987 141.412 368.047 141.268 368.167 141.156C368.287 141.036 368.431 140.976 368.599 140.976C368.767 140.976 368.911 141.036 369.031 141.156C369.151 141.268 369.211 141.412 369.211 141.588C369.211 141.764 369.151 141.912 369.031 142.032C368.911 142.152 368.767 142.212 368.599 142.212ZM369.019 143.448V150H368.179V143.448H369.019ZM376.849 146.388C376.849 146.676 376.841 146.896 376.825 147.048H371.389C371.413 147.544 371.533 147.968 371.749 148.32C371.965 148.672 372.249 148.94 372.601 149.124C372.953 149.3 373.337 149.388 373.753 149.388C374.297 149.388 374.753 149.256 375.121 148.992C375.497 148.728 375.745 148.372 375.865 147.924H376.753C376.593 148.564 376.249 149.088 375.721 149.496C375.201 149.896 374.545 150.096 373.753 150.096C373.137 150.096 372.585 149.96 372.097 149.688C371.609 149.408 371.225 149.016 370.945 148.512C370.673 148 370.537 147.404 370.537 146.724C370.537 146.044 370.673 145.448 370.945 144.936C371.217 144.424 371.597 144.032 372.085 143.76C372.573 143.488 373.129 143.352 373.753 143.352C374.377 143.352 374.921 143.488 375.385 143.76C375.857 144.032 376.217 144.4 376.465 144.864C376.721 145.32 376.849 145.828 376.849 146.388ZM375.997 146.364C376.005 145.876 375.905 145.46 375.697 145.116C375.497 144.772 375.221 144.512 374.869 144.336C374.517 144.16 374.133 144.072 373.717 144.072C373.093 144.072 372.561 144.272 372.121 144.672C371.681 145.072 371.437 145.636 371.389 146.364H375.997ZM386.186 143.328C386.954 143.328 387.578 143.572 388.058 144.06C388.546 144.54 388.79 145.24 388.79 146.16V150H387.962V146.256C387.962 145.544 387.79 145 387.446 144.624C387.102 144.248 386.634 144.06 386.042 144.06C385.426 144.06 384.934 144.264 384.566 144.672C384.198 145.08 384.014 145.672 384.014 146.448V150H383.186V146.256C383.186 145.544 383.014 145 382.67 144.624C382.326 144.248 381.854 144.06 381.254 144.06C380.638 144.06 380.146 144.264 379.778 144.672C379.41 145.08 379.226 145.672 379.226 146.448V150H378.386V143.448H379.226V144.576C379.434 144.168 379.73 143.86 380.114 143.652C380.498 143.436 380.926 143.328 381.398 143.328C381.966 143.328 382.462 143.464 382.886 143.736C383.318 144.008 383.63 144.408 383.822 144.936C383.998 144.416 384.298 144.02 384.722 143.748C385.154 143.468 385.642 143.328 386.186 143.328ZM390.271 146.712C390.271 146.04 390.403 145.452 390.667 144.948C390.939 144.436 391.311 144.044 391.783 143.772C392.263 143.492 392.803 143.352 393.403 143.352C394.027 143.352 394.563 143.496 395.011 143.784C395.467 144.072 395.795 144.44 395.995 144.888V143.448H396.835V150H395.995V148.548C395.787 148.996 395.455 149.368 394.999 149.664C394.551 149.952 394.015 150.096 393.391 150.096C392.799 150.096 392.263 149.956 391.783 149.676C391.311 149.396 390.939 149 390.667 148.488C390.403 147.976 390.271 147.384 390.271 146.712ZM395.995 146.724C395.995 146.196 395.887 145.732 395.671 145.332C395.455 144.932 395.159 144.624 394.783 144.408C394.415 144.192 394.007 144.084 393.559 144.084C393.095 144.084 392.679 144.188 392.311 144.396C391.943 144.604 391.651 144.908 391.435 145.308C391.227 145.7 391.123 146.168 391.123 146.712C391.123 147.248 391.227 147.72 391.435 148.128C391.651 148.528 391.943 148.836 392.311 149.052C392.679 149.26 393.095 149.364 393.559 149.364C394.007 149.364 394.415 149.256 394.783 149.04C395.159 148.824 395.455 148.516 395.671 148.116C395.887 147.716 395.995 147.252 395.995 146.724Z" fill="#D7D7E3"/>
<defs>
<linearGradient id="paint0_linear" x1="143" y1="-0.000854501" x2="142.501" y2="246.919" gradientUnits="userSpaceOnUse">
<stop stop-color="#F7F7FF" stop-opacity="0.5"/>
<stop offset="0.989583" stop-color="#F7F7FF" stop-opacity="0"/>
</linearGradient>
<linearGradient id="paint1_linear" x1="143" y1="-0.000854501" x2="142.501" y2="246.919" gradientUnits="userSpaceOnUse">
<stop stop-color="#F7F7FF" stop-opacity="0.5"/>
<stop offset="0.989583" stop-color="#F7F7FF" stop-opacity="0"/>
</linearGradient>
<linearGradient id="paint2_linear" x1="143" y1="-0.000854501" x2="142.501" y2="246.919" gradientUnits="userSpaceOnUse">
<stop stop-color="#F7F7FF" stop-opacity="0.5"/>
<stop offset="0.989583" stop-color="#F7F7FF" stop-opacity="0"/>
</linearGradient>
<linearGradient id="paint3_linear" x1="143" y1="-0.000854501" x2="142.501" y2="246.919" gradientUnits="userSpaceOnUse">
<stop stop-color="#F7F7FF" stop-opacity="0.5"/>
<stop offset="0.989583" stop-color="#F7F7FF" stop-opacity="0"/>
</linearGradient>
<linearGradient id="paint4_linear" x1="143" y1="-0.000854501" x2="142.501" y2="246.919" gradientUnits="userSpaceOnUse">
<stop stop-color="#F7F7FF" stop-opacity="0.5"/>
<stop offset="0.989583" stop-color="#F7F7FF" stop-opacity="0"/>
</linearGradient>
<linearGradient id="paint5_linear" x1="231.499" y1="128.057" x2="249.246" y2="144.293" gradientUnits="userSpaceOnUse">
<stop stop-color="#FFD595"/>
<stop offset="1" stop-color="#F3AC40"/>
</linearGradient>
</defs>
</svg>
