<svg width="130" height="251" viewBox="0 0 130 251" fill="none" xmlns="http://www.w3.org/2000/svg">
<g clip-path="url(#clip0)">
<path d="M74.9012 164.367L71.4944 170.787C73.1874 169.33 74.593 167.57 75.6389 165.597L79.0879 159.094C78.0367 161.099 76.6163 162.888 74.9012 164.367V164.367Z" fill="#FAD091"/>
<path d="M17.3074 132.86L17.4251 132.4C17.5269 132.002 17.6296 131.602 17.7332 131.197C17.7657 131.07 17.7958 130.953 17.8283 130.826C17.9586 130.317 18.0788 129.848 18.3292 129.318L18.4144 128.986C18.5983 128.512 18.8018 128.043 19.0347 127.582L19.2031 127.25L15.7542 133.754L15.5785 134.073L15.2784 134.715L14.9581 135.477L14.8705 135.82C14.6815 136.313 14.5319 136.775 14.3721 137.317L14.2769 137.689C14.1742 138.09 14.0716 138.491 13.9689 138.891L13.8609 139.353C13.8309 139.471 13.8008 139.588 13.7733 139.696C13.6731 140.087 13.661 140.5 13.6293 140.909L17.1076 134.413C17.1347 133.941 17.2188 133.368 17.3074 132.86Z" fill="#FAD091"/>
<path d="M63.2916 169.593L59.8229 176.134C64.1318 175.46 68.1704 173.61 71.4936 170.788L74.9004 164.367C71.5773 167.13 67.5643 168.936 63.2916 169.593V169.593Z" fill="#111C43"/>
<path d="M17.1068 134.41L13.648 140.911C13.3825 145.264 14.2769 149.61 16.2398 153.505L19.676 147.092C17.6961 143.171 16.8086 138.791 17.1068 134.41Z" fill="#111C43"/>
<path d="M45.532 168.23L42.088 174.714C47.8013 176.602 53.885 177.089 59.825 176.132L63.2812 169.641C57.3375 170.595 51.251 170.111 45.532 168.23V168.23Z" fill="#FAD091"/>
<path d="M27.8968 167.424L31.3531 160.932C30.7237 160.459 30.1215 159.961 29.539 159.426C29.3415 159.261 29.1563 159.088 28.9686 158.925C28.5689 158.573 28.1764 158.233 27.7987 157.876C27.6575 157.735 27.5162 157.595 27.3724 157.464C26.9899 157.085 26.6075 156.706 26.2373 156.319C26.096 156.179 25.9572 156.029 25.8282 155.881C25.3534 155.374 24.8909 154.859 24.4504 154.34C24.429 154.33 24.4057 154.324 24.382 154.323C23.9683 153.821 23.5964 153.319 23.1951 152.81C23.0467 152.616 22.9107 152.414 22.7721 152.222L22.0116 151.121L21.6158 150.509C21.3633 150.111 21.1303 149.718 20.8878 149.281L20.5675 148.74C20.2547 148.17 19.9667 147.544 19.6758 147.011L16.2391 153.508C16.5176 154.09 16.8106 154.696 17.1309 155.237L17.4512 155.777C17.6816 156.18 17.9171 156.563 18.1791 157.005L18.575 157.617C18.8227 157.993 19.0827 158.362 19.333 158.728L19.7682 159.309L19.9748 159.601L20.8793 160.792L20.9478 160.809C21.3883 161.328 21.8508 161.843 22.3231 162.36L22.7419 162.8C23.1048 163.175 23.4848 163.564 23.8697 163.933C24.011 164.074 24.1523 164.214 24.2961 164.345L24.5227 164.559C24.8248 164.845 25.1516 165.116 25.466 165.395C25.7804 165.673 25.8389 165.73 26.0364 165.895C26.6627 166.462 27.2675 166.95 27.8968 167.424Z" fill="#FAD091"/>
<path d="M44.1196 167.754L44.0511 167.736C43.9435 167.709 43.8261 167.679 43.7087 167.649C41.8202 166.95 39.9788 166.131 38.1962 165.195C37.6442 164.907 37.107 164.603 36.5698 164.299C36.3402 164.177 36.1106 164.056 35.886 163.915C35.2048 163.522 34.5384 163.112 33.8965 162.687L33.7791 162.657L33.6278 162.555C32.8615 162.046 32.1198 161.523 31.4126 160.946L27.9539 167.447C28.3393 167.733 28.7248 168.02 29.1225 168.299C29.5202 168.578 29.8228 168.78 30.1791 169.017L30.3402 169.121L30.4478 169.149C31.0995 169.576 31.7659 169.986 32.4446 170.39C32.6619 170.518 32.9013 170.642 33.1283 170.773C33.5117 170.986 33.8926 171.208 34.2883 171.414L34.7475 171.657C36.5331 172.594 38.3778 173.415 40.2697 174.113C40.3426 174.127 40.4144 174.146 40.485 174.168L40.6807 174.219C41.1797 174.346 41.6391 174.547 42.1429 174.697L45.5893 168.203C45.078 168.083 44.567 167.921 44.1196 167.754Z" fill="#111C43"/>
<path d="M60.2176 121.19C62.5985 122.42 64.8688 123.852 67.0034 125.471L62.3585 130.335C60.7622 129.105 59.0571 128.023 57.2644 127.102L57.1567 127.075C55.4094 126.169 53.5826 125.425 51.6993 124.853L52.8638 118.15C55.3977 118.951 57.8581 119.968 60.2176 121.19V121.19Z" fill="#111C43"/>
<path d="M56.5363 127.831C56.5113 127.929 56.3495 127.95 56.22 127.886C55.2942 127.43 54.3094 127.001 53.339 126.637C53.2892 126.616 53.2476 126.58 53.2201 126.533C53.1925 126.487 53.1806 126.433 53.1861 126.379C53.2136 126.272 53.3315 126.219 53.4831 126.278C54.4833 126.652 55.4637 127.077 56.4203 127.552C56.4911 127.601 56.5834 127.729 56.5363 127.831Z" fill="#111C43"/>
<path d="M50.6553 125.554C50.6277 125.662 50.5294 125.72 50.3899 125.694C49.413 125.431 48.4221 125.223 47.422 125.07L47.3046 125.04C47.2636 125.021 47.2279 124.992 47.2008 124.956C47.1736 124.92 47.1558 124.878 47.149 124.833C47.1766 124.725 47.2016 124.628 47.3802 124.663C48.4039 124.819 49.4184 125.03 50.4191 125.296C50.4191 125.296 50.4778 125.311 50.5072 125.318C50.5523 125.339 50.5904 125.372 50.6167 125.414C50.643 125.456 50.6564 125.505 50.6553 125.554V125.554Z" fill="#111C43"/>
<path d="M69.2349 140.284L69.1034 140.146C68.6658 139.3 68.1797 138.479 67.6475 137.689C67.6292 137.668 67.6163 137.643 67.6098 137.616C67.6034 137.589 67.6037 137.561 67.6106 137.534C67.6175 137.507 67.6308 137.482 67.6494 137.461C67.6681 137.441 67.6915 137.425 67.7176 137.415C67.7936 137.408 67.8699 137.427 67.9329 137.47C68 137.506 68.0583 137.557 68.1035 137.618C68.6399 138.406 69.1262 139.226 69.5594 140.075C69.5748 140.099 69.5837 140.126 69.5851 140.154C69.5866 140.183 69.5807 140.211 69.5679 140.236C69.5551 140.261 69.5359 140.282 69.5123 140.298C69.4886 140.313 69.4613 140.322 69.4331 140.324L69.2349 140.284Z" fill="#111C43"/>
<path d="M38.8991 125.21C38.04 125.388 37.1947 125.628 36.3695 125.926L36.1445 125.869L36.0348 125.768C36.0162 125.748 36.0029 125.724 35.9962 125.697C35.9894 125.671 35.9894 125.643 35.9961 125.617C36.0029 125.591 36.0162 125.567 36.0347 125.547C36.0533 125.527 36.0766 125.512 36.1025 125.504C36.9491 125.198 37.8166 124.954 38.6983 124.773C38.7671 124.769 38.8352 124.787 38.894 124.823C38.9475 124.855 38.9933 124.899 39.028 124.951C39.0513 124.973 39.0668 125.002 39.0724 125.034C39.0779 125.066 39.0731 125.099 39.0587 125.128C39.0444 125.156 39.0211 125.18 38.9924 125.195C38.9637 125.209 38.931 125.215 38.8991 125.21V125.21Z" fill="#111C43"/>
<path d="M70.9776 145.327L70.8122 145.118C70.6502 144.275 70.4273 143.445 70.1452 142.634C70.1355 142.608 70.1326 142.58 70.1369 142.553C70.1411 142.526 70.1523 142.5 70.1694 142.478C70.1865 142.456 70.2089 142.439 70.2345 142.429C70.2601 142.418 70.2879 142.414 70.3154 142.418C70.3703 142.416 70.4246 142.43 70.472 142.458C70.5454 142.496 70.6032 142.559 70.6351 142.635C70.916 143.47 71.1435 144.321 71.3164 145.185C71.3195 145.213 71.3158 145.241 71.3056 145.267C71.2954 145.292 71.2791 145.315 71.258 145.334C71.2369 145.352 71.2117 145.365 71.1846 145.371C71.1575 145.377 71.1292 145.377 71.1023 145.37L70.9776 145.327Z" fill="#111C43"/>
<path d="M78.5989 139.265C80.5806 143.172 81.4717 147.539 81.1782 151.908L72.568 149.703C72.8102 146.418 72.1448 143.13 70.6447 140.197L78.5989 139.265Z" fill="#111C43"/>
<path d="M31.7565 128.307L31.6783 128.287C31.6545 128.272 31.6342 128.252 31.619 128.228C31.6038 128.205 31.5939 128.178 31.5901 128.15C31.5863 128.123 31.5886 128.094 31.5969 128.067C31.6053 128.041 31.6194 128.016 31.6383 127.995C32.2928 127.484 32.9885 127.028 33.7183 126.632C33.7594 126.623 33.802 126.624 33.8428 126.634C33.8835 126.645 33.9213 126.664 33.9531 126.692C33.9932 126.698 34.0325 126.708 34.0705 126.722C34.1679 126.83 34.1672 126.955 34.0591 127.011C33.3487 127.397 32.6704 127.84 32.0307 128.335C31.9866 128.355 31.938 128.363 31.8898 128.358C31.8416 128.353 31.7956 128.336 31.7565 128.307V128.307Z" fill="#111C43"/>
<path d="M71.1162 150.205C71.0663 150.185 71.0237 150.15 70.9942 150.105C70.9647 150.06 70.9496 150.008 70.951 149.954C71.0623 149.169 71.1086 148.376 71.0893 147.583C71.1168 147.475 71.2006 147.392 71.3376 147.427C71.3712 147.431 71.4041 147.44 71.4354 147.452C71.4788 147.472 71.5165 147.503 71.545 147.541C71.5735 147.579 71.5918 147.624 71.5983 147.671C71.6206 148.485 71.5726 149.299 71.4548 150.104C71.4272 150.211 71.3093 150.265 71.1749 150.22L71.1162 150.205Z" fill="#111C43"/>
<path d="M28.6593 131.764C28.5224 131.729 28.4621 131.558 28.5288 131.46C28.9335 130.791 29.3987 130.16 29.9185 129.576C29.958 129.538 30.009 129.515 30.0632 129.51C30.1175 129.505 30.1718 129.519 30.2175 129.548C30.2175 129.548 30.3779 129.777 30.3065 129.852C29.8039 130.432 29.3491 131.05 28.9463 131.702C28.9073 131.749 28.8525 131.778 28.7927 131.786C28.7328 131.794 28.6722 131.779 28.6227 131.745L28.6593 131.764Z" fill="#111C43"/>
<path d="M27.9966 133.785C27.738 134.509 27.5469 135.255 27.4255 136.014C27.4177 136.042 27.4037 136.068 27.3843 136.09C27.365 136.112 27.3409 136.129 27.3139 136.14C27.2869 136.151 27.2577 136.156 27.2285 136.154C27.1994 136.153 27.171 136.144 27.1456 136.13L27.0869 136.115C26.9695 136.085 26.9017 135.942 26.9242 135.854C27.0457 135.075 27.242 134.308 27.5103 133.566C27.5354 133.468 27.6899 133.435 27.8218 133.49C27.9538 133.544 27.8218 133.49 27.8218 133.49C27.8218 133.49 28.0412 133.692 27.9966 133.785Z" fill="#111C43"/>
<path d="M68.5323 156.181C68.6595 156.214 68.6952 156.4 68.631 156.488C68.1202 157.088 67.5563 157.641 66.9462 158.14C66.906 158.172 66.8568 158.19 66.8058 158.191C66.7548 158.193 66.7044 158.179 66.662 158.151L66.5837 158.131C66.5588 158.115 66.5374 158.095 66.5212 158.07C66.505 158.046 66.4943 158.018 66.4898 157.99C66.4853 157.961 66.4871 157.931 66.4952 157.903C66.5032 157.875 66.5173 157.849 66.5364 157.827C67.1369 157.324 67.691 156.769 68.1919 156.167C68.2144 156.079 68.3712 156.077 68.4909 156.139C68.6106 156.201 68.5127 156.176 68.5323 156.181Z" fill="#111C43"/>
<path d="M27.1861 138.369C27.1834 139.189 27.2525 140.009 27.3928 140.818C27.3652 140.925 27.3402 141.023 27.1689 141L27.0025 140.958L26.8444 140.761C26.7061 139.932 26.6419 139.093 26.6528 138.253C26.6803 138.145 26.7616 138.072 26.9108 138.1C27.0601 138.128 26.9695 138.115 26.9891 138.12C27.043 138.137 27.0906 138.17 27.1257 138.214C27.1609 138.258 27.1819 138.312 27.1861 138.369V138.369Z" fill="#111C43"/>
<path d="M64.9229 159.279C65.0202 159.388 65.0195 159.512 64.9212 159.571C64.1644 159.999 63.3733 160.365 62.5561 160.663L62.331 160.605L62.2189 160.514C62.1313 160.408 62.1541 160.279 62.2865 160.25C63.066 159.944 63.8214 159.581 64.5463 159.162C64.5892 159.154 64.6332 159.156 64.6754 159.167C64.7176 159.177 64.757 159.197 64.7909 159.225C64.8381 159.234 64.8829 159.252 64.9229 159.279V159.279Z" fill="#111C43"/>
<path d="M60.0211 161.076C60.0743 161.1 60.1186 161.141 60.1478 161.191C60.2206 161.314 60.1833 161.419 60.0802 161.455C59.5921 161.57 59.0771 161.667 58.5769 161.748C58.0768 161.828 57.7336 161.865 57.317 161.904L57.1017 161.849L56.9531 161.696C56.9407 161.672 56.9348 161.644 56.936 161.617C56.9371 161.589 56.9452 161.563 56.9596 161.539C56.9739 161.516 56.9941 161.496 57.018 161.483C57.042 161.469 57.069 161.462 57.0965 161.462C57.5034 161.421 57.9128 161.369 58.3149 161.305C58.717 161.242 59.3177 161.135 59.7936 161.028C59.8328 161.02 59.873 161.021 59.9121 161.029C59.9511 161.037 59.9882 161.053 60.0211 161.076V161.076Z" fill="#111C43"/>
<path d="M69.2028 151.853C69.0346 152.328 68.839 152.792 68.6169 153.245C66.6898 157.023 62.8346 159.536 57.8329 160.339C52.3878 161.03 46.8621 160.004 42.0274 157.405C37.047 154.932 32.9598 150.972 30.3331 146.074C28.6002 142.917 28.0437 139.248 28.7624 135.721L28.7749 135.672C28.9803 134.773 29.2945 133.901 29.7106 133.078C33.6176 125.274 45.5405 123.421 56.2632 128.94C66.4289 134.19 71.9138 144.16 69.2028 151.853Z" fill="#111C43"/>
<path d="M36.3658 154.839C36.478 154.931 36.4968 155.06 36.4156 155.133C36.3761 155.166 36.3268 155.185 36.2753 155.187C36.2239 155.189 36.1732 155.174 36.1314 155.144L36.0629 155.126C35.1922 154.455 34.4416 153.763 33.7083 153.044C33.6084 152.945 33.6091 152.82 33.6976 152.76C33.7387 152.735 33.7854 152.722 33.8332 152.722C33.8809 152.721 33.9279 152.733 33.9696 152.756C34.0031 152.761 34.0359 152.769 34.0674 152.781C34.7981 153.506 35.5652 154.193 36.3658 154.839V154.839Z" fill="#111C43"/>
<path d="M48.4526 160.812C48.4989 160.83 48.5388 160.861 48.5673 160.902C48.5958 160.943 48.6117 160.991 48.613 161.04C48.5854 161.148 48.4944 161.218 48.3574 161.183C47.3328 160.929 46.3223 160.622 45.33 160.262V160.262C45.2769 160.244 45.2317 160.208 45.2021 160.161C45.1724 160.113 45.1601 160.057 45.1673 160.001C45.1949 159.894 45.32 159.853 45.4643 159.9C46.4177 160.249 47.3861 160.539 48.3645 160.789C48.3949 160.792 48.4246 160.8 48.4526 160.812V160.812Z" fill="#111C43"/>
<path d="M68.0399 158.588L74.9005 164.368C76.7228 162.795 78.2112 160.874 79.278 158.717C80.3443 156.591 80.9895 154.28 81.178 151.91L72.5678 149.704C72.8177 146.411 72.1549 143.112 70.652 140.17L78.5987 139.267C75.8848 133.821 71.918 129.095 67.0236 125.476L62.3591 130.335C60.7309 129.084 58.9923 127.983 57.1649 127.046C55.4176 126.14 53.5907 125.396 51.7074 124.825L52.8645 118.151C47.1143 116.247 40.9912 115.75 35.0101 116.703L38.9387 123.752C35.7048 124.25 32.6739 125.638 30.1857 127.761L23.3838 121.997C21.5574 123.576 20.0642 125.503 18.9916 127.665C17.9255 129.791 17.2803 132.102 17.0915 134.472L25.7017 136.678C25.4606 139.965 26.1249 143.255 27.6225 146.193L19.6758 147.095C22.3923 152.577 26.3729 157.335 31.2896 160.979L35.9174 156.101C37.521 157.324 39.2298 158.404 41.0238 159.326C42.8112 160.25 44.6798 161.008 46.606 161.589L45.466 168.278C51.1929 170.145 57.2839 170.612 63.2278 169.64L59.2771 162.595C62.5154 162.104 65.5511 160.716 68.0399 158.588Z" fill="#FAD091"/>
<path d="M66.0284 135.472L65.911 135.442C65.265 134.671 64.5756 133.938 63.8461 133.246C63.7462 133.148 63.7396 133.01 63.838 132.952C63.8799 132.931 63.9264 132.92 63.9735 132.921C64.0205 132.922 64.0666 132.935 64.1074 132.959C64.1376 132.963 64.1671 132.97 64.1954 132.981C64.9445 133.683 65.6519 134.428 66.314 135.212C66.3991 135.327 66.3886 135.45 66.2439 135.486L66.0284 135.472Z" fill="#111C43"/>
<path d="M44.4808 124.784C43.5276 124.743 42.573 124.76 41.6218 124.833L41.4457 124.788L41.2971 124.635C41.2849 124.61 41.2795 124.582 41.2813 124.554C41.2832 124.526 41.2923 124.499 41.3077 124.475C41.3232 124.452 41.3445 124.433 41.3695 124.42C41.3944 124.408 41.4223 124.402 41.4503 124.403C42.422 124.332 43.3971 124.317 44.3705 124.359C44.4214 124.362 44.4713 124.375 44.5173 124.397C44.5531 124.415 44.585 124.439 44.6114 124.469C44.6377 124.499 44.6578 124.534 44.6706 124.572C44.7213 124.699 44.6155 124.787 44.4808 124.784Z" fill="#111C43"/>
<path d="M35.0014 116.739L38.9301 123.788C35.6962 124.286 32.6652 125.674 30.1771 127.797L23.3852 121.994C26.7055 119.217 30.7222 117.4 35.0014 116.739V116.739Z" fill="#111C43"/>
<path d="M70.902 152.422C70.7163 152.971 70.4923 153.505 70.2315 154.022L70.219 154.071L69.9591 154.556C69.934 154.654 69.7747 154.666 69.6453 154.601C69.4985 154.563 69.448 154.394 69.5024 154.304C69.5568 154.214 69.6684 153.982 69.7501 153.826L70.0143 153.893L69.7749 153.77C70.0299 153.262 70.2482 152.736 70.428 152.197C70.4617 152.148 70.5119 152.114 70.5693 152.1C70.6266 152.086 70.6872 152.093 70.7395 152.12C70.7543 152.129 70.7713 152.133 70.7885 152.133C70.8384 152.16 70.8771 152.204 70.8978 152.257C70.9186 152.31 70.92 152.369 70.902 152.422V152.422Z" fill="#111C43"/>
<path d="M27.9966 143.308C28.2728 144.159 28.6027 144.992 28.9845 145.802C29.0005 145.825 29.0096 145.852 29.0109 145.88C29.0121 145.909 29.0054 145.937 28.9915 145.961C28.9776 145.986 28.957 146.006 28.9322 146.02C28.9073 146.033 28.8792 146.04 28.8509 146.038L28.6748 145.993L28.5237 145.85C28.1313 145.025 27.7916 144.176 27.5067 143.308C27.497 143.281 27.4944 143.252 27.4994 143.224C27.5043 143.197 27.5165 143.17 27.5347 143.149C27.553 143.127 27.5766 143.11 27.6033 143.101C27.63 143.091 27.6588 143.089 27.6868 143.093C27.7421 143.087 27.798 143.101 27.8433 143.134C27.8798 143.15 27.9123 143.174 27.9388 143.204C27.9652 143.235 27.9849 143.27 27.9966 143.308Z" fill="#111C43"/>
<path d="M32.0515 150.598C32.1391 150.704 32.1188 150.824 31.9839 150.862L31.7393 150.8L31.6369 150.711C31.0084 149.948 30.4264 149.149 29.894 148.316C29.8723 148.298 29.8562 148.274 29.8475 148.247C29.8389 148.219 29.838 148.19 29.8451 148.163C29.8521 148.135 29.8668 148.11 29.8874 148.091C29.908 148.071 29.9338 148.058 29.9617 148.052C29.9994 148.046 30.0379 148.048 30.0749 148.058C30.1119 148.067 30.1466 148.084 30.1769 148.107C30.2291 148.133 30.273 148.173 30.3036 148.223C30.8396 149.048 31.4232 149.841 32.0515 150.598V150.598Z" fill="#111C43"/>
<path d="M54.4281 161.622C54.4985 161.66 54.5529 161.722 54.5814 161.797C54.5884 161.824 54.5888 161.851 54.5828 161.878C54.5768 161.905 54.5645 161.93 54.5468 161.951C54.5292 161.972 54.5068 161.988 54.4815 161.999C54.4562 162.009 54.4287 162.014 54.4014 162.011C53.3968 161.987 52.3946 161.904 51.3996 161.763L51.2821 161.733C51.24 161.714 51.203 161.685 51.1743 161.649C51.1455 161.612 51.1258 161.57 51.1168 161.524C51.1443 161.417 51.1694 161.319 51.3505 161.344C52.3219 161.482 53.3005 161.562 54.2813 161.585C54.3322 161.587 54.3821 161.6 54.4281 161.622V161.622Z" fill="#111C43"/>
<path d="M68.1023 158.55L74.9015 164.366C71.5803 167.148 67.5624 168.972 63.2802 169.641L59.3295 162.596C62.5755 162.096 65.6152 160.694 68.1023 158.55V158.55Z" fill="#111C43"/>
<path d="M42.5247 158.677C42.6617 158.712 42.727 158.864 42.6921 158.959C42.6772 158.985 42.6571 159.008 42.6331 159.026C42.6092 159.044 42.5818 159.057 42.5527 159.064C42.5236 159.071 42.4933 159.072 42.4638 159.068C42.4342 159.063 42.4059 159.052 42.3806 159.036L41.4548 158.58L41.3765 158.56C40.4582 158.075 39.5499 157.55 38.6516 156.987C38.5369 156.905 38.4789 156.765 38.5529 156.68C38.6268 156.595 38.7518 156.596 38.8812 156.66C39.7208 157.208 40.6218 157.721 41.5231 158.191L41.6014 158.211L42.5247 158.677Z" fill="#111C43"/>
<path d="M25.7143 136.626C25.4732 139.913 26.1375 143.204 27.6351 146.141L19.6758 147.093C17.6959 143.172 16.8084 138.791 17.1066 134.411L25.7143 136.626Z" fill="#111C43"/>
<path d="M46.6698 161.541L45.5298 168.23C45.0405 168.105 44.5664 167.921 44.0799 167.744L43.9918 167.721C43.8842 167.694 43.7668 167.664 43.6494 167.634C41.7609 166.935 39.9195 166.116 38.1369 165.18C36.6609 164.419 35.2258 163.582 33.8372 162.672L33.7198 162.641L33.5685 162.54C32.8022 162.031 32.0605 161.508 31.3533 160.931L35.9812 156.052C37.5817 157.275 39.2872 158.353 41.0778 159.275C42.8682 160.201 44.7401 160.959 46.6698 161.541V161.541Z" fill="#111C43"/>
<path style="mix-blend-mode:screen" d="M79.2701 158.744C78.1988 160.867 76.7189 162.757 74.9152 164.307C71.598 167.099 67.5773 168.927 63.2914 169.592C57.3473 170.559 51.2575 170.092 45.5296 168.23C45.0502 168.107 44.5662 167.921 44.0797 167.744L44.0015 167.724C43.884 167.694 43.7666 167.664 43.659 167.636C41.7708 166.929 39.9267 166.108 38.1367 165.18C36.6608 164.419 35.2256 163.582 33.8371 162.672C33.8371 162.672 33.7686 162.654 33.7197 162.642L33.5684 162.54C32.802 162.032 32.0603 161.508 31.3532 160.931C26.4209 157.306 22.4188 152.563 19.6754 147.093C17.6974 143.172 16.81 138.792 17.1062 134.411C17.4803 129.61 19.7469 125.153 23.4078 122.022C26.725 119.237 30.744 117.416 35.0266 116.757C41.0077 115.805 47.1308 116.301 52.881 118.205C55.4085 118.985 57.8634 119.984 60.2179 121.189C62.5948 122.419 64.8618 123.85 66.9939 125.467C71.9018 129.082 75.8794 133.812 78.5984 139.265C80.5801 143.171 81.4712 147.539 81.1777 151.908C80.9855 154.288 80.3379 156.609 79.2701 158.744V158.744Z" fill="url(#paint0_linear)"/>
<g style="mix-blend-mode:multiply">
<path style="mix-blend-mode:multiply" d="M74.9 164.368C71.5788 167.15 67.5608 168.974 63.2787 169.643C57.3348 170.615 51.2438 170.148 45.5169 168.281C45.0277 168.156 44.5535 167.972 44.067 167.795L43.9985 167.777C43.8909 167.75 43.7735 167.72 43.6561 167.69C41.7676 166.991 39.9262 166.172 38.1436 165.236C37.5916 164.948 37.0544 164.644 36.5172 164.34C36.2876 164.218 36.058 164.097 35.8334 163.956C35.1522 163.563 34.4858 163.153 33.8439 162.728L33.7265 162.698L33.5752 162.596C32.8089 162.087 32.0672 161.564 31.36 160.987C30.7307 160.513 30.1284 160.015 29.546 159.48C29.3485 159.315 29.1633 159.143 28.9756 158.98C28.5759 158.628 28.1834 158.287 27.8057 157.93C27.6644 157.79 27.5231 157.649 27.3793 157.519C26.9969 157.139 26.6144 156.76 26.2443 156.374C26.103 156.233 25.9642 156.083 25.8352 155.935C25.3604 155.428 24.8979 154.914 24.4574 154.395C24.4359 154.384 24.4127 154.378 24.3889 154.377C23.9753 153.875 23.6033 153.374 23.202 152.864C23.0537 152.67 22.9176 152.469 22.7791 152.277L22.0186 151.176L21.6227 150.564C21.3702 150.165 21.1373 149.772 20.8948 149.335L20.5745 148.795C20.2617 148.225 19.9737 147.599 19.6827 147.066C17.7054 143.155 16.8155 138.785 17.106 134.413L13.6473 140.915C13.3818 145.267 14.2761 149.613 16.239 153.508C16.5175 154.09 16.8105 154.697 17.1308 155.237L17.4511 155.778C17.6815 156.181 17.917 156.564 18.179 157.006L18.5749 157.618C18.8226 157.994 19.0826 158.363 19.3329 158.729L19.7681 159.309L19.9747 159.602L20.8792 160.792L20.9477 160.81C21.3882 161.329 21.8507 161.843 22.323 162.36L22.7419 162.801C23.1048 163.175 23.4847 163.564 23.8697 163.934C24.0109 164.074 24.1522 164.215 24.296 164.345L24.5226 164.56C24.8248 164.845 25.1515 165.117 25.4659 165.395C25.7804 165.674 25.8388 165.73 26.0363 165.896C26.6263 166.401 27.231 166.889 27.8503 167.402C28.2358 167.688 28.6212 167.975 29.0189 168.254C29.4166 168.533 29.7192 168.735 30.0755 168.972L30.2366 169.076L30.3443 169.104C30.9959 169.531 31.6623 169.941 32.341 170.345C32.5583 170.473 32.7977 170.597 33.0248 170.728C33.4082 170.941 33.7891 171.164 34.1847 171.369L34.6439 171.612C36.4295 172.549 38.2742 173.37 40.1662 174.068C40.239 174.082 40.3109 174.101 40.3814 174.123L40.5771 174.174C41.0761 174.301 41.5355 174.502 42.0393 174.652C47.7618 176.569 53.8623 177.078 59.8225 176.134C64.1314 175.46 68.17 173.61 71.4931 170.788C73.1861 169.332 74.5918 167.572 75.6377 165.599L79.0867 159.095C78.0355 161.1 76.6151 162.889 74.9 164.368V164.368Z" fill="url(#paint1_linear)"/>
<path style="mix-blend-mode:multiply" d="M17.3074 132.861L17.4251 132.401C17.5269 132.003 17.6296 131.603 17.7332 131.198C17.7657 131.071 17.7958 130.954 17.8283 130.827C17.9586 130.318 18.0788 129.849 18.3292 129.319L18.4144 128.987C18.5983 128.513 18.8018 128.044 19.0347 127.583L19.2031 127.251L15.7542 133.755L15.5785 134.074L15.2784 134.716L14.9581 135.478L14.8705 135.82C14.6815 136.314 14.532 136.776 14.3721 137.318L14.2769 137.69C14.1743 138.091 14.0716 138.492 13.9689 138.892L13.8609 139.354C13.8309 139.472 13.8008 139.589 13.7733 139.697C13.6731 140.088 13.661 140.501 13.6293 140.91L17.1076 134.414C17.1347 133.942 17.2188 133.369 17.3074 132.861Z" fill="url(#paint2_linear)"/>
</g>
<g style="mix-blend-mode:soft-light">
<g style="mix-blend-mode:soft-light">
<path d="M81.1777 151.908C81.0718 153.867 80.6515 155.797 79.933 157.622C79.2037 159.456 78.1861 161.161 76.9184 162.674C75.624 164.17 74.118 165.469 72.4482 166.53C70.7744 167.592 68.974 168.44 67.0889 169.054C66.1506 169.369 65.1956 169.632 64.2282 169.843C63.257 170.052 62.3056 170.225 61.3153 170.347C59.3487 170.566 57.3672 170.623 55.3911 170.517C53.4195 170.416 51.4582 170.168 49.5236 169.775C48.5452 169.524 47.6006 169.344 46.6666 169.043C45.7325 168.741 44.7298 168.463 43.8642 168.179L42.5197 167.689L41.1385 167.178C40.2441 166.803 39.3694 166.392 38.4998 165.961C38.28 165.842 38.0918 165.762 37.8379 165.614L37.2129 165.246L35.9799 164.523L34.7103 163.781C34.3025 163.541 33.8825 163.309 33.4798 163.049C33.2735 162.927 33.0747 162.793 32.8844 162.647L32.3549 162.272L31.3228 161.538C30.5934 161.008 29.957 160.48 29.2695 159.908C27.9389 158.778 26.6785 157.568 25.4954 156.284C23.1065 153.729 21.1147 150.831 19.5864 147.685C18.0113 144.545 17.0874 141.118 16.8702 137.612C16.6291 134.133 17.354 130.656 18.9649 127.563C17.5238 130.681 16.9364 134.126 17.2625 137.546C17.6052 140.952 18.6021 144.261 20.1986 147.29C21.7824 150.316 23.78 153.107 26.1338 155.583C27.2985 156.829 28.5413 158 29.8546 159.089C30.5008 159.619 31.2006 160.184 31.8643 160.646L33.9353 162.208C34.128 162.351 34.343 162.447 34.5505 162.573L35.178 162.932L36.411 163.654L37.6957 164.338L38.3232 164.696L38.9314 165.009C39.784 165.425 40.644 165.812 41.5189 166.182L42.8288 166.726L44.1781 167.238C45.1365 167.567 46.0217 167.856 46.9632 168.129C47.9048 168.401 48.8223 168.605 49.7616 168.846C51.6444 169.246 53.5552 169.503 55.4771 169.612C57.3964 169.736 59.3228 169.693 61.2344 169.482C62.1781 169.38 63.1513 169.244 64.0857 169.056C65.0201 168.868 65.9644 168.641 66.8797 168.365C68.7205 167.804 70.4861 167.021 72.1375 166.034C73.7783 165.035 75.271 163.811 76.5721 162.398C79.1865 159.481 80.8001 155.806 81.1777 151.908V151.908Z" fill="#111C43"/>
</g>
</g>
</g>
<g clip-path="url(#clip1)" filter="url(#filter0_f)">
<path d="M55.1293 215.984L56.5491 221.039C56.708 219.434 56.5654 217.813 56.1286 216.26L54.6895 211.141C55.1396 212.713 55.2888 214.356 55.1293 215.984V215.984Z" fill="#FAD091"/>
<path d="M9.3113 228.225L9.14374 227.926C8.99877 227.668 8.85261 227.407 8.70526 227.144C8.65891 227.061 8.61613 226.985 8.56979 226.902C8.38441 226.572 8.2133 226.266 8.08011 225.865L7.9589 225.648C7.81884 225.309 7.69151 224.962 7.58328 224.605L7.50586 224.348L8.94503 229.467L9.01252 229.722L9.17576 230.207L9.38814 230.765L9.51291 230.988C9.6601 231.34 9.81212 231.656 9.99903 232.019L10.1345 232.261C10.2807 232.522 10.4268 232.782 10.573 233.043L10.7469 233.339C10.7897 233.415 10.8325 233.491 10.8717 233.561C11.0143 233.816 11.2142 234.038 11.4013 234.267L9.98123 229.137C9.75996 228.877 9.51857 228.536 9.3113 228.225Z" fill="#FAD091"/>
<path d="M51.6653 224.504L53.1123 229.652C55.0291 227.152 56.2183 224.171 56.5487 221.039L55.1289 215.984C54.7688 219.085 53.5715 222.03 51.6653 224.504V224.504Z" fill="#111C43"/>
<path d="M9.98169 229.135L11.4145 234.258C13.4457 236.666 16.0797 238.492 19.0479 239.55L17.6471 234.484C14.6575 233.422 12.0097 231.574 9.98169 229.135Z" fill="#111C43"/>
<path d="M41.7011 232.646L43.1331 237.753C47.0614 235.892 50.4843 233.113 53.1128 229.652L51.6836 224.535C49.052 227.997 45.6288 230.779 41.7011 232.646V232.646Z" fill="#FAD091"/>
<path d="M32.081 241.015L30.6517 235.899C30.0865 235.965 29.5233 236.004 28.9523 236.015C28.7667 236.027 28.5839 236.029 28.4046 236.038C28.0199 236.053 27.6452 236.071 27.2696 236.072C27.1258 236.069 26.9819 236.066 26.8416 236.07C26.4526 236.062 26.0636 236.055 25.6773 236.037C25.5335 236.034 25.3861 236.025 25.245 236.012C24.744 235.983 24.2457 235.945 23.7566 235.893C23.7403 235.899 23.7251 235.907 23.7121 235.918C23.2456 235.862 22.8011 235.785 22.3375 235.719C22.1631 235.691 21.9915 235.654 21.8234 235.623L20.8768 235.426L20.3648 235.304C20.0343 235.221 19.7166 235.132 19.3718 235.024L18.9349 234.901C18.4873 234.759 18.0247 234.576 17.6069 234.442L19.0488 239.552C19.4845 239.717 19.94 239.888 20.3769 240.011L20.8138 240.134C21.1351 240.23 21.4493 240.313 21.8068 240.413L22.3188 240.536C22.6357 240.609 22.9555 240.672 23.269 240.739L23.7858 240.825L24.0396 240.875L25.1059 241.046L25.1505 241.021C25.6396 241.073 26.1378 241.112 26.6424 241.146L27.0811 241.168C27.4574 241.183 27.85 241.197 28.2355 241.198C28.3793 241.201 28.5232 241.204 28.6635 241.201L28.8888 241.2C29.1892 241.198 29.4952 241.177 29.7985 241.166C30.1017 241.155 30.1605 241.155 30.3461 241.143C30.9561 241.127 31.5158 241.081 32.081 241.015Z" fill="#FAD091"/>
<path d="M40.7267 233.102L40.6822 233.127C40.6122 233.166 40.5358 233.209 40.4594 233.252C39.124 233.828 37.7527 234.317 36.3541 234.717C35.9223 234.842 35.4897 234.95 35.0572 235.059C34.8767 235.11 34.6962 235.161 34.5085 235.2C33.9563 235.334 33.4033 235.451 32.8559 235.549L32.7796 235.592L32.65 235.614C31.9957 235.73 31.3469 235.826 30.6896 235.877L32.1224 241C32.4666 240.958 32.8108 240.915 33.1578 240.863C33.5048 240.811 33.764 240.766 34.0685 240.712L34.2045 240.686L34.2745 240.647C34.8282 240.545 35.3812 240.428 35.937 240.3C36.1147 240.259 36.3016 240.204 36.4857 240.16C36.7922 240.08 37.1023 240.006 37.4116 239.916L37.7726 239.814C39.1735 239.414 40.547 238.924 41.8843 238.346C41.9293 238.317 41.9761 238.29 42.0243 238.267L42.1516 238.196C42.4762 238.014 42.8166 237.89 43.1547 237.717L41.7191 232.604C41.3917 232.796 41.0437 232.966 40.7267 233.102Z" fill="#111C43"/>
<path d="M25.9297 200.731C27.7872 200.187 29.6881 199.804 31.6113 199.586L31.6076 204.444C30.1599 204.597 28.7291 204.882 27.3329 205.294L27.2629 205.333C25.8978 205.731 24.5721 206.253 23.3024 206.893L20.5695 202.808C22.2934 201.963 24.0868 201.268 25.9297 200.731V200.731Z" fill="#111C43"/>
<path d="M27.3143 206.04C27.3499 206.103 27.2758 206.195 27.176 206.226C26.4647 206.449 25.7358 206.716 25.0474 207.009C25.0109 207.023 24.971 207.025 24.9334 207.014C24.8959 207.004 24.8628 206.982 24.8389 206.951C24.7996 206.881 24.8348 206.794 24.9437 206.75C25.6531 206.447 26.3775 206.18 27.1141 205.951C27.1758 205.942 27.2878 205.963 27.3143 206.04Z" fill="#111C43"/>
<path d="M23.1052 207.782C23.1445 207.852 23.1221 207.931 23.0365 207.987C22.3946 208.337 21.7726 208.722 21.1734 209.14L21.0971 209.183C21.0662 209.194 21.0332 209.196 21.001 209.191C20.9689 209.186 20.9385 209.173 20.9127 209.153C20.8735 209.083 20.8379 209.019 20.9489 208.949C21.5616 208.52 22.1972 208.124 22.8529 207.764C22.8529 207.764 22.8911 207.743 22.9102 207.732C22.944 207.72 22.9805 207.719 23.0152 207.728C23.0499 207.736 23.0812 207.755 23.1052 207.782V207.782Z" fill="#111C43"/>
<path d="M40.163 206.219L40.0256 206.213C39.3749 205.989 38.7118 205.802 38.0396 205.654C38.0196 205.652 38.0003 205.646 37.9835 205.635C37.9666 205.624 37.9527 205.609 37.9429 205.591C37.9331 205.574 37.9277 205.554 37.9271 205.534C37.9266 205.514 37.9309 205.494 37.9398 205.476C37.9757 205.434 38.0254 205.406 38.0798 205.398C38.1329 205.383 38.1886 205.38 38.2428 205.39C38.9158 205.534 39.5791 205.721 40.2287 205.948C40.2486 205.953 40.2668 205.963 40.2817 205.977C40.2965 205.991 40.3074 206.009 40.3133 206.028C40.3192 206.048 40.3198 206.069 40.3152 206.088C40.3105 206.108 40.3007 206.127 40.2868 206.142L40.163 206.219Z" fill="#111C43"/>
<path d="M16.7869 213.461C16.4269 213.983 16.1044 214.53 15.8218 215.097L15.6754 215.179L15.5677 215.181C15.5481 215.18 15.5291 215.174 15.5124 215.164C15.4958 215.153 15.482 215.139 15.4724 215.122C15.4628 215.105 15.4577 215.085 15.4575 215.066C15.4574 215.046 15.4622 215.027 15.4715 215.01C15.7617 214.428 16.0934 213.867 16.464 213.333C16.4983 213.297 16.5427 213.272 16.5913 213.262C16.6354 213.252 16.6812 213.252 16.7252 213.262C16.7485 213.262 16.7712 213.27 16.79 213.283C16.8087 213.297 16.8225 213.317 16.8294 213.339C16.8363 213.361 16.8359 213.385 16.8282 213.407C16.8206 213.429 16.8061 213.448 16.7869 213.461V213.461Z" fill="#111C43"/>
<path d="M43.586 207.986L43.3953 207.96C42.8903 207.6 42.36 207.277 41.8083 206.994C41.7903 206.985 41.7748 206.972 41.7634 206.955C41.752 206.939 41.745 206.92 41.7431 206.9C41.7412 206.88 41.7444 206.86 41.7525 206.842C41.7605 206.823 41.7732 206.807 41.7892 206.795C41.8171 206.767 41.8524 206.747 41.891 206.738C41.9484 206.722 42.0099 206.726 42.0646 206.75C42.6276 207.046 43.1712 207.378 43.6921 207.743C43.7075 207.756 43.7195 207.773 43.7271 207.791C43.7347 207.81 43.7377 207.83 43.7357 207.85C43.7338 207.87 43.727 207.889 43.7159 207.906C43.7049 207.923 43.6899 207.937 43.6723 207.946L43.586 207.986Z" fill="#111C43"/>
<path d="M44.55 201.018C47.5334 202.072 50.1766 203.911 52.2012 206.342L46.6003 209.481C45.0895 207.643 43.1025 206.256 40.8562 205.471L44.55 201.018Z" fill="#111C43"/>
<path d="M14.597 218.642L14.5461 218.67C14.5262 218.674 14.5057 218.674 14.486 218.669C14.4662 218.664 14.4478 218.655 14.4319 218.643C14.4161 218.63 14.4032 218.614 14.3942 218.596C14.3852 218.578 14.3803 218.558 14.3798 218.538C14.4672 217.944 14.6036 217.359 14.7875 216.788C14.8047 216.763 14.8274 216.742 14.8539 216.727C14.8804 216.712 14.9099 216.704 14.9403 216.702C14.9643 216.686 14.9899 216.671 15.0167 216.66C15.1216 216.668 15.1834 216.733 15.1547 216.816C14.976 217.373 14.8422 217.942 14.7546 218.52C14.7415 218.552 14.72 218.581 14.6923 218.602C14.6646 218.624 14.6317 218.637 14.597 218.642V218.642Z" fill="#111C43"/>
<path d="M46.0904 210.468C46.0545 210.482 46.0149 210.486 45.9771 210.477C45.9393 210.468 45.9051 210.448 45.8791 210.419C45.5458 209.953 45.1746 209.516 44.7692 209.111C44.73 209.041 44.7325 208.956 44.8216 208.906C44.8412 208.891 44.8626 208.879 44.8853 208.87C44.9179 208.859 44.9527 208.856 44.9867 208.862C45.0207 208.867 45.0526 208.882 45.0796 208.903C45.4968 209.317 45.8774 209.767 46.2172 210.247C46.2564 210.316 46.2213 210.403 46.1286 210.447L46.0904 210.468Z" fill="#111C43"/>
<path d="M14.7035 221.995C14.6144 222.045 14.4973 221.986 14.4835 221.901C14.3615 221.35 14.2903 220.788 14.2708 220.223C14.2727 220.184 14.2879 220.147 14.3137 220.117C14.3396 220.087 14.3747 220.067 14.4134 220.06C14.4134 220.06 14.6112 220.1 14.6115 220.175C14.6374 220.728 14.708 221.278 14.8227 221.82C14.8252 221.863 14.8114 221.906 14.784 221.94C14.7566 221.974 14.7176 221.997 14.6745 222.003L14.7035 221.995Z" fill="#111C43"/>
<path d="M15.3615 223.382C15.5872 223.889 15.8593 224.375 16.1743 224.832C16.1843 224.851 16.1899 224.871 16.1907 224.892C16.1915 224.913 16.1875 224.934 16.1789 224.954C16.1704 224.973 16.1575 224.99 16.1414 225.004C16.1252 225.017 16.1062 225.027 16.0857 225.032L16.0475 225.053C15.9711 225.096 15.8647 225.056 15.8326 224.998C15.5074 224.53 15.2281 224.032 14.9984 223.51C14.9628 223.446 15.0269 223.352 15.1232 223.315C15.2194 223.278 15.1232 223.315 15.1232 223.315C15.1232 223.315 15.3385 223.311 15.3615 223.382Z" fill="#111C43"/>
<path d="M47.7197 214.883C47.8025 214.836 47.914 214.916 47.9242 214.994C47.9564 215.562 47.9372 216.132 47.867 216.697C47.8617 216.734 47.845 216.768 47.8192 216.794C47.7935 216.821 47.7601 216.838 47.7237 216.845L47.6728 216.873C47.6521 216.878 47.6307 216.877 47.6101 216.873C47.5895 216.868 47.5702 216.859 47.5534 216.846C47.5366 216.833 47.5229 216.817 47.5131 216.798C47.5033 216.78 47.4977 216.759 47.4966 216.738C47.5601 216.176 47.5728 215.609 47.5346 215.045C47.5026 214.988 47.5838 214.909 47.6772 214.881C47.7706 214.854 47.707 214.89 47.7197 214.883Z" fill="#111C43"/>
<path d="M17.2242 226.183C17.632 226.613 18.0767 227.007 18.5533 227.36C18.5925 227.43 18.6282 227.494 18.5271 227.567L18.4189 227.628L18.2381 227.603C17.7527 227.239 17.3007 226.832 16.8876 226.388C16.8484 226.318 16.8545 226.239 16.9464 226.179C17.0383 226.12 16.9846 226.158 16.9974 226.151C17.034 226.133 17.0752 226.126 17.1157 226.132C17.1561 226.138 17.1939 226.155 17.2242 226.183V226.183Z" fill="#111C43"/>
<path d="M47.3775 218.301C47.4824 218.31 47.5442 218.375 47.5218 218.455C47.34 219.056 47.1086 219.641 46.83 220.205L46.6836 220.287L46.5795 220.295C46.4809 220.283 46.4282 220.204 46.4832 220.123C46.7384 219.575 46.9519 219.008 47.1221 218.428C47.1407 218.402 47.1645 218.381 47.192 218.366C47.2194 218.351 47.2499 218.341 47.2812 218.339C47.3105 218.32 47.3433 218.307 47.3775 218.301V218.301Z" fill="#111C43"/>
<path d="M45.7094 221.686C45.7495 221.672 45.7928 221.671 45.8334 221.683C45.9327 221.711 45.9655 221.784 45.9296 221.855C45.7316 222.158 45.5109 222.466 45.2894 222.757C45.0679 223.048 44.907 223.239 44.7087 223.467L44.5687 223.545L44.4149 223.54C44.3962 223.533 44.3795 223.522 44.3664 223.507C44.3533 223.492 44.3442 223.474 44.34 223.454C44.3358 223.435 44.3367 223.415 44.3425 223.396C44.3483 223.377 44.3588 223.359 44.3731 223.346C44.5651 223.121 44.7535 222.89 44.9319 222.656C45.1104 222.423 45.3713 222.067 45.5666 221.774C45.5834 221.751 45.6047 221.731 45.6292 221.716C45.6537 221.7 45.6809 221.69 45.7094 221.686V221.686Z" fill="#111C43"/>
<path d="M45.9124 212.284C46.0612 212.617 46.1906 212.957 46.3 213.304C47.176 216.24 46.4135 219.476 44.1987 222.389C41.6965 225.465 38.2963 227.683 34.473 228.735C30.6368 229.925 26.5257 229.892 22.7104 228.641C20.2307 227.854 18.111 226.214 16.7282 224.012L16.7104 223.98C16.3693 223.407 16.0992 222.795 15.9062 222.157C14.0586 216.13 19.368 209.217 27.7248 206.756C35.6569 204.433 43.4945 206.911 45.9124 212.284Z" fill="#111C43"/>
<path d="M30.2338 230.216C30.3379 230.208 30.4125 230.266 30.4064 230.345C30.4022 230.382 30.3858 230.416 30.3599 230.443C30.3339 230.47 30.2999 230.487 30.2631 230.492L30.2185 230.517C29.4287 230.6 28.6912 230.613 27.9493 230.602C27.8479 230.6 27.7861 230.535 27.8021 230.459C27.8115 230.426 27.8294 230.396 27.854 230.372C27.8787 230.347 27.9092 230.33 27.9426 230.322C27.9623 230.307 27.9837 230.295 28.0063 230.286C28.7494 230.301 29.4929 230.277 30.2338 230.216V230.216Z" fill="#111C43"/>
<path d="M39.5299 227.313C39.5631 227.299 39.5996 227.296 39.6348 227.303C39.67 227.31 39.7023 227.327 39.7277 227.353C39.7669 227.423 39.7544 227.505 39.6653 227.555C39.0031 227.933 38.3215 228.276 37.6233 228.582V228.582C37.5866 228.599 37.5451 228.603 37.506 228.593C37.4668 228.583 37.4323 228.56 37.4084 228.527C37.3692 228.457 37.4142 228.373 37.5133 228.326C38.1854 228.033 38.8361 227.702 39.4726 227.345C39.4898 227.331 39.5092 227.321 39.5299 227.313V227.313Z" fill="#111C43"/>
<path d="M48.6611 216.386L55.129 215.987C55.2977 214.256 55.1179 212.51 54.6003 210.85C54.0983 209.208 53.2833 207.678 52.2003 206.344L46.5993 209.484C45.0881 207.637 43.097 206.243 40.8445 205.454L44.5491 201.021C40.4152 199.526 35.9853 199.033 31.6226 199.582L31.6062 204.447C30.1312 204.605 28.6734 204.896 27.2509 205.317C25.8858 205.714 24.5601 206.236 23.2904 206.876L20.5681 202.81C16.6128 204.682 13.1641 207.474 10.5121 210.954L16.0803 212.681C14.6378 214.554 13.7454 216.79 13.503 219.141L7.07338 219.518C6.90568 221.254 7.08568 223.006 7.60287 224.671C8.10504 226.314 8.91997 227.844 10.0029 229.177L15.6038 226.038C17.1165 227.876 19.1043 229.266 21.3515 230.054L17.6469 234.488C21.7998 235.999 26.2532 236.503 30.6401 235.957L30.6275 231.099C32.0758 230.939 33.5072 230.652 34.9049 230.239C36.3 229.832 37.6546 229.296 38.9517 228.64L41.6902 232.705C45.6149 230.826 49.032 228.034 51.6549 224.562L46.0775 222.849C47.5256 220.978 48.4206 218.739 48.6611 216.386Z" fill="#FAD091"/>
<path d="M36.0862 205.304L36.0098 205.347C35.2879 205.266 34.562 205.227 33.8355 205.229C33.7342 205.227 33.6624 205.158 33.6848 205.079C33.696 205.047 33.7151 205.018 33.7402 204.995C33.7654 204.972 33.7959 204.956 33.8289 204.948C33.8466 204.935 33.8658 204.924 33.8862 204.916C34.6276 204.909 35.3687 204.946 36.1058 205.026C36.2079 205.044 36.2634 205.113 36.2056 205.204L36.0862 205.304Z" fill="#111C43"/>
<path d="M19.494 210.457C18.9756 210.911 18.4847 211.395 18.0238 211.908L17.9093 211.972L17.7555 211.966C17.7365 211.959 17.7197 211.947 17.7068 211.931C17.6938 211.916 17.6851 211.897 17.6815 211.877C17.678 211.857 17.6796 211.837 17.6864 211.818C17.6932 211.799 17.7048 211.782 17.7201 211.768C18.1926 211.247 18.695 210.753 19.2249 210.29C19.2528 210.266 19.2853 210.248 19.3204 210.236C19.3479 210.228 19.3768 210.225 19.4055 210.227C19.4342 210.23 19.4621 210.238 19.4876 210.251C19.5778 210.293 19.5661 210.391 19.494 210.457Z" fill="#111C43"/>
<path d="M10.5267 210.978L16.095 212.705C14.6525 214.577 13.76 216.814 13.5177 219.164L7.07377 219.516C7.42525 216.409 8.61923 213.457 10.5267 210.978V210.978Z" fill="#111C43"/>
<path d="M47.0851 211.734C47.2614 212.113 47.4107 212.504 47.5321 212.904L47.5499 212.936L47.6561 213.319C47.6917 213.383 47.6141 213.468 47.5143 213.499C47.4188 213.553 47.3081 213.489 47.2915 213.415C47.275 213.341 47.2177 213.164 47.1825 213.041L47.3544 212.945L47.1675 213C47.0476 212.607 46.8997 212.223 46.7249 211.852C46.7183 211.81 46.7274 211.767 46.7503 211.731C46.7733 211.695 46.8086 211.668 46.8496 211.657C46.8617 211.654 46.8727 211.648 46.8815 211.639C46.9211 211.628 46.9633 211.632 47.0005 211.649C47.0378 211.667 47.0677 211.696 47.0851 211.734V211.734Z" fill="#111C43"/>
<path d="M20.1103 228.358C20.6789 228.666 21.2665 228.937 21.8696 229.169C21.8896 229.174 21.908 229.183 21.9228 229.198C21.9375 229.212 21.948 229.23 21.953 229.25C21.958 229.269 21.9574 229.29 21.9511 229.31C21.9449 229.329 21.9333 229.346 21.9178 229.36L21.8032 229.424L21.653 229.425C21.0365 229.189 20.4356 228.914 19.8539 228.602C19.8355 228.593 19.8198 228.58 19.8085 228.563C19.7971 228.545 19.7904 228.526 19.7892 228.505C19.7879 228.485 19.792 228.464 19.8011 228.446C19.8102 228.428 19.824 228.412 19.8411 228.401C19.8667 228.369 19.9031 228.349 19.943 228.344C19.9703 228.334 19.9994 228.33 20.0282 228.333C20.0571 228.336 20.085 228.344 20.1103 228.358Z" fill="#111C43"/>
<path d="M25.8638 230.148C25.9623 230.159 26.0115 230.232 25.96 230.319L25.8009 230.409L25.7032 230.413C24.9944 230.328 24.2914 230.2 23.5981 230.03C23.5776 230.031 23.5571 230.027 23.5391 230.017C23.5211 230.007 23.5062 229.992 23.4961 229.974C23.4861 229.956 23.4813 229.936 23.4823 229.916C23.4833 229.895 23.4901 229.875 23.5018 229.858C23.5187 229.836 23.5398 229.818 23.5638 229.805C23.5879 229.791 23.6144 229.783 23.6419 229.78C23.6821 229.767 23.7251 229.767 23.7659 229.777C24.4573 229.941 25.1578 230.065 25.8638 230.148V230.148Z" fill="#111C43"/>
<path d="M43.0596 224.756C43.1153 224.741 43.1747 224.746 43.2268 224.771C43.2437 224.781 43.2578 224.796 43.268 224.813C43.2782 224.829 43.2841 224.849 43.2854 224.868C43.2866 224.888 43.2831 224.908 43.2752 224.926C43.2672 224.944 43.255 224.96 43.2396 224.973C42.7021 225.461 42.1368 225.917 41.5466 226.339L41.4702 226.382C41.4386 226.393 41.4048 226.396 41.3716 226.392C41.3385 226.387 41.3069 226.375 41.2795 226.355C41.2403 226.285 41.2047 226.222 41.3121 226.145C41.8883 225.732 42.4399 225.286 42.9641 224.809C42.9921 224.785 43.0245 224.767 43.0596 224.756V224.756Z" fill="#111C43"/>
<path d="M48.6764 216.336L55.1302 215.987C54.7809 219.097 53.5895 222.054 51.6844 224.538L46.107 222.825C47.5544 220.945 48.4447 218.696 48.6764 216.336V216.336Z" fill="#111C43"/>
<path d="M35.3666 229.153C35.4557 229.103 35.5657 229.15 35.5949 229.217C35.6 229.238 35.6008 229.26 35.5973 229.282C35.5937 229.303 35.5859 229.323 35.5742 229.342C35.5626 229.36 35.5474 229.376 35.5295 229.388C35.5116 229.4 35.4914 229.408 35.4702 229.413L34.7589 229.636L34.7079 229.664C33.9859 229.869 33.2496 230.047 32.4991 230.2C32.3985 230.215 32.2984 230.171 32.2946 230.089C32.2908 230.008 32.3565 229.946 32.4563 229.915C33.1686 229.783 33.895 229.602 34.6007 229.399L34.6517 229.37L35.3666 229.153Z" fill="#111C43"/>
<path d="M15.5853 226.005C17.098 227.844 19.0858 229.233 21.333 230.022L17.6462 234.487C14.6566 233.425 12.0088 231.577 9.98078 229.138L15.5853 226.005Z" fill="#111C43"/>
<path d="M38.9622 228.582L41.7007 232.648C41.3825 232.826 41.0429 232.966 40.7005 233.116L40.6432 233.148C40.5732 233.188 40.4968 233.23 40.4204 233.273C39.085 233.85 37.7137 234.339 36.3151 234.738C35.1643 235.077 33.9967 235.354 32.8169 235.571L32.7406 235.614L32.611 235.636C31.9566 235.752 31.3079 235.848 30.6506 235.899L30.6379 231.041C32.084 230.883 33.5133 230.596 34.9091 230.185C36.3064 229.777 37.6632 229.24 38.9622 228.582V228.582Z" fill="#111C43"/>
<path style="mix-blend-mode:screen" d="M54.6112 210.868C55.1094 212.512 55.2781 214.238 55.1079 215.948C54.7655 219.061 53.5748 222.021 51.6656 224.505C49.0401 227.974 45.6236 230.766 41.701 232.648C41.3891 232.823 41.0431 232.967 40.7007 233.117L40.6497 233.146C40.5734 233.188 40.497 233.231 40.427 233.27C39.087 233.842 37.714 234.332 36.3153 234.739C35.1645 235.077 33.9969 235.355 32.8172 235.571C32.8172 235.571 32.7726 235.596 32.7408 235.614L32.6112 235.637C31.9569 235.753 31.3082 235.849 30.6508 235.9C26.2649 236.463 21.8084 235.979 17.6472 234.487C14.6583 233.423 12.0108 231.576 9.98174 229.138C7.78351 226.441 6.74694 222.981 7.09989 219.519C7.44555 216.41 8.63872 213.454 10.5493 210.975C13.2013 207.495 16.65 204.702 20.6053 202.831C22.3156 201.978 24.0968 201.276 25.9286 200.733C27.7843 200.191 29.683 199.809 31.6038 199.591C35.9719 199.035 40.4092 199.524 44.5494 201.02C47.5327 202.074 50.1759 203.913 52.2006 206.344C53.2865 207.684 54.1049 209.22 54.6112 210.868V210.868Z" fill="url(#paint3_linear)"/>
<g style="mix-blend-mode:multiply">
<path style="mix-blend-mode:multiply" d="M55.1299 215.984C54.7806 219.094 53.5893 222.051 51.6841 224.535C49.0612 228.007 45.6441 230.799 41.7194 232.678C41.4012 232.856 41.0616 232.997 40.7192 233.147L40.6746 233.172C40.6046 233.211 40.5282 233.254 40.4518 233.297C39.1164 233.873 37.7451 234.362 36.3465 234.762C35.9147 234.887 35.4822 234.996 35.0496 235.104C34.8691 235.155 34.6886 235.206 34.501 235.245C33.9487 235.379 33.3958 235.496 32.8484 235.594L32.772 235.637L32.6424 235.659C31.9881 235.775 31.3394 235.872 30.682 235.922C30.1168 235.988 29.5536 236.028 28.9826 236.039C28.797 236.051 28.6142 236.053 28.4349 236.062C28.0502 236.077 27.6754 236.095 27.2999 236.096C27.1561 236.093 27.0122 236.09 26.8719 236.094C26.4829 236.086 26.0939 236.078 25.7076 236.061C25.5638 236.058 25.4164 236.049 25.2753 236.036C24.7743 236.007 24.276 235.969 23.7869 235.917C23.7706 235.922 23.7554 235.931 23.7424 235.942C23.2759 235.886 22.8314 235.809 22.3677 235.743C22.1933 235.715 22.0217 235.678 21.8537 235.647L20.9071 235.45L20.3951 235.327C20.0646 235.245 19.7468 235.156 19.4021 235.048L18.9652 234.925C18.5176 234.783 18.055 234.6 17.6372 234.466C14.6536 233.407 12.0099 231.566 9.98241 229.136L11.4152 234.259C13.4464 236.667 16.0804 238.493 19.0486 239.551C19.4842 239.716 19.9397 239.887 20.3766 240.01L20.8135 240.133C21.1348 240.229 21.449 240.312 21.8065 240.412L22.3185 240.535C22.6355 240.608 22.9553 240.671 23.2687 240.738L23.7855 240.824L24.0394 240.874L25.1057 241.046L25.1502 241.021C25.6393 241.072 26.1376 241.111 26.6422 241.146L27.0809 241.167C27.4572 241.182 27.8498 241.196 28.2352 241.197C28.3791 241.2 28.5229 241.203 28.6632 241.2L28.8885 241.199C29.189 241.198 29.495 241.177 29.7982 241.165C30.1014 241.154 30.1603 241.155 30.3459 241.143C30.9062 241.113 31.4658 241.067 32.0453 241.026C32.3895 240.983 32.7337 240.941 33.0808 240.889C33.4278 240.836 33.687 240.791 33.9914 240.738L34.1274 240.711L34.1974 240.672C34.7512 240.571 35.3041 240.453 35.8599 240.325C36.0376 240.284 36.2245 240.23 36.4086 240.185C36.7151 240.105 37.0252 240.032 37.3345 239.942L37.6956 239.84C39.0964 239.44 40.4699 238.949 41.8072 238.371C41.8523 238.342 41.899 238.316 41.9473 238.293L42.0746 238.221C42.3992 238.039 42.7396 237.915 43.0776 237.743C47.0251 235.892 50.4678 233.117 53.1133 229.652C55.0301 227.152 56.2193 224.171 56.5498 221.039C56.7086 219.434 56.566 217.813 56.1293 216.26L54.6901 211.14C55.1402 212.713 55.2894 214.356 55.1299 215.984V215.984Z" fill="url(#paint4_linear)"/>
<path style="mix-blend-mode:multiply" d="M9.3113 228.225L9.14375 227.926C8.99877 227.668 8.85261 227.407 8.70526 227.144C8.65892 227.061 8.61614 226.985 8.56979 226.902C8.38442 226.572 8.2133 226.266 8.08011 225.865L7.9589 225.648C7.81884 225.309 7.69151 224.962 7.58328 224.605L7.50586 224.348L8.94504 229.467L9.01252 229.722L9.17577 230.207L9.38815 230.765L9.51292 230.988C9.66011 231.34 9.81213 231.656 9.99904 232.019L10.1345 232.261C10.2807 232.522 10.4268 232.782 10.573 233.043L10.7469 233.338C10.7897 233.415 10.8325 233.491 10.8717 233.561C11.0143 233.815 11.2142 234.038 11.4013 234.267L9.98123 229.137C9.75996 228.877 9.51857 228.535 9.3113 228.225Z" fill="url(#paint5_linear)"/>
</g>
<g style="mix-blend-mode:soft-light">
<g style="mix-blend-mode:soft-light">
<path d="M52.2013 206.343C53.1226 207.42 53.8646 208.638 54.399 209.951C54.932 211.273 55.2502 212.672 55.3417 214.095C55.4106 215.522 55.2709 216.952 54.927 218.34C54.5813 219.729 54.0627 221.07 53.3834 222.331C53.05 222.963 52.6819 223.577 52.2809 224.169C51.8777 224.763 51.4665 225.328 51.0093 225.885C50.0906 226.98 49.0831 227.998 47.9971 228.927C46.9162 229.858 45.7671 230.706 44.5595 231.464C43.923 231.821 43.3397 232.198 42.701 232.506C42.0622 232.814 41.3995 233.168 40.8053 233.451L39.8579 233.865L38.8816 234.287C38.227 234.537 37.5646 234.758 36.895 234.966C36.7208 235.014 36.5829 235.066 36.3761 235.115L35.8657 235.234L34.861 235.471L33.8274 235.716C33.4946 235.794 33.1591 235.882 32.8192 235.947C32.6504 235.986 32.4794 236.014 32.3072 236.033L31.8433 236.101L30.9382 236.232C30.2923 236.318 29.6965 236.36 29.0519 236.403C27.7929 236.476 26.5307 236.471 25.2723 236.39C22.7498 236.246 20.2634 235.723 17.8964 234.841C15.5072 233.984 13.3161 232.653 11.4547 230.929C9.59433 229.23 8.23963 227.051 7.53994 224.631C8.34117 226.979 9.7514 229.073 11.6268 230.698C13.504 232.308 15.6745 233.541 18.0193 234.329C20.3559 235.121 22.7917 235.584 25.2565 235.705C26.4867 235.776 27.7201 235.769 28.9495 235.683C29.5516 235.638 30.199 235.585 30.7762 235.495L32.6376 235.279C32.8097 235.258 32.9703 235.202 33.1417 235.164L33.6486 235.039L34.6532 234.802L35.6655 234.518L36.1724 234.393L36.6459 234.253C37.2992 234.046 37.9418 233.819 38.5836 233.577L39.5396 233.208L40.5005 232.803C41.1655 232.497 41.7724 232.207 42.4005 231.88C43.0286 231.553 43.6098 231.202 44.2208 230.86C45.4049 230.131 46.5316 229.312 47.5907 228.411C48.6562 227.519 49.6417 226.536 50.536 225.473C50.9784 224.949 51.4194 224.393 51.8142 223.829C52.209 223.265 52.5896 222.675 52.9305 222.075C53.6132 220.864 54.146 219.574 54.5171 218.235C54.8768 216.895 55.047 215.511 55.0229 214.123C54.9357 211.295 53.9471 208.57 52.2013 206.343V206.343Z" fill="#111C43"/>
</g>
</g>
</g>
<g clip-path="url(#clip2)">
<path d="M105.096 35.7342L112.273 43.4878C111.086 40.4662 109.345 37.6934 107.139 35.3121L99.8691 27.4609C102.117 29.8649 103.89 32.6717 105.096 35.7342V35.7342Z" fill="#FAD091"/>
<path d="M34.245 99.6544L33.6709 99.2725C33.1742 98.9421 32.6734 98.6089 32.1685 98.2731C32.0097 98.1675 31.8631 98.0699 31.7043 97.9643C31.0691 97.5418 30.4828 97.1518 29.876 96.5541L29.4607 96.2779C28.8987 95.7983 28.353 95.2942 27.8317 94.7535L27.457 94.3632L34.727 102.214L35.0814 102.609L35.8185 103.328L36.7104 104.133L37.1379 104.418C37.7243 104.913 38.2862 105.34 38.954 105.82L39.4182 106.128C39.919 106.462 40.4198 106.795 40.9206 107.128L41.5028 107.497C41.6494 107.595 41.796 107.693 41.9304 107.782C42.419 108.107 42.9807 108.322 43.5263 108.561L36.2806 100.674C35.6456 100.41 34.9005 100.02 34.245 99.6544Z" fill="#FAD091"/>
<path d="M106.7 54.1693L114.01 62.0652C115.152 55.8297 114.551 49.4011 112.272 43.488L105.096 35.7344C107.293 41.6189 107.847 47.9915 106.7 54.1693V54.1693Z" fill="#111C43"/>
<path d="M36.2792 100.672L43.5411 108.536C49.3864 110.987 55.7781 111.844 62.0645 111.019L54.9125 103.228C48.5836 104.065 42.1472 103.182 36.2792 100.672Z" fill="#111C43"/>
<path d="M96.3146 77.8893L103.56 85.7242C108.891 78.7903 112.476 70.6759 114.011 62.0666L106.762 54.2113C105.221 62.8245 101.638 70.9441 96.3146 77.8893V77.8893Z" fill="#FAD091"/>
<path d="M86.7487 101.696L79.4991 93.8405C78.5472 94.4768 77.5749 95.0643 76.5619 95.6071C76.2405 95.7989 75.915 95.9703 75.6018 96.1498C74.9265 96.5293 74.2715 96.9047 73.6002 97.2516C73.3398 97.3782 73.0795 97.5047 72.8313 97.6394C72.1275 97.9823 71.4236 98.3252 70.7157 98.6477C70.4553 98.7742 70.1827 98.8927 69.9183 98.9989C68.9947 99.4072 68.067 99.7951 67.1434 100.151C67.1191 100.175 67.0997 100.204 67.0865 100.236C66.1995 100.563 65.3329 100.833 64.4418 101.139C64.1041 101.25 63.7623 101.34 63.4327 101.438L61.5569 101.953L60.5274 102.203C59.86 102.359 59.209 102.49 58.4928 102.613L57.5975 102.793C56.6657 102.949 55.6686 103.044 54.7978 103.188L62.0637 111.018C62.9956 110.915 63.9682 110.804 64.8634 110.624L65.7587 110.444C66.422 110.321 67.0608 110.181 67.7933 110.034L68.8228 109.784C69.4576 109.624 70.0882 109.445 70.7108 109.277L71.7158 108.958L72.2163 108.815L74.2833 108.144L74.3402 108.059C75.2638 107.703 76.1915 107.315 77.1273 106.915L77.9328 106.552C78.6204 106.233 79.3365 105.899 80.0281 105.548C80.2885 105.421 80.5488 105.295 80.797 105.16L81.1998 104.952C81.7368 104.674 82.2656 104.356 82.7986 104.058C83.3315 103.76 83.4373 103.707 83.7587 103.515C84.8368 102.928 85.7968 102.332 86.7487 101.696Z" fill="#FAD091"/>
<path d="M94.986 79.5972L94.9291 79.6827C94.8397 79.8172 94.7421 79.9639 94.6445 80.1105C92.7807 82.3669 90.7729 84.5004 88.6338 86.4976C87.9749 87.1173 87.2997 87.7084 86.6245 88.2996C86.348 88.5565 86.0714 88.8133 85.7704 89.0539C84.904 89.8 84.0214 90.5177 83.1306 91.1946L83.033 91.3413L82.8215 91.5003C81.7557 92.3078 80.6818 93.0745 79.5509 93.7681L86.8128 101.632C87.3904 101.24 87.9681 100.848 88.5416 100.436C89.1152 100.025 89.5382 99.7064 90.0345 99.3313L90.2541 99.16L90.3436 99.0255C91.2425 98.3364 92.1252 97.6187 93.0038 96.8807C93.2844 96.6442 93.5691 96.3752 93.8579 96.1265C94.3338 95.7025 94.8219 95.2866 95.2936 94.8422L95.8468 94.3285C97.9894 92.3279 99.9999 90.1903 101.866 87.9293C101.92 87.8361 101.98 87.7462 102.045 87.6603L102.207 87.4159C102.622 86.7925 103.118 86.2585 103.565 85.6392L96.3075 77.7961C95.8969 78.4398 95.4293 79.0633 94.986 79.5972Z" fill="#111C43"/>
<path d="M38.8122 35.1777C41.6406 32.5003 44.6944 30.0718 47.9398 27.9193L52.386 36.6251C49.9329 38.2257 47.6306 40.0465 45.5077 42.0648L45.4183 42.1993C43.3375 44.1625 41.4413 46.3127 39.7535 48.6226L31.1141 43.8101C33.428 40.7172 36.0036 37.8291 38.8122 35.1777V35.1777Z" fill="#111C43"/>
<path d="M46.1598 43.4147C46.2819 43.4959 46.2332 43.728 46.0828 43.8748C45.0131 44.9265 43.9517 46.0718 42.988 47.2292C42.9353 47.2874 42.8653 47.3271 42.7884 47.3426C42.7115 47.3581 42.6317 47.3485 42.5607 47.3153C42.4263 47.2259 42.4099 47.0387 42.5644 46.8593C43.5571 45.6661 44.6105 44.5248 45.7203 43.4397C45.8219 43.3663 46.0417 43.3008 46.1598 43.4147Z" fill="#111C43"/>
<path d="M40.2139 50.3897C40.3483 50.4791 40.381 50.6419 40.2793 50.8211C39.4498 52.0354 38.6885 53.2949 37.9988 54.5938L37.9012 54.7405C37.8557 54.7877 37.7991 54.8229 37.7366 54.8429C37.6741 54.8628 37.6076 54.867 37.5432 54.8549C37.4088 54.7656 37.2866 54.6843 37.4208 54.4561C38.1251 53.1261 38.9013 51.8354 39.746 50.5898C39.746 50.5898 39.7948 50.5164 39.8192 50.4798C39.8689 50.4277 39.9329 50.3914 40.0031 50.3753C40.0733 50.3593 40.1466 50.3643 40.2139 50.3897V50.3897Z" fill="#111C43"/>
<path d="M69.3379 31.9593L69.0856 32.0736C67.7147 32.2683 66.356 32.5419 65.0164 32.8932C64.9789 32.9083 64.9383 32.914 64.8981 32.9098C64.8578 32.9056 64.8193 32.8918 64.7856 32.8694C64.7519 32.847 64.7242 32.8168 64.7049 32.7813C64.6855 32.7458 64.675 32.7061 64.6744 32.6657C64.7004 32.5578 64.7638 32.4625 64.8533 32.3968C64.935 32.322 65.0323 32.2663 65.1381 32.2336C66.476 31.8753 67.8351 31.6015 69.2073 31.414C69.2472 31.4043 69.289 31.4052 69.3284 31.4167C69.3678 31.4282 69.4036 31.4498 69.432 31.4795C69.4604 31.5091 69.4806 31.5457 69.4905 31.5856C69.5004 31.6254 69.4996 31.6672 69.4883 31.7067L69.3379 31.9593Z" fill="#111C43"/>
<path d="M34.1017 66.3589C33.9352 67.6235 33.8586 68.8983 33.8724 70.1736L33.6853 70.4548L33.4941 70.5568C33.458 70.5728 33.4184 70.5795 33.3791 70.5761C33.3397 70.5728 33.3018 70.5596 33.269 70.5377C33.2361 70.5158 33.2092 70.486 33.1909 70.451C33.1727 70.416 33.1635 70.3769 33.1643 70.3374C33.151 69.0292 33.2317 67.7217 33.4058 66.425C33.4343 66.329 33.491 66.2438 33.5684 66.1805C33.6385 66.1225 33.7204 66.0807 33.8085 66.058C33.8503 66.0368 33.8978 66.0294 33.9441 66.0371C33.9904 66.0447 34.033 66.067 34.0657 66.1006C34.0985 66.1341 34.1196 66.1773 34.1261 66.2238C34.1326 66.2703 34.124 66.3176 34.1017 66.3589V66.3589Z" fill="#111C43"/>
<path d="M77.0871 31.987L76.7209 32.1137C75.4865 31.9317 74.2405 31.8395 72.9927 31.8377C72.9525 31.8386 72.9127 31.8291 72.8772 31.8102C72.8417 31.7912 72.8117 31.7635 72.79 31.7296C72.7684 31.6957 72.7558 31.6568 72.7534 31.6166C72.7511 31.5764 72.7592 31.5363 72.7768 31.5001C72.801 31.424 72.8461 31.3563 72.9069 31.3046C72.9945 31.2221 73.1083 31.1729 73.2283 31.1657C74.5085 31.1807 75.7863 31.2769 77.0541 31.4537C77.0936 31.4628 77.1302 31.4813 77.1609 31.5077C77.1915 31.5341 77.2153 31.5676 77.2301 31.6052C77.245 31.6429 77.2505 31.6835 77.2461 31.7238C77.2417 31.764 77.2276 31.8026 77.205 31.8362L77.0871 31.987Z" fill="#111C43"/>
<path d="M72.4277 18.6251C78.7377 17.7791 85.158 18.6509 91.0121 21.1487L83.8567 31.9054C79.4662 29.9981 74.6355 29.3342 69.8919 29.9862L72.4277 18.6251Z" fill="#111C43"/>
<path d="M34.9279 77.6461L34.8628 77.7439C34.831 77.7694 34.7939 77.7875 34.7542 77.7971C34.7146 77.8067 34.6733 77.8075 34.6333 77.7994C34.5933 77.7913 34.5556 77.7745 34.5228 77.7503C34.49 77.726 34.463 77.6948 34.4436 77.6589C34.0563 76.5158 33.7642 75.3424 33.5702 74.151C33.5779 74.0904 33.5996 74.0323 33.6334 73.9814C33.6673 73.9306 33.7124 73.8882 33.7654 73.8576C33.793 73.8056 33.8257 73.7565 33.8629 73.7109C34.0582 73.6293 34.2292 73.6901 34.2538 73.8651C34.4436 75.0254 34.7261 76.1685 35.0986 77.2835C35.1049 77.3537 35.0924 77.4242 35.0624 77.4879C35.0324 77.5517 34.986 77.6062 34.9279 77.6461V77.6461Z" fill="#111C43"/>
<path d="M83.8502 34.1392C83.7989 34.198 83.7309 34.2398 83.6552 34.2588C83.5796 34.2778 83.4999 34.2732 83.427 34.2456C82.4028 33.7163 81.3367 33.2724 80.2394 32.9186C80.105 32.8292 80.0317 32.6747 80.1455 32.5035C80.1671 32.4594 80.1945 32.4183 80.2268 32.3813C80.2748 32.3312 80.3347 32.2941 80.4008 32.2733C80.467 32.2526 80.5373 32.249 80.6052 32.2627C81.7322 32.6222 82.8259 33.0784 83.8742 33.6262C84.0086 33.7156 84.025 33.9028 83.8989 34.0658L83.8502 34.1392Z" fill="#111C43"/>
<path d="M38.1881 83.553C38.0743 83.7241 37.8097 83.7245 37.7079 83.5862C36.9838 82.71 36.3416 81.7693 35.7891 80.7758C35.7565 80.7036 35.7493 80.6226 35.7684 80.5458C35.7875 80.4689 35.832 80.4008 35.8946 80.3523C35.8946 80.3523 36.2852 80.2418 36.3545 80.3761C36.9081 81.3433 37.5389 82.2641 38.2407 83.1296C38.2852 83.2051 38.2998 83.2946 38.2818 83.3805C38.2638 83.4663 38.2145 83.5424 38.1434 83.5938L38.1881 83.553Z" fill="#111C43"/>
<path d="M40.6402 85.4296C41.5096 86.1315 42.4419 86.7516 43.4252 87.2822C43.4601 87.3063 43.4891 87.3381 43.5099 87.3752C43.5307 87.4122 43.5427 87.4535 43.5451 87.4959C43.5475 87.5383 43.5401 87.5807 43.5236 87.6199C43.5072 87.659 43.4819 87.6939 43.4499 87.7218L43.4011 87.7952C43.3036 87.9419 43.0757 87.9666 42.9657 87.8935C41.9542 87.3529 40.997 86.7161 40.1074 85.9921C39.9853 85.9108 40.0136 85.6828 40.1519 85.528C40.2902 85.3731 40.1519 85.528 40.1519 85.528C40.1519 85.528 40.5343 85.3239 40.6402 85.4296Z" fill="#111C43"/>
<path d="M90.8102 40.5497C90.9159 40.3908 91.1886 40.4311 91.2783 40.5613C91.8569 41.55 92.3452 42.5889 92.7374 43.6654C92.7613 43.7357 92.7624 43.8117 92.7405 43.8827C92.7186 43.9536 92.6749 44.0158 92.6156 44.0605L92.5505 44.1583C92.5176 44.1851 92.4792 44.2045 92.438 44.2151C92.3968 44.2257 92.3538 44.2272 92.312 44.2195C92.2702 44.2118 92.2306 44.1951 92.1958 44.1706C92.1611 44.146 92.1322 44.1143 92.1109 44.0774C91.7094 43.0124 91.2129 41.9858 90.6274 41.01C90.5175 40.9368 90.5906 40.721 90.7329 40.5864C90.8753 40.4519 90.794 40.5742 90.8102 40.5497Z" fill="#111C43"/>
<path d="M46.5441 88.7374C47.6691 89.1348 48.8268 89.433 50.004 89.6284C50.1383 89.7178 50.2605 89.7991 50.1467 90.0231L50.0085 90.2309L49.6626 90.3535C48.4592 90.1459 47.2768 89.8315 46.1294 89.4138C45.995 89.3244 45.9339 89.1779 46.0436 88.9864C46.1534 88.795 46.0924 88.9131 46.1087 88.8886C46.1579 88.8228 46.2256 88.7732 46.3032 88.7463C46.3808 88.7193 46.4647 88.7162 46.5441 88.7374V88.7374Z" fill="#111C43"/>
<path d="M93.3298 46.9877C93.5251 46.906 93.696 46.9669 93.7287 47.1297C93.9542 48.3737 94.0762 49.6344 94.0935 50.8988L93.9065 51.1799L93.7275 51.2901C93.5403 51.3595 93.3734 51.2661 93.3977 51.0707C93.3521 49.8546 93.2152 48.6437 92.9882 47.4482C92.9982 47.3856 93.0215 47.3259 93.0565 47.2732C93.0916 47.2205 93.1377 47.1759 93.1915 47.1426C93.2269 47.0823 93.2739 47.0297 93.3298 46.9877V46.9877Z" fill="#111C43"/>
<path d="M93.4439 54.5744C93.5031 54.5131 93.5799 54.4718 93.6636 54.456C93.867 54.415 93.9933 54.5167 93.9934 54.6754C93.9165 55.4001 93.8031 56.1534 93.6734 56.8782C93.5436 57.603 93.43 58.0916 93.2839 58.6821L93.105 58.951L92.8243 59.0817C92.7847 59.0869 92.7444 59.0819 92.7072 59.0672C92.67 59.0525 92.6373 59.0285 92.612 58.9975C92.5867 58.9666 92.5697 58.9297 92.5627 58.8903C92.5556 58.851 92.5588 58.8104 92.5718 58.7726C92.7097 58.1944 92.8355 57.608 92.9409 57.0257C93.0463 56.4434 93.1882 55.568 93.2691 54.8636C93.2777 54.8063 93.2977 54.7512 93.3276 54.7016C93.3576 54.6519 93.3971 54.6087 93.4439 54.5744V54.5744Z" fill="#111C43"/>
<path d="M85.1928 37.5564C85.7638 38.0149 86.3077 38.5063 86.8217 39.0279C91.0818 43.4839 92.6816 49.9789 91.3843 57.2268C89.7213 65.0297 85.664 72.1198 79.779 77.5072C73.9984 83.1554 66.6044 86.8645 58.6234 88.1196C53.4609 88.9835 48.1605 87.9881 43.665 85.3103L43.6039 85.2697C42.468 84.5565 41.4233 83.7076 40.4928 82.7417C31.6591 73.6387 34.8339 56.3902 47.5478 44.3235C59.6272 32.8926 75.937 30.1475 85.1928 37.5564Z" fill="#111C43"/>
<path d="M73.543 84.0425C73.722 83.9323 73.9092 83.9687 73.9704 84.1152C73.9967 84.1852 73.999 84.262 73.977 84.3335C73.9549 84.405 73.9097 84.4671 73.8486 84.5102L73.7916 84.5958C72.4533 85.4687 71.1433 86.1666 69.8048 86.8279C69.6217 86.9177 69.4507 86.8568 69.4099 86.7063C69.3963 86.6383 69.4008 86.5679 69.4228 86.5021C69.4449 86.4364 69.4839 86.3776 69.5358 86.3316C69.558 86.2877 69.5853 86.2467 69.6171 86.2093C70.9616 85.5542 72.272 84.831 73.543 84.0425V84.0425Z" fill="#111C43"/>
<path d="M87.5346 70.3217C87.5817 70.2669 87.6438 70.2271 87.7133 70.2075C87.7828 70.1879 87.8565 70.1891 87.9252 70.2112C88.0596 70.3006 88.1126 70.4593 87.9988 70.6304C87.1591 71.9146 86.2525 73.1537 85.2827 74.3426V74.3426C85.2326 74.4068 85.1619 74.4516 85.0825 74.4695C85.0032 74.4875 84.92 74.4773 84.8473 74.4409C84.713 74.3515 84.7169 74.1602 84.8511 73.985C85.7863 72.8439 86.6483 71.654 87.4614 70.4317C87.4797 70.3913 87.5045 70.3541 87.5346 70.3217V70.3217Z" fill="#111C43"/>
<path d="M93.8749 42.3788L105.095 35.7365C103.811 32.482 101.888 29.5183 99.4399 27.0201C97.0352 24.5378 94.1732 22.5442 91.0114 21.1489L83.8559 31.9055C79.4567 29.9832 74.6123 29.3108 69.8545 29.962L72.4269 18.6252C63.6526 19.7374 55.2655 22.9141 47.9535 27.8947L52.3834 36.6249C49.8856 38.259 47.5412 40.1166 45.379 42.1747C43.2983 44.1379 41.4021 46.288 39.7142 48.5979L31.1114 43.8098C25.7415 50.7868 22.1238 58.9503 20.5627 67.6141L32.1195 65.604C31.2518 70.2801 31.7032 75.1047 33.4233 79.5369L22.2522 86.1059C23.5428 89.3691 25.4708 92.3419 27.9234 94.8508C30.3284 97.3327 33.1903 99.3263 36.3519 100.722L43.5073 89.9653C47.9022 91.8725 52.736 92.539 57.4843 91.8926L54.9119 103.229C63.7362 102.131 72.1745 98.9507 79.5319 93.9516L75.0572 85.2622C77.5052 83.6486 79.8056 81.8215 81.9314 79.8021C84.0564 77.7927 85.9921 75.5921 87.7141 73.228L96.3454 77.9998C101.653 71.0369 105.215 62.9032 106.731 54.2812L95.1705 56.3239C96.0495 51.6449 95.6006 46.814 93.8749 42.3788Z" fill="#FAD091"/>
<path d="M61.1927 34.0569L61.0951 34.2036C59.7279 34.7205 58.3913 35.3148 57.0917 35.9839C56.9086 36.0737 56.7173 36.0169 56.6846 35.8541C56.6753 35.7864 56.6831 35.7174 56.7072 35.6534C56.7313 35.5894 56.771 35.5324 56.8227 35.4876C56.8424 35.448 56.867 35.411 56.8959 35.3776C58.2179 34.6862 59.5791 34.0727 60.9726 33.5402C61.172 33.4789 61.3348 33.552 61.3146 33.7678L61.1927 34.0569Z" fill="#111C43"/>
<path d="M36.1951 58.4941C35.6827 59.7826 35.2474 61.1004 34.8914 62.4405L34.7451 62.6606L34.4643 62.7912C34.4239 62.7959 34.3829 62.7899 34.3454 62.774C34.308 62.758 34.2753 62.7326 34.2507 62.7002C34.226 62.6678 34.2102 62.6295 34.2048 62.5892C34.1994 62.5488 34.2046 62.5077 34.2199 62.4699C34.5881 61.1025 35.0357 59.7576 35.5602 58.442C35.5883 58.3734 35.6297 58.3111 35.6821 58.2587C35.7235 58.218 35.7724 58.1859 35.8262 58.1641C35.8799 58.1424 35.9375 58.1315 35.9954 58.1321C36.1948 58.1237 36.2642 58.3108 36.1951 58.4941Z" fill="#111C43"/>
<path d="M20.6118 67.6458L32.1687 65.6357C31.3009 70.3118 31.7524 75.1365 33.4725 79.5686L22.2525 86.1051C20.0344 80.2175 19.4671 73.8346 20.6118 67.6458V67.6458Z" fill="#111C43"/>
<path d="M86.7892 35.4982C87.4525 36.0158 88.0784 36.5795 88.6625 37.1851L88.7236 37.2257L89.2653 37.8153C89.3874 37.8965 89.3265 38.1205 89.176 38.2673C89.0541 38.4506 88.7977 38.4388 88.6999 38.3208C88.6022 38.2029 88.3374 37.9386 88.1623 37.7516L88.3819 37.4216L88.0972 37.6906C87.5225 37.0971 86.906 36.5456 86.2524 36.0403C86.202 35.9709 86.1787 35.8854 86.1869 35.7999C86.1951 35.7144 86.2342 35.6349 86.2968 35.5762C86.3159 35.5601 86.33 35.5389 86.3375 35.5151C86.3989 35.4597 86.4778 35.4276 86.5604 35.4246C86.6429 35.4215 86.724 35.4475 86.7892 35.4982V35.4982Z" fill="#111C43"/>
<path d="M53.707 89.9974C55.0072 90.0267 56.3081 89.9733 57.6017 89.8375C57.6414 89.8267 57.6833 89.8273 57.7227 89.8392C57.7621 89.8511 57.7973 89.8738 57.8245 89.9047C57.8516 89.9356 57.8696 89.9735 57.8762 90.0141C57.8829 90.0547 57.8781 90.0963 57.8623 90.1343L57.716 90.3544L57.4475 90.4931C56.1271 90.6358 54.7991 90.6947 53.4714 90.6694C53.4302 90.67 53.3895 90.6597 53.3535 90.6395C53.3175 90.6194 53.2874 90.5901 53.2664 90.5547C53.2453 90.5192 53.234 90.4788 53.2335 90.4375C53.233 90.3962 53.2434 90.3556 53.2636 90.3196C53.2809 90.2404 53.3273 90.1706 53.3937 90.124C53.434 90.0819 53.4827 90.0489 53.5368 90.027C53.5908 90.0052 53.6488 89.9951 53.707 89.9974Z" fill="#111C43"/>
<path d="M65.6566 87.9303C65.8438 87.8608 65.9985 87.9461 65.9864 88.1497L65.7831 88.4553L65.6123 88.5532C64.2645 89.0499 62.888 89.465 61.4904 89.7962C61.4548 89.8172 61.414 89.8278 61.3727 89.8267C61.3313 89.8256 61.2911 89.8129 61.2567 89.79C61.2223 89.7671 61.195 89.7349 61.178 89.6972C61.161 89.6595 61.155 89.6178 61.1606 89.5768C61.1708 89.5223 61.1918 89.4703 61.2226 89.4241C61.2533 89.3779 61.2931 89.3384 61.3395 89.3079C61.4003 89.2488 61.4764 89.2078 61.5592 89.1896C62.9483 88.8498 64.3164 88.4293 65.6566 87.9303V87.9303Z" fill="#111C43"/>
<path d="M91.515 62.5105C91.6009 62.432 91.7121 62.3871 91.8283 62.3839C91.868 62.3871 91.9064 62.3997 91.9402 62.4208C91.974 62.4419 92.0023 62.4708 92.0226 62.505C92.0429 62.5393 92.0548 62.5779 92.0571 62.6177C92.0595 62.6575 92.0523 62.6972 92.0361 62.7337C91.5205 64.1002 90.9262 65.4358 90.2563 66.7337L90.1587 66.8803C90.112 66.9289 90.0545 66.9658 89.9909 66.9878C89.9272 67.0098 89.8592 67.0164 89.7925 67.007C89.6582 66.9176 89.536 66.8364 89.658 66.6001C90.3119 65.3329 90.8913 64.0286 91.3931 62.6938C91.4211 62.6252 91.4626 62.5629 91.515 62.5105V62.5105Z" fill="#111C43"/>
<path d="M93.856 42.2768L105.096 35.7362C107.321 41.6275 107.897 48.0153 106.761 54.2118L95.2006 56.2545C96.0702 51.5604 95.6044 46.7172 93.856 42.2768V42.2768Z" fill="#111C43"/>
<path d="M81.7623 77.4327C81.8762 77.2615 82.1163 77.2449 82.2303 77.3384C82.2587 77.3714 82.2802 77.4098 82.2934 77.4513C82.3066 77.4928 82.3112 77.5366 82.3071 77.5799C82.3029 77.6233 82.29 77.6654 82.2692 77.7036C82.2484 77.7419 82.22 77.7755 82.1859 77.8026L81.1162 78.8543L81.0512 78.9521C79.9449 79.9794 78.7898 80.9742 77.5858 81.9366C77.419 82.0549 77.1992 82.0674 77.1177 81.925C77.0363 81.7826 77.0972 81.6116 77.2477 81.4648C78.4029 80.5758 79.5377 79.5851 80.6155 78.5741L80.6805 78.4763L81.7623 77.4327Z" fill="#111C43"/>
<path d="M43.4474 89.9232C47.8422 91.8304 52.676 92.4969 57.4244 91.8505L54.913 103.228C48.5841 104.065 42.1477 103.182 36.2797 100.672L43.4474 89.9232Z" fill="#111C43"/>
<path d="M87.6818 73.1188L96.3131 77.8906C95.9066 78.5017 95.4267 79.0642 94.9509 79.6469L94.8778 79.7569C94.7883 79.8914 94.6907 80.0381 94.5932 80.1848C92.7293 82.4412 90.7215 84.5746 88.5824 86.5718C86.831 88.2323 84.9941 89.8001 83.0792 91.2688L82.9816 91.4155L82.7701 91.5746C81.7044 92.382 80.6305 93.1488 79.4996 93.8423L75.0249 85.1529C77.4696 83.5428 79.7672 81.7198 81.891 79.705C84.0194 77.6921 85.9579 75.4874 87.6818 73.1188V73.1188Z" fill="#111C43"/>
<path style="mix-blend-mode:screen" d="M99.4767 27.0463C101.876 29.5343 103.76 32.4714 105.022 35.6896C107.262 41.58 107.842 47.9735 106.699 54.1733C105.175 62.7931 101.614 70.9251 96.3129 77.8919C95.9145 78.4908 95.4265 79.0654 94.9507 79.6482L94.8857 79.746C94.7881 79.8927 94.6905 80.0394 94.6011 80.1738C92.7244 82.4253 90.7145 84.5622 88.5822 86.5731C86.8308 88.2335 84.9939 89.8013 83.079 91.2701C83.079 91.2701 83.0221 91.3557 82.9814 91.4168L82.7699 91.5758C81.7042 92.3833 80.6303 93.1501 79.4994 93.8436C72.1597 98.8729 63.7333 102.09 54.9121 103.231C48.5831 104.065 42.1476 103.182 36.2788 100.675C29.8695 97.8592 24.842 92.6122 22.3012 86.0874C20.0701 80.2001 19.4984 73.8121 20.6483 67.62C22.2095 58.9562 25.8271 50.7926 31.1971 43.8157C33.4795 40.7216 36.0267 37.8319 38.8098 35.1793C41.6369 32.5076 44.6879 30.0833 47.9292 27.9332C55.2432 22.9325 63.6402 19.7427 72.4271 18.6271C78.7371 17.7811 85.1574 18.6529 91.0115 21.1508C94.1848 22.5557 97.0585 24.5571 99.4767 27.0463V27.0463Z" fill="url(#paint6_linear)"/>
<g style="mix-blend-mode:multiply">
<path style="mix-blend-mode:multiply" d="M105.096 35.7379C107.321 41.6292 107.896 48.017 106.761 54.2134C105.244 62.8354 101.683 70.9691 96.3748 77.932C95.9683 78.5432 95.4884 79.1056 95.0127 79.6884L94.9557 79.774C94.8663 79.9084 94.7687 80.0551 94.6712 80.2018C92.8073 82.4582 90.7995 84.5917 88.6604 86.5889C88.0015 87.2085 87.3264 87.7997 86.6512 88.3909C86.3746 88.6477 86.098 88.9046 85.797 89.1451C84.9307 89.8913 84.048 90.6089 83.1572 91.2859L83.0596 91.4325L82.8481 91.5916C81.7824 92.399 80.7085 93.1658 79.5776 93.8594C78.6257 94.4957 77.6534 95.0832 76.6404 95.626C76.319 95.8177 75.9935 95.9891 75.6803 96.1687C75.005 96.5482 74.35 96.9236 73.6787 97.2705C73.4183 97.397 73.158 97.5236 72.9098 97.6582C72.206 98.0011 71.5021 98.344 70.7942 98.6666C70.5338 98.7931 70.2612 98.9115 69.9968 99.0177C69.0732 99.426 68.1456 99.814 67.222 100.169C67.1976 100.194 67.1782 100.223 67.165 100.255C66.2781 100.582 65.4114 100.852 64.5203 101.158C64.1826 101.269 63.8408 101.359 63.5112 101.457L61.6354 101.972L60.6059 102.222C59.9385 102.377 59.2875 102.509 58.5713 102.632L57.676 102.812C56.7442 102.968 55.7471 103.063 54.8763 103.206C48.5615 104.044 42.1388 103.17 36.2796 100.675L43.5415 108.538C49.3868 110.99 55.7785 111.847 62.0649 111.021C62.9968 110.918 63.9694 110.807 64.8646 110.627L65.7598 110.446C66.4231 110.323 67.062 110.184 67.7945 110.036L68.8239 109.787C69.4587 109.627 70.0894 109.447 70.712 109.279L71.717 108.961L72.2175 108.817L74.2845 108.147L74.3414 108.062C75.265 107.706 76.1926 107.318 77.1284 106.918L77.934 106.555C78.6216 106.236 79.3376 105.901 80.0292 105.55C80.2896 105.424 80.55 105.297 80.7982 105.163L81.2009 104.954C81.738 104.677 82.2668 104.359 82.7997 104.061C83.3327 103.763 83.4385 103.71 83.7598 103.518C84.7362 102.951 85.6963 102.355 86.697 101.751C87.2747 101.36 87.8523 100.968 88.4259 100.556C88.9994 100.144 89.4225 99.8264 89.9187 99.4512L90.1384 99.2799L90.2278 99.1455C91.1267 98.4563 92.0094 97.7386 92.888 97.0006C93.1686 96.7642 93.4533 96.4951 93.7421 96.2464C94.218 95.8224 94.7061 95.4065 95.1779 94.9622L95.731 94.4485C97.8736 92.4479 99.8841 90.3103 101.75 88.0492C101.804 87.956 101.864 87.8662 101.929 87.7803L102.091 87.5358C102.506 86.9124 103.002 86.3784 103.449 85.7591C108.824 78.8264 112.447 70.6994 114.011 62.0687C115.152 55.8333 114.551 49.4046 112.272 43.4915C111.085 40.47 109.344 37.6972 107.139 35.3159L99.8685 27.4647C102.116 29.8687 103.889 32.6755 105.096 35.7379V35.7379Z" fill="url(#paint7_linear)"/>
<path style="mix-blend-mode:multiply" d="M34.245 99.6547L33.6709 99.2728C33.1742 98.9424 32.6734 98.6092 32.1685 98.2734C32.0097 98.1678 31.8631 98.0703 31.7043 97.9646C31.0691 97.5421 30.4828 97.1521 29.876 96.5545L29.4607 96.2782C28.8987 95.7986 28.353 95.2945 27.8317 94.7538L27.457 94.3635L34.727 102.215L35.0814 102.609L35.8185 103.329L36.7104 104.133L37.1379 104.418C37.7243 104.914 38.2862 105.34 38.954 105.82L39.4181 106.129C39.919 106.462 40.4198 106.795 40.9206 107.128L41.5028 107.498C41.6494 107.595 41.796 107.693 41.9304 107.782C42.419 108.107 42.9807 108.322 43.5263 108.562L36.2806 100.674C35.6456 100.41 34.9005 100.02 34.245 99.6547Z" fill="url(#paint8_linear)"/>
</g>
<g style="mix-blend-mode:soft-light">
<g style="mix-blend-mode:soft-light">
<path d="M91.0127 21.1493C93.65 22.234 96.0956 23.7358 98.2559 25.5972C100.422 27.4772 102.275 29.6914 103.742 32.1563C105.174 34.6498 106.234 37.339 106.89 40.1392C107.544 42.945 107.844 45.8221 107.783 48.7031C107.765 50.1418 107.669 51.5784 107.493 53.0064C107.315 54.4396 107.096 55.8281 106.788 57.2452C106.146 60.0489 105.274 62.795 104.181 65.4556C103.097 68.1126 101.816 70.6849 100.348 73.1506C99.5349 74.3729 98.8358 75.5829 97.9738 76.7198C97.1118 77.8567 96.2498 79.0995 95.4447 80.1509L94.1272 81.7606L92.765 83.4112C91.8215 84.4586 90.8373 85.4614 89.8287 86.4479C89.5602 86.6925 89.361 86.9126 89.0356 87.1898L88.2302 87.8707L86.648 89.2162L85.021 90.6025C84.4963 91.0469 83.9757 91.5117 83.4266 91.9399C83.1599 92.1643 82.8801 92.3726 82.5887 92.5638L81.8198 93.1104L80.3188 94.1749C79.2408 94.9213 78.2116 95.5414 77.0969 96.2105C74.9083 97.4944 72.6434 98.6434 70.315 99.6513C65.6638 101.704 60.7315 103.047 55.6827 103.636C50.6179 104.291 45.4735 103.916 40.5586 102.532C35.6695 101.195 31.2454 98.5326 27.7741 94.8392C31.3619 98.3118 35.807 100.77 40.6559 101.962C45.494 103.126 50.5116 103.344 55.4338 102.606C60.3454 101.884 65.1331 100.482 69.6589 98.4391C71.9274 97.4386 74.1301 96.2949 76.2537 95.0148C77.291 94.3824 78.4016 93.693 79.3535 93.0037L82.4898 90.9112C82.7787 90.7154 83.0145 90.4668 83.2871 90.2425L84.0802 89.5535L85.6624 88.208L87.2161 86.7729L88.0092 86.0839L88.7291 85.399C89.7093 84.4289 90.6528 83.4343 91.58 82.4113L92.9545 80.8747L94.3046 79.269C95.2154 78.1117 96.0368 77.0359 96.8621 75.8746C97.6875 74.7133 98.407 73.5521 99.1876 72.3786C100.64 69.9873 101.908 67.4883 102.98 64.9035C104.071 62.3298 104.935 59.6656 105.563 56.9415C105.875 55.5977 106.155 54.1969 106.345 52.8248C106.535 51.4526 106.677 50.048 106.737 48.6597C106.85 45.8649 106.623 43.0669 106.06 40.3275C105.476 37.597 104.512 34.9619 103.197 32.499C100.449 27.5131 96.1802 23.5367 91.0127 21.1493V21.1493Z" fill="#111C43"/>
</g>
</g>
</g>
<defs>
<filter id="filter0_f" x="-2.99805" y="187" width="69.6761" height="66.5852" filterUnits="userSpaceOnUse" color-interpolation-filters="sRGB">
<feFlood flood-opacity="0" result="BackgroundImageFix"/>
<feBlend mode="normal" in="SourceGraphic" in2="BackgroundImageFix" result="shape"/>
<feGaussianBlur stdDeviation="1.5" result="effect1_foregroundBlur"/>
</filter>
<linearGradient id="paint0_linear" x1="113.634" y1="132.538" x2="-5.03324" y2="137.57" gradientUnits="userSpaceOnUse">
<stop stop-color="white"/>
<stop offset="0.572917"/>
</linearGradient>
<linearGradient id="paint1_linear" x1="23.596" y1="149.61" x2="105.775" y2="188.615" gradientUnits="userSpaceOnUse">
<stop stop-color="white"/>
<stop offset="0.14" stop-color="#FBFBFB"/>
<stop offset="0.29" stop-color="#EEEEED"/>
<stop offset="0.45" stop-color="#D9D9D7"/>
<stop offset="0.62" stop-color="#BBBCB9"/>
<stop offset="0.79" stop-color="#949691"/>
<stop offset="0.95" stop-color="#666861"/>
<stop offset="1" stop-color="#585A53"/>
</linearGradient>
<linearGradient id="paint2_linear" x1="-426.723" y1="618.911" x2="-1225.32" y2="1056.62" gradientUnits="userSpaceOnUse">
<stop stop-color="white"/>
<stop offset="0.14" stop-color="#FBFBFB"/>
<stop offset="0.29" stop-color="#EEEEED"/>
<stop offset="0.45" stop-color="#D9D9D7"/>
<stop offset="0.62" stop-color="#BBBCB9"/>
<stop offset="0.79" stop-color="#949691"/>
<stop offset="0.95" stop-color="#666861"/>
<stop offset="1" stop-color="#585A53" stop-opacity="0.5"/>
</linearGradient>
<linearGradient id="paint3_linear" x1="59.512" y1="180.037" x2="-0.0180236" y2="241.826" gradientUnits="userSpaceOnUse">
<stop stop-color="white"/>
<stop offset="0.572917"/>
</linearGradient>
<linearGradient id="paint4_linear" x1="20.9514" y1="233.845" x2="83.3592" y2="213.269" gradientUnits="userSpaceOnUse">
<stop stop-color="white"/>
<stop offset="0.14" stop-color="#FBFBFB"/>
<stop offset="0.29" stop-color="#EEEEED"/>
<stop offset="0.45" stop-color="#D9D9D7"/>
<stop offset="0.62" stop-color="#BBBCB9"/>
<stop offset="0.79" stop-color="#949691"/>
<stop offset="0.95" stop-color="#666861"/>
<stop offset="1" stop-color="#585A53"/>
</linearGradient>
<linearGradient id="paint5_linear" x1="19.4844" y1="703.691" x2="-179.812" y2="1330.65" gradientUnits="userSpaceOnUse">
<stop stop-color="white"/>
<stop offset="0.14" stop-color="#FBFBFB"/>
<stop offset="0.29" stop-color="#EEEEED"/>
<stop offset="0.45" stop-color="#D9D9D7"/>
<stop offset="0.62" stop-color="#BBBCB9"/>
<stop offset="0.79" stop-color="#949691"/>
<stop offset="0.95" stop-color="#666861"/>
<stop offset="1" stop-color="#585A53" stop-opacity="0.5"/>
</linearGradient>
<linearGradient id="paint6_linear" x1="79.9976" y1="-32.6717" x2="29.9959" y2="132.568" gradientUnits="userSpaceOnUse">
<stop stop-color="white"/>
<stop offset="0.572917"/>
</linearGradient>
<linearGradient id="paint7_linear" x1="60.2441" y1="99.057" x2="153.172" y2="5.00127" gradientUnits="userSpaceOnUse">
<stop stop-color="white"/>
<stop offset="0.14" stop-color="#FBFBFB"/>
<stop offset="0.29" stop-color="#EEEEED"/>
<stop offset="0.45" stop-color="#D9D9D7"/>
<stop offset="0.62" stop-color="#BBBCB9"/>
<stop offset="0.79" stop-color="#949691"/>
<stop offset="0.95" stop-color="#666861"/>
<stop offset="1" stop-color="#585A53"/>
</linearGradient>
<linearGradient id="paint8_linear" x1="488.24" y1="942.006" x2="705.871" y2="2247.69" gradientUnits="userSpaceOnUse">
<stop stop-color="white"/>
<stop offset="0.14" stop-color="#FBFBFB"/>
<stop offset="0.29" stop-color="#EEEEED"/>
<stop offset="0.45" stop-color="#D9D9D7"/>
<stop offset="0.62" stop-color="#BBBCB9"/>
<stop offset="0.79" stop-color="#949691"/>
<stop offset="0.95" stop-color="#666861"/>
<stop offset="1" stop-color="#585A53" stop-opacity="0.5"/>
</linearGradient>
<clipPath id="clip0">
<rect width="57.6022" height="68.7626" fill="white" transform="translate(87.9062 127.062) rotate(104.368)"/>
</clipPath>
<clipPath id="clip1">
<rect width="41.6111" height="49.6733" fill="white" transform="translate(43.332 190) rotate(60.7295)"/>
</clipPath>
<clipPath id="clip2">
<rect width="83.7258" height="99.9477" fill="white" transform="translate(60.1484) rotate(33.6322)"/>
</clipPath>
</defs>
</svg>
